<?xml version="1.0" standalone="no"?><!DOCTYPE svg PUBLIC "-//W3C//DTD SVG 1.1//EN" "http://www.w3.org/Graphics/SVG/1.1/DTD/svg11.dtd"><svg t="1591351734022" class="icon" viewBox="0 0 1024 1024" version="1.1" xmlns="http://www.w3.org/2000/svg" p-id="2401" xmlns:xlink="http://www.w3.org/1999/xlink" width="200" height="200"><defs><style type="text/css"></style></defs><path d="M956.036129 115.888172c15.282925 0 27.670022-13.620301 27.670022-30.417204 0-16.802409-12.387097-30.417204-27.670022-30.417205-15.277419 0-27.664516 13.614796-27.664516 30.417205 0 16.791398 12.387097 30.411699 27.664516 30.411699zM57.806452 878.674581c0-5.742108 3.996903-10.135398 9.221505-10.135398h750.057978c5.230108 0 9.221505 4.39329 9.221506 10.135398 0 5.747613-3.996903 10.140903-9.221506 10.140903H67.033462c-5.230108 0-9.227011-4.39329-9.22701-10.140903z m786.949505 0c0-5.742108 3.991398-10.135398 9.221505-10.135398H958.486022c5.230108 0 9.221505 4.39329 9.221505 10.135398 0 5.747613-3.996903 10.140903-9.221505 10.140903h-104.514065c-5.230108 0-9.221505-4.39329-9.221505-10.140903z m-491.844817 135.17901c0-5.742108 3.996903-10.135398 9.221505-10.135397h350.439226c5.230108 0 9.221505 4.39329 9.221505 10.135397 0 5.747613-3.996903 10.140903-9.221505 10.140904H362.132645c-5.230108 0-9.221505-4.39329-9.221505-10.140904zM208.433548 946.269591c0-5.742108 3.996903-10.135398 9.221506-10.135397h73.772043c5.230108 0 9.227011 4.39329 9.227011 10.135397 0 5.747613-3.996903 10.140903-9.221506 10.140904h-73.772043c-5.230108 0-9.227011-4.39329-9.227011-10.140904z m482.617807 0c0-5.742108 3.996903-10.135398 9.221505-10.135397h104.51957c5.224602 0 9.221505 4.39329 9.221505 10.135397 0 5.747613-3.996903 10.140903-9.221505 10.140904h-104.51957c-5.224602 0-9.221505-4.39329-9.221505-10.140904z m-138.328086 0c0-5.742108 3.996903-10.135398 9.221505-10.135397h43.035527c5.230108 0 9.221505 4.39329 9.221505 10.135397 0 5.747613-3.996903 10.140903-9.221505 10.140904h-43.035527c-5.230108 0-9.221505-4.39329-9.221505-10.140904z m-27.664516-10.135397c5.224602 0 9.221505 4.39329 9.221505 10.135397 0 5.747613-3.996903 10.140903-9.221505 10.140904H328.318624c-5.224602 0-9.221505-4.39329-9.221506-10.140904 0-5.742108 3.996903-10.135398 9.221506-10.135397h196.740129zM849.138237 322.56a419.151828 419.151828 0 0 1 58.96258 257.007484l59.904 60.476559a31.452215 31.452215 0 0 1 0 44.450409 31.386151 31.386151 0 0 1-44.411871 0l-58.544172-59.111226a31.386151 31.386151 0 0 0-44.417376 0 31.452215 31.452215 0 0 0-0.963441 43.437419l0.963441 1.012989 66.598537 66.653592c20.391914 20.441462 20.391914 53.539785 0 73.981247a52.284559 52.284559 0 0 1-73.975741 0c-7.410237 6.810151-14.385548 14.198366-21.559054 21.526022l-4.332731 4.39329a422.923011 422.923011 0 0 1-37.667785 33.456172h-516.514409a422.912 422.912 0 0 1-33.219441-29.079398l-4.497892-4.431828C85.168172 726.010495 45.298237 563.442237 92.038882 414.538323L51.177978 373.594839c-20.48-20.446968-20.535054-53.638882-0.104602-74.140904a52.350624 52.350624 0 0 1 74.080344-0.110107l25.792689 26.18357a31.386151 31.386151 0 0 0 44.411871 0 31.452215 31.452215 0 0 0 0.968946-43.43742l-0.968946-1.018494-48.072947-48.116989a31.452215 31.452215 0 0 1 0-44.450409 31.391656 31.391656 0 0 1 43.404387-0.968946l1.007484 0.968946 66.648086 66.598538a31.369634 31.369634 0 0 0 44.340301 2.147096 31.435699 31.435699 0 0 0-0.027526-46.542451l-28.512345-28.644473C471.700645 61.952 729.132043 124.861935 849.138237 322.565505zM111.081978 121.327484a31.402667 31.402667 0 0 1 31.386151 31.413677l-0.022021 1.211183a31.402667 31.402667 0 0 1-31.36413 30.208 31.402667 31.402667 0 0 1-31.391655-31.419183l0.022021-1.200172a31.402667 31.402667 0 0 1 31.369634-30.213505z" fill="#D5E3F7" p-id="2402"></path><path d="M642.185634 52.301075a20.958968 20.958968 0 0 0 20.992-20.92043c0-11.555785-9.397677-20.92043-20.992-20.92043a20.958968 20.958968 0 0 0-20.997505 20.92043c0 11.55028 9.403183 20.92043 20.997505 20.92043z m0 10.460215c-17.396989 0-31.490753-14.04972-31.490752-31.380645s14.093763-31.380645 31.490752-31.380645c17.391484 0 31.490753 14.04972 31.490753 31.380645s-14.099269 31.380645-31.490753 31.380645z m157.453764 496.860215a20.958968 20.958968 0 0 0 20.992-20.92043c0-11.56129-9.397677-20.92043-20.992-20.92043a20.958968 20.958968 0 0 0-20.997506 20.92043c0 11.55028 9.403183 20.92043 20.997506 20.92043z m0 10.460215c-17.396989 0-31.490753-14.04972-31.490753-31.380645s14.093763-31.380645 31.490753-31.380645c17.391484 0 31.490753 14.04972 31.490753 31.380645s-14.099269 31.380645-31.490753 31.380645zM489.978495 235.354839a20.958968 20.958968 0 0 0 20.992-20.92043c0-11.555785-9.397677-20.92043-20.992-20.920431a20.958968 20.958968 0 0 0-20.992 20.920431c0 11.55028 9.397677 20.92043 20.992 20.92043z m0 10.460215c-17.396989 0-31.490753-14.04972-31.490753-31.380645s14.099269-31.380645 31.490753-31.380646c17.396989 0 31.490753 14.04972 31.490752 31.380646s-14.093763 31.380645-31.490752 31.380645zM196.062968 711.294624a20.958968 20.958968 0 0 0 20.997505-20.92043c0-11.555785-9.403183-20.92043-20.997505-20.920431a20.958968 20.958968 0 0 0-20.992 20.920431c0 11.555785 9.397677 20.92043 20.992 20.92043z m0 10.460215c-17.391484 0-31.490753-14.04972-31.490753-31.380645s14.099269-31.380645 31.490753-31.380646c17.396989 0 31.490753 14.04972 31.490752 31.380646s-14.093763 31.380645-31.490752 31.380645zM783.888516 135.982796h31.490753c2.901333 0 5.252129 2.339785 5.252129 5.230107 0 2.884817-2.350796 5.230108-5.246624 5.230108h-31.490752a5.241118 5.241118 0 0 1-5.25213-5.230108c0-2.890323 2.350796-5.230108 5.246624-5.230107z" fill="#8AB7E8" p-id="2403"></path><path d="M806.537634 123.045161v31.380645a5.230108 5.230108 0 1 1-10.471225 0v-31.380645a5.230108 5.230108 0 1 1 10.471225 0zM382.353892 55.053763h31.424689a5.230108 5.230108 0 0 1 0 10.460215H382.348387a5.230108 5.230108 0 0 1 0-10.460215z" fill="#8AB7E8" p-id="2404"></path><path d="M404.645161 43.789763v31.512775a5.257634 5.257634 0 0 1-5.268645 5.252129 5.257634 5.257634 0 0 1-5.26314-5.252129V43.789763a5.257634 5.257634 0 1 1 10.531785 0zM167.671742 484.979613h31.60086c2.906839 0 5.26314 2.350796 5.26314 5.252129a5.257634 5.257634 0 0 1-5.26314 5.252129h-31.60086a5.257634 5.257634 0 0 1-5.26314-5.252129c0-2.901333 2.356301-5.252129 5.268645-5.252129z" fill="#8AB7E8" p-id="2405"></path><path d="M189.357419 475.069935v31.655914c0 2.912344-2.33428 5.274151-5.213591 5.274151a5.246624 5.246624 0 0 1-5.219097-5.279656v-31.655914c0-2.912344 2.33428-5.274151 5.213592-5.27415 2.884817 0 5.219097 2.367312 5.219096 5.279655zM637.896946 258.752688h31.298065c2.879312 0 5.213591 2.367312 5.213591 5.279656 0 2.906839-2.33428 5.274151-5.213591 5.274151h-31.292559a5.246624 5.246624 0 0 1-5.219097-5.279656c0-2.912344 2.33428-5.274151 5.219097-5.274151z" fill="#8AB7E8" p-id="2406"></path><path d="M657.892473 247.741935v33.032259a5.505376 5.505376 0 0 1-11.010753 0v-33.032259a5.505376 5.505376 0 0 1 11.010753 0z" fill="#8AB7E8" p-id="2407"></path><path d="M730.91028 374.365591H276.573591C256.176172 374.365591 239.483871 391.02486 239.483871 411.378237v360.89944c0 20.353376 16.692301 37.012645 37.08972 37.012646h454.336689c20.397419 0 37.08972-16.659269 37.08972-37.012646V411.378237c0-20.353376-16.692301-37.012645-37.08972-37.012646z m-454.336689 18.509076h454.336689a18.580645 18.580645 0 0 1 18.547612 18.50357v37.01815H258.031484v-37.01815a18.580645 18.580645 0 0 1 18.542107-18.50357z m454.336689 397.90658H276.573591a18.580645 18.580645 0 0 1-18.547613-18.509075V466.910968h491.426409v305.366709a18.580645 18.580645 0 0 1-18.542107 18.509076z" fill="#63A3DF" p-id="2408"></path><path d="M495.814194 649.634409l-11.010753 27.069935C483.482151 682.666667 487.446022 688.172043 493.171613 688.172043H514.752688c5.725591 0 10.129892-5.505376 8.368172-11.467699l-11.010752-27.069935c7.927742-3.209634 13.653333-11.467699 13.653333-21.102108 0-12.849548-9.689462-22.940903-22.021506-22.940903s-22.021505 10.091355-22.021505 22.940903c0.44043 9.634409 6.166022 17.892473 14.093764 21.102108z" fill="#63A3DF" p-id="2409"></path><path d="M575.532043 560.474839h-18.376946c0-30.477763-24.807226-55.411613-55.125334-55.411613-30.323613 0-55.130839 24.939355-55.130838 55.411613h-18.371441c-10.107871 0-18.376946 8.313118-18.376946 18.470537v129.293764c0 10.157419 8.269075 18.470538 18.376946 18.470537h146.999054c10.107871 0 18.376946-8.313118 18.376946-18.470537V578.945376c0-10.157419-8.269075-18.470538-18.376946-18.470537z m-73.50228-36.941076c20.210237 0 36.748387 16.626237 36.748388 36.941076h-73.496775c0-20.314839 16.532645-36.941075 36.748387-36.941076z m73.496775 184.705377H428.527484V578.945376h146.999054v129.293764z m133.224602-272.439054c10.107871 0 18.376946-8.313118 18.376946-18.470538 0-10.162925-8.269075-18.470538-18.376946-18.470537s-18.376946 8.313118-18.376946 18.470537 8.269075 18.470538 18.376946 18.470538z m0-27.708559a9.238022 9.238022 0 0 1 0 18.470538 9.238022 9.238022 0 0 1 0-18.470538z m-70.28714 24.476903a4.426323 4.426323 0 0 0 6.43028 0l8.731526-8.77557 8.726022 8.77557a4.426323 4.426323 0 0 0 6.43028 0 4.481376 4.481376 0 0 0 0-6.468817l-8.726022-8.770065 8.726022-8.77557a4.481376 4.481376 0 0 0 0-6.463311 4.426323 4.426323 0 0 0-6.43028 0l-8.726022 8.770064-8.731526-8.770064a4.426323 4.426323 0 0 0-6.43028 0 4.481376 4.481376 0 0 0 0 6.463311l8.726022 8.77557-8.726022 8.770065a4.481376 4.481376 0 0 0 0 6.468817zM824.787957 242.385204c15.156301-26.321204 49.152-35.559226 75.33557-20.314838 26.18357 15.233376 35.372043 48.942796 20.215742 75.258494-11.027269 19.400946-32.156903 29.095914-52.829592 27.251613l-11.946666 20.314839 7.812129 4.619011v19.39544l-11.484215 0.456947 5.967828 10.162924-17.452043 10.15742-7.812129-4.619011-9.188473 16.163785h-17.914495l-15.161807 2.312258-6.887225-25.401806 44.098064-76.194409a55.730925 55.730925 0 0 1-2.752688-59.568172z m70.744086-12.469677c-22.049032-12.469677-50.071398-5.081462-62.475011 16.626236a45.722151 45.722151 0 0 0 2.295742 49.867699c2.295742 3.231656 2.295742 6.925763 0.456946 10.15742l-41.802322 72.962752 3.677591 13.389076 6.887226-0.924904h13.779957l6.435785-11.544774a8.880172 8.880172 0 0 1 12.403613-3.231656l3.21514 1.849807 4.591484-2.769205-0.919398-1.849806c-1.838796-2.769204-1.838796-6.463312-0.456947-9.232516 1.838796-3.237161 4.591484-5.081462 7.806624-5.081462h2.758194v-5.081463l-3.21514-1.844301a8.973763 8.973763 0 0 1-3.21514-12.469677l11.946667-20.314839c1.83329-3.237161 5.04843-5.081462 8.726021-4.624516 17.914495 1.849806 35.372043-6.920258 44.098065-22.621592 12.403613-22.164645 5.053935-50.330151-16.995097-63.262279z" fill="#63A3DF" p-id="2410"></path><path d="M877.12757 259.237161c6.463312 3.688602 8.77557 12.469677 5.081462 18.93299-3.699613 6.463312-12.475183 8.77557-18.938494 5.081462-6.468817-3.694108-8.781075-12.469677-5.086968-18.938495 3.699613-6.925763 12.475183-9.232516 18.938495-5.075957m4.624516-8.313118c-11.087828-6.468817-24.94486-2.769204-31.413678 8.313118-6.468817 11.082323-2.77471 24.939355 8.313119 31.402667 11.087828 6.463312 24.94486 2.769204 31.413677-8.313118 6.468817-10.625376 2.769204-24.939355-8.313118-31.402667z" fill="#63A3DF" p-id="2411"></path></svg>