<?xml version="1.0" encoding="UTF-8"?>
<!DOCTYPE svg PUBLIC "-//W3C//DTD SVG 1.1//EN" "http://www.w3.org/Graphics/SVG/1.1/DTD/svg11.dtd">
<!-- Creator: CorelDRAW 2019 (64-Bit) -->
<svg xmlns="http://www.w3.org/2000/svg" xml:space="preserve" width="76.7832mm" height="20.3632mm" version="1.1" style="shape-rendering:geometricPrecision; text-rendering:geometricPrecision; image-rendering:optimizeQuality; fill-rule:evenodd; clip-rule:evenodd"
viewBox="0 0 7678.32 2036.32"
 xmlns:xlink="http://www.w3.org/1999/xlink"
 xmlns:xodm="http://www.corel.com/coreldraw/odm/2003">
 <defs>
  <style type="text/css">
   <![CDATA[
    .fil0 {fill:#FEFEFE}
   ]]>
  </style>
 </defs>
 <g id="图层_x0020_1">
  <metadata id="CorelCorpID_0Corel-Layer"/>
  <path class="fil0" d="M1770.66 1632.67c0.12,-11.01 -8.77,-20.04 -19.81,-20.19 -6.01,0 -11.44,2.44 -14.99,6.59 -190.38,201.97 -460.34,327.73 -758.53,326.24 -298.19,-1.54 -566.78,-130.11 -755.1,-333.94 -3.66,-4.33 -8.89,-7.06 -14.99,-7.06 -11.07,0 -20.04,9.06 -20.04,20.19 0,4.94 1.86,9.5 4.94,12.95 177.66,240.45 462.63,397.08 784.61,398.85 322.06,1.63 608.49,-152.16 788.99,-390.6 2.93,-3.51 4.94,-7.99 4.94,-13.04l-0.02 0.01z"/>
  <path class="fil0" d="M1088.35 82.08c-9.64,5.43 -12.95,17.72 -7.49,27.24 2.99,5.23 7.93,8.68 13.36,9.87 269.99,63.78 513.84,234.67 661.64,493.71 147.66,259.13 170.75,555.83 88.35,820.71 -1.86,5.43 -1.6,11.47 1.45,16.67 5.46,9.58 17.77,12.84 27.45,7.32 4.24,-2.53 7.35,-6.51 8.89,-10.86 119.19,-274.08 112.51,-599.08 -47.02,-878.88 -159.65,-279.86 -436,-451.02 -732.65,-487.84l-0.06 0c-4.56,-1.1 -9.41,-0.44 -13.91,2.09l-0.01 -0.03z"/>
  <path class="fil0" d="M86.74 1448.13c9.5,5.78 21.7,2.5 27.36,-7 3.11,-5.17 3.43,-11.15 1.74,-16.44 -79.7,-265.75 -53.59,-562.43 96.77,-819.9 150.56,-257.3 396.21,-425.81 666.84,-486.83 5.4,-0.99 10.6,-4.3 13.48,-9.64 5.55,-9.5 2.27,-21.78 -7.29,-27.27 -4.3,-2.47 -9.24,-3.22 -13.77,-2.29 -297.14,33.69 -575.23,202.08 -737.62,480.06 -162.44,278.09 -172.81,603.06 -56.26,878.45 1.48,4.47 4.41,8.31 8.74,10.83l0.01 0.03z"/>
  <path class="fil0" d="M109.97 1596.22l545.75 -167.49c0.38,0 0.78,-0.17 1.39,-0.38 0.87,-0.23 1.68,-0.64 2.56,-1.28 7.55,-4.36 10.19,-13.97 5.72,-21.67 -2.61,-4.33 -7.03,-7.03 -11.88,-7.55l0 -0.23 -78.07 -13.59c-5.58,-0.9 -9.85,-5.78 -10.02,-11.53 0,-3.54 1.45,-6.68 3.8,-8.89l-0.06 0 324.65 -374.17c8.71,-11.7 19.98,-22.01 33.37,-29.83 30.09,-17.4 65.03,-18.7 94.94,-7l-124.6 -361.27 -823.9 949.34 0.12 0.03c-10.28,10.66 -12.69,27.24 -5.02,40.75 8.51,14.46 26.02,20.36 41.24,14.52l0.03 0.26 -0.02 -0.02z"/>
  <path class="fil0" d="M1887.13 1538.66l-417.82 -388.86c-0.29,-0.32 -0.64,-0.64 -1.05,-0.96l-0.06 -0.06c-0.78,-0.64 -1.45,-1.19 -2.32,-1.66 -7.55,-4.39 -17.37,-1.74 -21.61,5.81 -2.5,4.56 -2.58,9.87 -0.7,14.29l27.16 74.41c2.06,5.29 0,11.47 -5.08,14.38 -2.99,1.8 -6.36,2.12 -9.5,1.22l-486.36 -94.13c-14.61,-1.54 -29.04,-6.22 -42.55,-13.85 -30.03,-17.31 -48.65,-46.93 -53.44,-78.82l-250.53 288.6 1233.99 238.82 0 -0.12c14.32,3.57 29.91,-2.64 37.76,-15.94 8.36,-14.61 4.65,-32.73 -7.96,-43.1l0.15 -0.06 -0.09 0.03 0.01 0z"/>
  <path class="fil0" d="M820.8 584.68c0,0.35 -0.26,0.9 -0.26,1.22l0 0.2c-0.29,0.84 -0.29,1.8 -0.29,2.73 0,8.83 7.12,15.8 15.77,15.77 5.37,0 9.76,-2.5 12.81,-6.45l50.83 -60.67c3.63,-4.3 9.96,-5.61 15.07,-2.82 2.93,1.66 5.05,4.44 5.69,7.67l0.12 -0.03 161.68 468.27c5.78,13.3 9.12,28.23 9.12,43.77 0.17,34.71 -16.24,65.64 -41.42,85.82l375.21 72.52 -410.27 -1188.1 0 0.03c-3.95,-14.2 -17.14,-24.77 -32.56,-24.6 -17.05,0.06 -29.89,12.2 -32.59,28.26l-128.89 556.41 -0.02 0.01 0 -0.01z"/>
  <path class="fil0" d="M3306.48 869.16l-523.77 0c-22.74,0 -41.3,-18.38 -41.3,-41.18 0,-22.83 18.56,-41.39 41.3,-41.39l822.39 0 0 -297.9 -822.39 0c-186.72,0 -339.05,152.36 -339.05,339.26 0,186.75 152.33,339.05 339.05,339.05l523.77 0 0 0.06c22.8,0 41.13,18.56 41.13,41.27 0,22.74 -18.33,41.39 -41.13,41.39l-822.39 0 0 297.64 822.39 0c186.87,0 339.02,-152.22 339.02,-339.02 0,-186.69 -152.16,-339.23 -339.02,-339.23l0 0.05z"/>
  <path class="fil0" d="M4208.42 1096.91l118 -281.02 118.15 281.02 -236.15 0zm425.46 450.49l373.41 0 -494.03 -1058.68 -373.56 0 -494.2 1058.68 373.7 0 74.35 -177.31 465.89 0 74.44 177.31z"/>
  <polygon class="fil0" points="5923.09,488.89 5923.09,489.24 5916.96,489.24 5916.96,1117.53 5454.66,488.89 5091.91,488.89 5091.91,1547.37 5402.47,1547.37 5402.47,918.53 5864.74,1547.63 6227.37,1547.37 6227.37,488.89 "/>
  <polygon class="fil0" points="7308.8,488.89 6995.19,915.31 6681.76,488.89 6312.09,488.89 6810.45,1166.7 6810.45,1547.37 7179.9,1547.37 7179.9,1166.7 7678.32,488.89 "/>
 </g>
</svg>
