<?xml version="1.0" encoding="UTF-8"?>
<!DOCTYPE svg PUBLIC "-//W3C//DTD SVG 1.1//EN" "http://www.w3.org/Graphics/SVG/1.1/DTD/svg11.dtd">
<!-- Creator: CorelDRAW 2019 (64-Bit) -->
<svg xmlns="http://www.w3.org/2000/svg" xml:space="preserve" width="19.6399mm" height="20.3632mm" version="1.1" style="shape-rendering:geometricPrecision; text-rendering:geometricPrecision; image-rendering:optimizeQuality; fill-rule:evenodd; clip-rule:evenodd"
viewBox="0 0 502.36 520.86"
 xmlns:xlink="http://www.w3.org/1999/xlink"
 xmlns:xodm="http://www.corel.com/coreldraw/odm/2003">
 <defs>
  <style type="text/css">
   <![CDATA[
    .fil0 {fill:#FEFEFE}
   ]]>
  </style>
 </defs>
 <g id="图层_x0020_1">
  <metadata id="CorelCorpID_0Corel-Layer"/>
  <path class="fil0" d="M452.91 417.61c0.03,-2.82 -2.24,-5.13 -5.07,-5.16 -1.54,0 -2.93,0.62 -3.83,1.69 -48.7,51.66 -117.75,83.83 -194.02,83.45 -76.27,-0.39 -144.97,-33.28 -193.14,-85.42 -0.94,-1.11 -2.27,-1.81 -3.83,-1.81 -2.83,0 -5.13,2.32 -5.13,5.16 0,1.26 0.48,2.43 1.26,3.31 45.44,61.5 118.33,101.57 200.69,102.02 82.38,0.42 155.64,-38.92 201.81,-99.91 0.75,-0.9 1.26,-2.04 1.26,-3.34l-0.01 0z"/>
  <path class="fil0" d="M278.38 20.99c-2.47,1.39 -3.31,4.53 -1.92,6.97 0.76,1.34 2.03,2.22 3.42,2.52 69.06,16.31 131.43,60.02 169.24,126.28 37.77,66.28 43.68,142.17 22.6,209.92 -0.48,1.39 -0.41,2.93 0.37,4.26 1.4,2.45 4.55,3.28 7.02,1.87 1.08,-0.65 1.88,-1.67 2.27,-2.78 30.49,-70.11 28.78,-153.23 -12.03,-224.8 -40.84,-71.58 -111.52,-115.36 -187.4,-124.78l-0.02 0c-1.17,-0.28 -2.41,-0.11 -3.56,0.53l-0 -0.01z"/>
  <path class="fil0" d="M22.19 370.41c2.43,1.48 5.55,0.64 7,-1.79 0.8,-1.32 0.88,-2.85 0.45,-4.21 -20.39,-67.97 -13.71,-143.86 24.75,-209.72 38.51,-65.81 101.34,-108.92 170.57,-124.52 1.38,-0.25 2.71,-1.1 3.45,-2.47 1.42,-2.43 0.58,-5.57 -1.86,-6.98 -1.1,-0.63 -2.36,-0.82 -3.52,-0.59 -76,8.62 -147.13,51.69 -188.67,122.79 -41.55,71.13 -44.2,154.25 -14.39,224.69 0.38,1.14 1.13,2.13 2.24,2.77l0 0.01z"/>
  <path class="fil0" d="M28.13 408.29l139.59 -42.84c0.1,0 0.2,-0.04 0.36,-0.1 0.22,-0.06 0.43,-0.16 0.65,-0.33 1.93,-1.12 2.61,-3.57 1.46,-5.54 -0.67,-1.11 -1.8,-1.8 -3.04,-1.93l0 -0.06 -19.97 -3.48c-1.43,-0.23 -2.52,-1.48 -2.56,-2.95 0,-0.91 0.37,-1.71 0.97,-2.27l-0.02 0 83.04 -95.71c2.23,-2.99 5.11,-5.63 8.54,-7.63 7.7,-4.45 16.63,-4.78 24.28,-1.79l-31.87 -92.41 -210.74 242.83 0.03 0.01c-2.63,2.73 -3.25,6.97 -1.28,10.42 2.18,3.7 6.66,5.21 10.55,3.71l0.01 0.07 -0.01 -0.01z"/>
  <path class="fil0" d="M482.7 393.56l-106.87 -99.46c-0.07,-0.08 -0.16,-0.16 -0.27,-0.25l-0.02 -0.02c-0.2,-0.16 -0.37,-0.3 -0.59,-0.42 -1.93,-1.12 -4.44,-0.45 -5.53,1.49 -0.64,1.17 -0.66,2.52 -0.18,3.66l6.95 19.03c0.53,1.35 0,2.93 -1.3,3.68 -0.76,0.46 -1.63,0.54 -2.43,0.31l-124.4 -24.08c-3.74,-0.39 -7.43,-1.59 -10.88,-3.54 -7.68,-4.43 -12.44,-12 -13.67,-20.16l-64.08 73.82 315.63 61.09 0 -0.03c3.66,0.91 7.65,-0.68 9.66,-4.08 2.14,-3.74 1.19,-8.37 -2.04,-11.02l0.04 -0.02 -0.02 0.01 0 0z"/>
  <path class="fil0" d="M209.95 149.55c0,0.09 -0.07,0.23 -0.07,0.31l0 0.05c-0.07,0.21 -0.07,0.46 -0.07,0.7 0,2.26 1.82,4.04 4.03,4.03 1.37,0 2.5,-0.64 3.28,-1.65l13 -15.52c0.93,-1.1 2.55,-1.43 3.85,-0.72 0.75,0.42 1.29,1.14 1.46,1.96l0.03 -0.01 41.36 119.78c1.48,3.4 2.33,7.22 2.33,11.2 0.04,8.88 -4.15,16.79 -10.59,21.95l95.97 18.55 -104.94 -303.9 0 0.01c-1.01,-3.63 -4.38,-6.34 -8.33,-6.29 -4.36,0.02 -7.65,3.12 -8.34,7.23l-32.97 142.32 -0.01 0 0 -0z"/>
 </g>
</svg>
