<?xml version="1.0" standalone="no"?><!DOCTYPE svg PUBLIC "-//W3C//DTD SVG 1.1//EN" "http://www.w3.org/Graphics/SVG/1.1/DTD/svg11.dtd"><svg class="icon" width="200px" height="200.00px" viewBox="0 0 1024 1024" version="1.1" xmlns="http://www.w3.org/2000/svg"><path fill="#419EFF" d="M859.1 778.7c0-4.9-3.8-8.8-8.7-8.9-2.7 0-5 1.1-6.6 2.9-83.4 88.5-201.8 143.7-332.5 143s-248.5-57.1-331-146.4c-1.6-1.8-3.9-3-6.6-3-4.9 0-8.8 3.9-8.8 8.8 0 2.2 0.8 4.2 2.1 5.7 78 105.4 202.8 174.1 344 174.8S777.8 889 856.9 784.4c1.3-1.6 2.2-3.5 2.2-5.7M560 98.9c-4.2 2.4-5.7 7.7-3.3 12 1.3 2.3 3.5 3.7 5.9 4.3 118.4 28 225.3 102.9 290.1 216.5 64.8 113.5 74.8 243.7 38.7 359.9-0.8 2.3-0.7 4.9 0.7 7.2 2.4 4.2 7.8 5.7 12 3.2 1.9-1.1 3.2-2.8 3.9-4.7 52.3-120.2 49.4-262.7-20.6-385.3-70.1-122.8-191.2-197.9-321.3-214.1-2-0.4-4.2-0.1-6.1 1M120.8 697.8c4.2 2.5 9.5 1.1 12-3.1 1.4-2.3 1.5-4.9 0.8-7.2C98.7 571 110.1 440.9 176.1 328 242 215.2 349.7 141.4 468.4 114.6c2.4-0.5 4.6-1.9 5.9-4.2 2.4-4.2 1-9.6-3.2-12-1.9-1.1-4.1-1.4-6-1-130.3 14.8-252.2 88.6-323.5 210.5C70.4 429.8 65.9 572.3 117 693c0.7 1.9 1.9 3.7 3.8 4.8M131 762.6l239.2-73.4 0.6-0.2h0.1l1.1-0.5c3.3-1.9 4.4-6.2 2.5-9.5-1.1-2-3.1-3.2-5.2-3.4l-34.2-6c-2.4-0.4-4.3-2.5-4.4-5.1 0-1.5 0.6-2.9 1.7-3.9l142.3-164c3.8-5.2 8.7-9.6 14.6-13.1 13.2-7.6 28.5-8.3 41.7-3.1L476.3 322 115.1 738.3c-4.5 4.6-5.6 11.9-2.2 17.8 3.7 6.4 11.5 9 18.1 6.5zM910.2 737.4L727 566.9l-0.4-0.4v-0.1l-1-0.7c-3.3-1.9-7.6-0.8-9.5 2.6-1.1 2-1.2 4.3-0.3 6.2l11.9 32.6c0.9 2.3 0 5-2.2 6.3-1.3 0.8-2.8 0.9-4.1 0.5L508 572.8c-6.4-0.7-12.7-2.7-18.6-6.1-13.2-7.6-21.4-20.6-23.5-34.5L356.1 658.7l541 104.7c6.3 1.6 13.1-1.1 16.5-7 3.7-6.5 2-14.4-3.4-19zM442.7 319.2l-0.1 0.6-0.1 1.2c0 3.8 3.1 6.9 7 6.9 2.3 0 4.3-1.1 5.6-2.8l22.3-26.6c1.6-1.9 4.3-2.5 6.6-1.2 1.3 0.7 2.2 2 2.5 3.3l70.9 205.3c2.6 5.9 4 12.4 4 19.2 0 15.3-7.1 28.8-18.2 37.6l164.5 31.8L527.8 73.7c-1.8-6.2-7.5-10.8-14.3-10.8-7.4 0-13.1 5.3-14.2 12.4l-56.6 243.9z" /></svg>