<?xml version="1.0" standalone="no"?>
<!DOCTYPE svg PUBLIC "-//W3C//DTD SVG 1.1//EN" "http://www.w3.org/Graphics/SVG/1.1/DTD/svg11.dtd" >
<svg xmlns="http://www.w3.org/2000/svg">
<metadata>Generated by IcoMoon</metadata>
<defs>
<font id="icomoon" horiz-adv-x="1024">
<font-face units-per-em="1024" ascent="896" descent="-128" />
<missing-glyph horiz-adv-x="1024" />
<glyph unicode="&#x20;" horiz-adv-x="0" d="" />
<glyph unicode="&#xe000;" glyph-name="uniE000" horiz-adv-x="902" d="M390 660q0 22 15 39t39 17q22 0 37-17t15-39q0-38-38-52v-112l62-40 64 36v34q-36 14-36 52 0 22 15 38t37 16 39-16 17-38q0-18-11-32t-27-20v-44q0-12-8-14l-58-32 58-34q8-2 8-14v-88q16-4 27-18t11-34q0-22-17-37t-39-15-37 15-15 37q0 42 36 52v78l-64 40-116-68 48-32q6-6 6-14v-140q38-14 38-52 0-22-15-39t-37-17q-24 0-39 17t-15 39q0 18 10 32t26 20v132l-56 34-68-36v-48q38-12 38-50 0-24-16-41t-40-17q-22 0-37 17t-15 41q0 16 10 30t24 20v56q0 10 10 16l60 34-60 38q-10 6-10 14v68q-14 4-24 19t-10 31q0 22 15 38t37 16q24 0 40-16t16-38q0-16-10-31t-28-19v-60l68-42 116 68-52 34q-8 4-8 14v122q-16 6-26 20t-10 32zM284 544q-20 0-20-22 0-20 20-20 22 0 22 20 0 22-22 22zM284 174q22 0 22 22 0 6-6 13t-16 7q-8 0-14-7t-6-13q0-22 20-22zM444 90q20 0 20 22 0 20-20 20t-20-20q0-22 20-22zM600 228q22 0 22 20 0 22-22 22-20 0-20-22 0-20 20-20zM600 600q-10 0-15-7t-5-15q0-20 20-20 22 0 22 20 0 8-6 15t-16 7zM464 660q0 20-20 20t-20-20 20-20 20 20zM66 608v-446l384-222 386 222v446l-386 222zM450 896q18 0 32-8l390-224q30-20 30-54v-450q0-34-30-54l-390-224q-16-10-32-10-14 0-30 10l-390 224q-30 18-30 54v450q0 36 30 54l390 224q14 8 30 8z" />
<glyph unicode="&#xe001;" glyph-name="uniE001" horiz-adv-x="896" d="M832 832q26 0 45-19t19-45v-768q0-28-19-46t-45-18h-768q-28 0-46 18t-18 46v768q0 26 18 45t46 19h768zM832 768h-768v-768h768v768zM358 212q-40-12-34-26t41-22 86-7 101 23q-20 8-26 12t-10 6q-46-8-73-9t-67 5q-30 2-26 10 0 4 8 8zM536 268q-58-10-98-11t-84 3q-28 2-24 16 2 6 8 12-42-16-35-29t45-21 98-5 120 21q-14 2-22 8-6 2-8 6zM600 602q-66-20-104-46-34-24-48-59t28-83q20-26 10-50-6-12-16-22 22 12 36 28 12 14 17 31t-9 37-24 35-4 33 32 40 82 56zM654 156q4-2 4-8 0-12-24-20-30-10-85-15t-115-5-113 5-79 15q-8 4-5 8t10 9 17 8 14 3q16 4 18 4h6q-10 6-37 1t-48-15-24-22 33-20q102-16 192-14t151 13 86 26-1 27zM560 324q4 4 11 5t11 5q6 2 10 6-14-2-32-4-16-2-34-5t-38-5q-48-4-93-5t-71 3q-30 4-27 11t19 15q18 8 52 16-14 0-32-2-16-4-35-9t-41-15q-26-12 0-21t77-12 114 1 109 16zM592 240l-2-2h-2q64 16 87 43t20 49-27 35-54 3q-4-2-8-6-2-2-2-4 2 2 4 2 4 0 10 2 16 2 31-7t18-26-12-40-63-49zM446 366q-10 20-26 41t-24 44 0 49 50 60q52 40 69 74t17 58q0 28-18 48 10-42-5-71t-41-53-56-45-48-47q-22-38 5-76t77-82zM596 84q-80-16-167-16t-145 10l18-6q10-4 29-7t49-5q46-4 100-2t102 9 81 21 35 36q-4-6-16-14-10-6-31-13t-55-13z" />
<glyph unicode="&#xe002;" glyph-name="uniE002" horiz-adv-x="896" d="M832 832q26 0 45-19t19-45v-768q0-28-19-46t-45-18h-768q-28 0-46 18t-18 46v768q0 26 18 45t46 19h768zM832 768h-768v-768h768v768zM446 88q-52 0-101 6t-88 18-62 28-23 38q0 2 1 4t1 4l114 208q2 8 12 8 8 0 36-13t110-13q70 0 102 13t46 13q12 0 14-8l112-208q2-2 2-8 0-22-24-38t-63-28-88-18-101-6zM230 180q18-14 75-27t141-13q86 0 143 13t77 27l-88 164q-20-6-52-12t-80-6-79 5-49 11zM446 446q-84 0-107 14t-23 22q8 14 18 30 10 14 20 32t22 36l60 96q6 10 12 10 10 0 14-10l112-192q0-6-6-12-2-2-28-14t-94-12zM448 598q-20-34-35-58l-25-40q10-2 24-2h34t35 1 25 3l-27 45t-31 51z" />
<glyph unicode="&#xe003;" glyph-name="uniE003" horiz-adv-x="894" d="M748 170q-6-4-4-10l80-214q4-4-2-9t-12-1l-190 136q-6 2-12 0l-192-136q-6-4-10 1t-2 9l80 214q4 6-2 10l-146 100q-6 4-3 10t9 6h182q6 0 10 4l72 200q2 6 9 6t7-6l74-200q2-4 8-4h180q6 0 9-6t-5-10zM318-2v-62h-254q-28 0-46 18t-18 44v770q0 26 18 45t46 19h768q24 0 43-19t19-45v-256h-62v256h-768v-770h254z" />
<glyph unicode="&#xe004;" glyph-name="uniE004" d="M832 832q26 0 45-19t19-45v-768q0-28-19-46t-45-18h-768q-28 0-46 18t-18 46v768q0 26 18 45t46 19h768zM832 768h-768v-768h768v768z" />
<glyph unicode="&#xe005;" glyph-name="uniE005" horiz-adv-x="960" d="M388 178q-44 0-87 5t-77 15-55 28-21 42v310q0 24 23 42t58 28 75 15 76 5q42 0 82-5t73-16 53-28 20-41v-108h-56v44q-68-28-172-28-52 0-98 7t-80 23v-248q4-6 47-20t139-14h12v-56h-12zM380 540q90 0 131 17t45 23q-4 4-45 18t-131 14-132-15-46-21q4-4 46-20t132-16zM892 130q-6-34-22-58l46-48-44-44-48 46q-26-16-56-22v-68h-62v68q-28 4-58 22l-48-46-44 44 46 48q-8 14-13 28t-9 30h-68v62h68q4 16 9 30t13 26l-46 48 44 44 48-46q24 16 58 22v68h62v-68q16-4 30-8t26-14l48 46 44-44-46-48q10-12 14-26t8-30h68v-62h-68zM736 64q40 0 69 28t29 68-29 68-69 28-67-28-27-68 27-68 67-28zM318-2v-62h-254q-28 0-46 18t-18 44v770q0 26 18 45t46 19h768q24 0 43-19t19-45v-256h-62v256h-768v-770h254z" />
<glyph unicode="&#xe006;" glyph-name="uniE006" d="M858 256q8 0 15-5t7-17v-174q0-18-14-31t-34-13h-170q-8 0-15 7t-7 17 7 17 15 7h142l-662 662q-8 6-8 16t8 18 16 8 18-8l658-662v136q0 8 7 15t17 7zM850 450q72 0 123-51t51-125v-228q0-72-51-123t-123-51h-228q-74 0-125 51t-51 123v48h-48q-72 0-123 51t-51 123v48h-48q-74 0-125 51t-51 125v228q0 72 51 124t125 52h228q74 0 125-52t51-124v-48h48q72 0 123-51t51-123v-48h48zM968 252q0 58-34 100t-106 40h-184q-16 0-22-2l-54 52q24 8 54 8h122v24q0 58-32 98t-108 42h-204l-54 50q18 8 52 8h124v26q4 72-39 106t-101 34h-184q-58 0-99-32t-41-108v-184q0-58 34-101t106-39h26v124q0 26 6 48l52-50v-204q-2-82 39-111t99-29h20l6 122q0 28 8 50l52-50q-2-6-2-22v-184q0-58 35-101t105-39h184q76 2 108 42t32 98v184z" />
<glyph unicode="&#xe007;" glyph-name="uniE007" horiz-adv-x="1014" d="M1014 138v-164q0-12-10-16l-140-82q-8-4-10-4-6 0-10 4l-140 82q-10 4-10 16v164q0 12 10 16l110 64q10 4 10 16v118h-634v-118q0-12 10-16l110-64q10-4 10-16v-164q0-12-10-16l-140-82q-8-4-10-4-6 0-10 4l-140 82q-10 4-10 16v164q0 12 10 16l110 64q10 4 10 16v148q0 30 28 30h298q20 0 20 20v102q0 12-10 16l-110 64q-10 4-10 16v164q0 12 10 16l140 82q2 0 4 1t6 1 6-1 6-1l140-82q10-4 10-16v-164q0-12-10-16l-110-64q-10-4-10-16v-102q0-20 20-20h296q12 0 21-8t9-22v-148q0-12 10-16l110-64q10-4 10-16zM250 118l-80 48q-4 0-5 1t-5 1-6-1-4-1l-80-48q-10-4-10-16v-94q0-12 10-16l80-48q2-2 10-2 6 0 10 2l80 48q10 4 10 16v94q0 12-10 16zM416 650l80-48q2-2 10-2t12 2l82 48q10 4 10 16v94q0 12-10 16l-82 48q-4 0-6 1t-6 1-6-1-4-1l-80-48q-10-4-10-16v-94q0-12 10-16zM944 118l-80 48q-4 0-5 1t-5 1-6-1-4-1l-80-48q-10-4-10-16v-94q0-12 10-16l80-48q2-2 10-2 6 0 10 2l80 48q10 4 10 16v94q0 12-10 16z" />
<glyph unicode="&#xe008;" glyph-name="uniE008" d="M174 366l240-32q12 0 20-14l90-226q4-10-2-24l-148-190q-10-10-22-8l-240 32q-14 0-18 14l-92 224q-6 12 4 24l146 190q10 10 22 10zM346-78l128 168-80 196-210 28-132-168 82-196zM426 398l-242 34q-14 0-18 14l-92 222q-6 14 4 24l146 194q10 10 24 8l240-32q12 0 20-14l92-226q4-14-4-24l-148-190q-6-10-22-10zM256 842l-132-168 84-196 210-28 130 168-82 196zM926 522l92-222q6-12-2-24l-148-192q-10-14-22-10l-240 32q-16 4-18 14l-92 224q-6 12 2 24l148 192q8 10 22 10l240-32q14-4 18-16z" />
<glyph unicode="&#xe009;" glyph-name="uniE009" horiz-adv-x="1022" d="M176 128q16 0 16-16v-224q0-16-16-16h-160q-16 0-16 16v224q0 16 16 16h160zM496 384q16 0 16-16v-480q0-16-16-16h-160q-16 0-16 16v480q0 16 16 16h160zM816 768q16 0 16-16v-864q0-16-16-16h-160q-16 0-16 16v864q0 16 16 16h160zM456 766q22 0 39-17t17-39v-172q0-12-7-20t-23-6q-10 0-18 8t-8 18v130l-406-406q-8-10-20-10t-20 10q-10 6-10 18t10 22l406 408h-132q-10 0-18 9t-10 19q0 26 28 30z" />
<glyph unicode="&#xe00a;" glyph-name="uniE00A" d="M896 384v192h-192q-28 0-46 18t-18 46v192h-372v-896h244v-64h-306v1024h498l256-256v-254zM126 832h-64v-896h64v-64h-126v1024h126v-64zM1024 68v62h-68q-4 16-8 30t-14 26l46 48-44 44-48-46q-12 10-26 14t-30 8v68h-62v-68q-34-6-58-22l-48 46-44-44 46-48q-8-12-13-26t-9-30h-68v-62h68q4-16 9-30t13-28l-46-48 44-44 48 46q30-18 58-22v-68h62v68q30 6 56 22l48-46 44 44-46 48q16 24 22 58h68zM800 2q-40 0-67 28t-27 68 27 68 67 28 69-28 29-68-29-68-69-28z" />
<glyph unicode="&#xe00b;" glyph-name="uniE00B" horiz-adv-x="966" d="M966 720v-676q0-14-6-31t-23-34-48-35-79-32q-36-10-76-18t-86-14q-10 0-19-1t-19-3h-4q-10 0-18-1t-18-1h-6q-10-2-19-2h-124t-19 2h-6q-10 0-18 1t-18 1h-4q-10 2-19 3t-19 1q-46 6-86 14t-76 18q-48 14-79 32t-48 35-23 34-6 31v678q0 14 2 22 10 28 42 57t112 53q66 20 150 31t178 11q92 0 176-11t150-31q78-24 111-53t43-57q2-8 2-24v0zM892 722q0 4-4 8-16 26-118 58t-286 32h-66q-80-2-158-18-44-8-90-21t-82-41q-2 0-2-2l-4-4q-2-2-4-2l-2-4q0-2-1-4t-1-6v-674q0-16 63-45t189-45q28-4 57-5t59-3h82q30 2 59 3t57 5q126 16 189 45t63 45v678zM330 290l174-176-114-26-46-44h272v272l-44-46-22-112-136 138 218 212-238 238-40-40 198-196z" />
<glyph unicode="&#xe00c;" glyph-name="uniE00C" horiz-adv-x="938" d="M666 526q36 0 36-36v-360q0-14-10-25t-26-11h-504q-14 0-25 11t-11 25v360q0 16 11 26t25 10h504zM210 482l204-158 204 158h-408zM666 472l-252-202-252 202v-316l148 148 26-26-148-148h452l-148 148 26 26 148-148v316zM174 38l-132-132q-8-8-18-8-8 0-16 7t-8 17 8 18l102 98h64zM938 620q0-8-7-15t-17-7-17 7-7 15v142l-178-178h-64l208 208h-136q-8 0-15 7t-7 17q0 24 22 24l170-2q20 0 34-13t14-35v-170z" />
<glyph unicode="&#xe00d;" glyph-name="uniE00D" horiz-adv-x="1030" d="M514 608q26 0 47-16t21-50l-18-168-4-74q-4-42-48-42-16 0-31 10t-15 32q-4 76-7 123t-6 73-5 36l-2 10q0 34 21 50t47 16zM514 196q28 0 46-18t18-46-18-46-46-18-46 18-18 46 18 46 46 18zM1004 150q18-38 22-74v-12q0-62-46-95t-100-33h-732q-26 0-52 9t-47 25-34 41-13 55q-2 22 6 42t18 42l370 670q46 78 122 78 74 0 118-78zM874 0q86 0 86 64 0 20-16 56l-360 668q-12 24-31 35t-37 11-36-11-30-35l-364-668q-14-26-14-56 0-64 84-64h718z" />
<glyph unicode="&#xe00e;" glyph-name="uniE00E" d="M716 896q64 0 120-24t98-66 66-99 24-121v-406q0-64-24-120t-66-98-98-66-120-24h-406q-64 0-121 24t-99 66-66 98-24 120v406q0 64 24 121t66 99 99 66 121 24h406zM962 586q0 50-19 96t-53 79-79 53-95 20h-406q-52 0-97-20t-78-53-53-79-20-96v-406q0-52 20-96t53-78 78-53 97-19h406q50 0 95 19t79 53 53 78 19 96v406zM736 526v-56h64q20 0 20-28 0-26-20-26h-64v-64h64q20 0 20-28t-20-28h-64v-58h64q20 0 20-26 0-28-20-28h-64v-6q0-18-18-18h-6v-64q0-22-28-22-10 0-19 6t-9 16v64h-56v-64q0-10-9-16t-19-6q-28 0-28 22v64h-64v-64q0-22-28-22-26 0-26 22v64h-58v-64q0-22-26-22-28 0-28 22v64h-8q-16 0-16 18v6h-66q-20 0-20 28 0 26 20 26h66v58h-66q-20 0-20 28t20 28h66v64h-66q-20 0-20 26 0 28 20 28h66v56h-66q-10 0-15 9t-5 19q0 28 20 28h66v8q0 16 16 16h8v64q0 20 28 20 26 0 26-20v-64h58v64q0 20 26 20 28 0 28-20v-64h64v64q0 20 28 20 10 0 19-5t9-15v-64h56v64q0 10 9 15t19 5q28 0 28-20v-64h6q18 0 18-16v-8h64q20 0 20-28 0-10-6-19t-14-9h-64zM690 562h-356v-358h356v358z" />
<glyph unicode="&#xe00f;" glyph-name="uniE00F" d="M394 446q-40 0-67-22t-44-54-24-69-7-67v-112h-98q-54 0-85 35t-45 89q-18 72-22 133t12 131q16 60 57 91t95 31h334v32h-244v92q0 52 23 82t99 44q28 6 57 8t59 2h4q30 0 75-2t75-8q50-8 86-42t36-84v-232q0-52-35-65t-87-13h-254zM220 234q0 36 9 79t30 80 54 62 81 25h254q62 0 76 12t14 32v232q0 40-30 65t-66 31q-28 4-70 6t-74 2h-4q-28 0-56-2t-54-6q-34-6-53-14t-28-20-11-27-2-35v-60h242v-96h-366q-98 0-120-98-16-64-11-121t21-127q22-100 98-100h66v80zM1006 510q18-74 19-132t-19-116q-18-56-43-89t-79-33h-384v-32h244v-92q0-52-38-81t-84-43q-34-10-62-14t-53-4-50 5-55 13q-48 14-66 44t-18 80v214q0 24 9 51t26 49 39 36 48 14h242q62 0 107 41t45 103v108h50q54 0 81-35t41-87zM608 66q-20 0-33-13t-13-33 13-33 33-13q18 0 31 13t13 33-13 33-31 13zM408 818q20 0 33-13t13-33-13-33-33-13q-18 0-31 13t-13 33 13 33 31 13z" />
<glyph unicode="&#xe010;" glyph-name="uniE010" horiz-adv-x="704" d="M686 576l-332-352 184-32-538-320 92 398 152-26 188 230-258 28 258 394h194l-188-300 248-20z" />
<glyph unicode="&#xe011;" glyph-name="uniE011" d="M960 448q0-22 8-34t19-19 21-9 16-2v-128q-6 0-17-2t-22-8-18-19-7-35v-192q0-24-10-37t-20-19q-14-8-30-8h-68v64h64v256q0 14 9 26t20 20 21 13 14 5q-4 0-14 4t-21 12-20 20-9 28v232t0 24h-64v64h56q36-2 54-25t18-51v-180zM678 498q14 0 24-12l126-170-126-166q-10-10-24-10-12 0-16 4-10 10-10 24 0 10 4 18l100 130-100 132q-4 12-4 18 0 32 26 32zM368 466q0-12-2-18l-100-132 100-130q2-6 2-18 0-10-6-19t-20-9q-12 0-22 10l-128 166 128 170q6 12 22 12 10 0 16-8 10-10 10-24zM592 498q12 0 20-8t8-18q0-8-2-8l-114-304q-4-20-26-20-12 0-21 9t-9 19q0 4 2 6l116 304q6 20 26 20zM128 0h64v-64h-54q-36 0-55 23t-19 51v182q0 20-8 33t-19 20-21 9-16 2v128q6 0 17 2t22 8 18 19 7 35v192q0 24 8 36t19 18 21 7 16 3h64v-64h-64v-258q0-14-9-26t-19-20-21-12-13-4q2 0 13-5t21-13 19-20 9-26v-256z" />
<glyph unicode="&#xe012;" glyph-name="uniE012" d="M256 460q0 22 8 33t18 17q12 8 28 8h58v-54h-54v-58q0-22-9-38t-19-26q-12-12-26-18 14-10 26-22 10-10 18-25t8-35q2-36 1-53t1-3h54v-54h-48q-30 2-46 20t-16 44v46q0 36-23 46t-33 10v54q6 0 15 1t18 7 16 17 7 31q0 10-1 19t-1 17v16zM572 408q0-20 6-31t15-17 19-7 16-1v-54q-10 0-33-10t-23-46v-46q0-26-16-44t-46-20h-48v54h56v56q0 20 8 35t18 25q12 12 28 22l-9 4t-19 14-18 26-8 38v28q0 10-1 20t1 10h-56v54h58q16 0 28-8 10-6 18-17t8-33q-2-8-2-16v-36zM1024 330q4-16-6-28l-162-344q-6-12-19-16t-25 2q-12 4-16 17t2 25l160 340-160 338q-6 12-2 25t16 17q12 6 25 2t19-16l164-352q4-4 4-10zM230-14q4-12 0-25t-16-17q-12-6-25-2t-17 16l-162 344q-12 12-8 28 0 6 4 10l166 352q4 12 17 16t25-2q12-4 16-17t0-25l-160-338zM812 456l-114-304q-6-20-26-20-12 0-21 9t-9 19q0 6 2 6l114 304q6 20 26 20 12 0 20-8t8-18v-8z" />
<glyph unicode="&#xe013;" glyph-name="uniE013" d="M884 320h6q6-6 6-8v-376q0-28-18-46t-46-18h-768q-28 0-46 18t-18 46v640q0 28 18 46t46 18h384v-64h-384v-424l72 74q-8 16-8 30 0 28 18 46t46 18 46-18 18-46q0-14-8-30l106-106q16 8 30 8l92 204q-28 20-28 52 0 28 18 46t46 18 46-18 18-46q0-24-18-46l78-210h4q18 0 34-10l208 202h2zM832 226l-136-132q8-20 8-30 0-28-18-46t-46-18-46 18-18 46q0 34 30 54l-78 206q-8-4-16-4-2 0-3 1t-3 1l-90-204q14-8 23-22t9-32q0-28-18-46t-46-18-46 18-18 46q0 18 10 34l-104 104q-16-10-34-10t-34 10l-94-94v-172h768v290zM886 630l130-130-64-64-126 130-130-130-64 64 130 130-130 126 64 64 130-128 126 128 64-64z" />
<glyph unicode="&#xe014;" glyph-name="uniE014" d="M980 860q44-32 44-82 0-28-18-48-6-6-24-26t-36-43-32-47-14-38h-82q0 34 11 70t51 70q44 26 51 38t7 26q0 28-23 42t-55 14q-28 0-54-15t-30-53l-84 10q6 48 50 83t116 35q84 0 122-36zM922 448q0-28-18-46t-46-18q-26 0-45 18t-19 46 19 46 45 18q28 0 46-18t18-46zM878 134q18-20 18-45t-18-43l-92-92q-18-18-42-18-28 0-46 18l-326 328q-46-20-104-20-94 0-166 53t-102 133h236q28 0 55 19t27 47v64q0 28-27 46t-55 18h-236q30 84 102 137t166 53q60 0 111-23t90-62 61-91 22-110q0-40-12-78zM832 88l-336 336-28 26 10 36q6 18 8 32t2 28q0 46-17 86t-47 70-70 48-86 18q-92 0-154-66h122q26 0 52-10t47-26 34-39 13-49v-64q0-26-13-49t-34-41-47-28-52-10h-122q30-28 70-44t84-16q34 0 82 16l38 16 30-30 326-328z" />
<glyph unicode="&#xe015;" glyph-name="uniE015" horiz-adv-x="770" d="M640 640q0-54-20-100t-55-81-82-55-99-20q-54 0-100 20t-81 55-55 81-20 100q0 52 20 99t55 82 81 55 100 20q52 0 99-20t82-55 55-82 20-99zM384 448q80 0 136 56t56 136-56 136-136 56-136-56-56-136 56-136 136-56zM512 384q52 0 99-20t82-55 55-82 20-99v-256h-768v256q0 52 20 99t55 82 81 55 100 20h256zM704 128q0 80-56 136t-136 56h-256q-80 0-136-56t-56-136v-192h640v192z" />
<glyph unicode="&#xe016;" glyph-name="uniE016" horiz-adv-x="896" d="M416 162v392h-136v56h336v-56h-136v-392h-64zM832 832q26 0 45-19t19-45v-768q0-28-19-46t-45-18h-768q-28 0-46 18t-18 46v768q0 26 18 45t46 19h768zM832 768h-768v-768h768v768z" />
<glyph unicode="&#xe017;" glyph-name="uniE017" d="M740 198q-2-2-10-2h-448q-8 0-12 2l168 156-24 22-164-148v322l8-6t34-27 76-62 138-113l256 216v-330q-2 0-8 4t-22 19-48 44-86 81l-26-22zM272 580q4 0 5 1t3 1h450q8 0 8-2l-232-194zM512 896q106 0 199-40t163-110 110-163 40-199-40-199-110-163-163-110-199-40-200 40-163 110-109 163-40 199 40 199 109 163 163 110 200 40zM512-76q96 0 179 36t146 99 99 146 36 179-36 179-99 146-146 99-179 36-180-36-147-99-99-146-36-179 36-179 99-146 147-99 180-36zM512-34q-84 0-160 32t-134 87-92 132-34 167q0 74 29 149t83 135 132 97 176 37q86 0 163-33t133-89 89-133 33-163q0-88-33-164t-89-132-133-89-163-33zM512 754q-74 0-141-29t-118-78-81-117-30-146q0-70 27-136t77-118 117-84 149-32q76 0 143 29t117 79 79 118 29 144q0 70-26 137t-74 119-116 83-152 31z" />
<glyph unicode="&#xe018;" glyph-name="uniE018" d="M730 580q32 0 32-32v-320q0-12-8-22t-24-10h-448q-12 0-22 10t-10 22v320q0 16 10 24t22 8h448zM316 548l190-152 190 152h-380zM730 534l-224-182-224 180v-280l132 132 22-24-130-132h400l-130 132 24 24 130-132v282zM512 896q106 0 199-40t163-110 110-163 40-199-40-199-110-163-163-110-199-40-200 40-163 110-109 163-40 199 40 199 109 163 163 110 200 40zM512-76q96 0 179 36t146 99 99 146 36 179-36 179-99 146-146 99-179 36-180-36-147-99-99-146-36-179 36-179 99-146 147-99 180-36zM512-34q-82 0-157 31t-134 86-94 132-35 169q0 80 30 155t86 133 133 94 171 36q82 0 157-31t133-87 93-132 35-168q0-80-30-155t-86-134-133-94-169-35zM512 754q-72 0-139-28t-118-77-82-117-31-148q0-72 28-139t78-118 118-82 146-31q72 0 139 29t118 78 81 117 30 146q0 70-27 137t-75 119-116 83-150 31z" />
<glyph unicode="&#xe019;" glyph-name="uniE019" d="M512 896q106 0 199-40t163-110 110-163 40-199-40-199-110-163-163-110-199-40-200 40-163 110-109 163-40 199 40 199 109 163 163 110 200 40zM512-64q92 0 174 35t143 96 96 142 35 175q0 92-35 174t-96 143-143 96-174 35q-94 0-175-35t-142-96-96-143-35-174q0-94 35-175t96-142 142-96 175-35z" />
<glyph unicode="&#xe01a;" glyph-name="uniE01A" horiz-adv-x="1022" d="M512 896q106 0 199-40t163-110 110-163 40-199-40-199-110-163-163-110-199-40-199 40-163 110-110 163-40 199 40 199 110 163 163 110 199 40zM510 0q80 0 150 30t122 82 82 122 30 150-30 150-82 122-122 82-150 30-150-30-122-82-82-122-30-150 30-150 82-122 122-82 150-30z" />
<glyph unicode="&#xe01b;" glyph-name="uniE01B" d="M1022 384l-512-508-508 508 508 510zM510-14l400 398-400 400-398-400z" />
<glyph unicode="&#xe01c;" glyph-name="uniE01C" d="M832 832q26 0 45-19t19-45v-768q0-28-19-46t-45-18h-768q-28 0-46 18t-18 46v768q0 26 18 45t46 19h768zM832 768h-768v-768h768v768zM416 352h-224v64h224v224h64v-224h224v-64h-224v-224h-64v224z" />
<glyph unicode="&#xe01d;" glyph-name="uniE01D" horiz-adv-x="1020" d="M1000 530q20 0 20-18v-8q0-78-20-133t-52-88-75-48-87-15q-32 0-63 5t-65 15-76 28-94 42q-72 34-131 62t-117 28q-52 0-83-36t-37-120q-4-18-20-18h-80q-20 0-20 20v2q0 144 69 216t171 72q32 0 63-5t64-16 72-29l91-42q76-38 138-63t120-25q52 0 79 40t31 116q0 18 18 18h84z" />
<glyph unicode="&#xe01e;" glyph-name="uniE01E" horiz-adv-x="686" d="M368 838q-20 0-33-16t-13-38v-358q0-18-14-18t-14 18v290q0 22-13 38t-33 16q-18 0-32-16t-14-38v-436q0-12-12-12-4 0-10 6-8 10-18 25t-20 29l-24 32q-16 18-36 18-22 0-38-18t-16-46q0-14 8-34 4-8 10-16 40-66 78-117t76-121 94-98 126-28q46 0 92 10t80 48q22 26 35 68t20 90 9 100 2 98q0 40-1 79t-1 79q0 20 1 42t1 46q0 50-8 89t-42 39q-18 0-31-16t-13-40v-242q0-18-16-18-14 0-14 18v356q0 22-14 38t-32 16q-20 0-32-16t-12-38v-334q0-18-16-18-14 0-14 18v372q0 22-13 38t-33 16zM368 868q32 0 54-26 10-14 18-32 20 20 48 20 32 0 54-26 20-22 20-58v-48q18 18 46 18t46-18q16-16 22-42 4-12 7-33t3-63v-246q0-46-1-103t-9-113q-10-68-25-99t-39-59q-30-40-90-58-28-8-54-9t-48-1q-40 0-72 6-18 4-35 10t-33 16q-66 32-106 108t-77 126-75 112q2 0-4 6-2 2-2 4-10 14-13 25t-3 29q0 36 22 64 24 28 60 28 22 0 34-7t28-23l30-44v384q0 36 20 58 22 26 54 26 24 0 46-16 0 36 20 58 22 26 54 26z" />
<glyph unicode="&#xe01f;" glyph-name="uniE01F" d="M978-62q-4-2-18-2h-896q-4 0-24 4l334 310-50 44q-124-112-189-172t-95-86l-40-36v640q0 10 2 12l506-422 514 426q2-4 2-16v-640q0-10-2-12l-328 304-52-42zM46 700q16 4 18 4h896q12 0 14-2l-466-386z" />
<glyph unicode="&#xe020;" glyph-name="uniE020" d="M960 704q28 0 46-18t18-46v-640q0-26-18-45t-46-19h-896q-26 0-45 19t-19 45v640q0 28 19 46t45 18h896zM132 640l380-308 380 308h-760zM960 608l-448-360-448 360v-560l262 262 48-48-262-262h802l-262 262 46 48 262-262v560z" />
<glyph unicode="&#xe021;" glyph-name="uniE021" d="M384 48v-96q0-16 16-16h608q16 0 16 16v96q0 16-16 16h-608q-16 0-16-16zM578 304v-96q0-16 16-16h414q16 0 16 16v96q0 16-16 16h-414q-16 0-16-16zM384 560v-96q0-16 16-16h608q16 0 16 16v96q0 16-16 16h-608q-16 0-16-16zM388 242l-300-300q-14-10-30 0l-52 52q-16 18 0 30l222 218q6 6 6 16t-6 14l-222 216q-16 16 2 30l50 52q16 14 30 0l300-298q14-16 0-30z" />
<glyph unicode="&#xe022;" glyph-name="uniE022" d="M52 896q12 0 12-10v-106q0-14-12-14h-40q-12 0-12 14v106q0 10 12 10h40zM1012 766q12 0 12-10v-104q0-12-12-12h-40q-12 0-12 12v104q0 10 12 10h40zM244 896q12 0 12-10v-42q0-12-12-12h-102q-12 0-12 12v42q0 10 12 10h102zM436 896q12 0 12-10v-42q0-12-12-12h-104q-12 0-12 12v42q0 10 12 10h104zM1012 576q12 0 12-10v-106q0-12-12-12h-40q-12 0-12 12v106q0 10 12 10h40zM1012 384q12 0 12-10v-106q0-14-12-14h-40q-12 0-12 14v106q0 10 12 10h40zM1012 192q12 0 12-10v-106q0-12-12-12h-40q-12 0-12 12v106q0 10 12 10h40zM1012-2q12 0 12-10v-104q0-12-12-12h-40q-12 0-12 12v104q0 10 12 10h40zM52 702q12 0 12-10v-104q0-12-12-12h-40q-12 0-12 12v104q0 10 12 10h40zM52 510q12 0 12-10v-104q0-12-12-12h-40q-12 0-12 12v104q0 10 12 10h40zM52 320q12 0 12-10v-106q0-12-12-12h-40q-12 0-12 12v106q0 10 12 10h40zM52 128q12 0 12-10v-106q0-14-12-14h-40q-12 0-12 14v106q0 10 12 10h40zM628 896q14 0 14-10v-42q0-12-14-12h-104q-12 0-12 12v42q0 10 12 10h104zM820 896q12 0 12-10v-42q0-12-12-12h-104q-12 0-12 12v42q0 10 12 10h104zM1012 896q12 0 12-10v-42q0-12-12-12h-102q-12 0-12 12v42q0 10 12 10h102zM116-64q14 0 14-10v-42q0-12-14-12h-104q-12 0-12 12v42q0 10 12 10h104zM308-64q12 0 12-10v-42q0-12-12-12h-102q-12 0-12 12v42q0 10 12 10h102zM500-64q12 0 12-10v-42q0-12-12-12h-102q-12 0-12 12v42q0 10 12 10h102zM692-64q12 0 12-10v-42q0-12-12-12h-104q-12 0-12 12v42q0 10 12 10h104zM884-64q14 0 14-10v-42q0-12-14-12h-104q-12 0-12 12v42q0 10 12 10h104z" />
<glyph unicode="&#xe023;" glyph-name="uniE023" d="M1016 368q16-12 0-24l-564-404q-8-6-15-2t-7 12v218q0 14-14 14h-402q-14 0-14 14v316q0 14 14 14h402q14 0 14 14v218q0 8 7 11t15-1zM76 272q0-14 14-14h402q14 0 14-14v-144q0-8 7-12t15 2l354 254q16 12 0 24l-354 252q-8 4-15 1t-7-11v-146q0-14-14-14h-402q-14 0-14-14v-164z" />
<glyph unicode="&#xe024;" glyph-name="uniE024" d="M1014 370q10-8 10-20t-10-20l-544-388q-12-10-25-3t-13 23v188q0 10-7 17t-17 7h-384q-10 0-17 8t-7 18v298q0 10 7 17t17 7h384q10 0 17 8t7 18v188q0 16 13 23t25-3l544-386z" />
<glyph unicode="&#xe025;" glyph-name="uniE025" horiz-adv-x="896" d="M578 58q22 24 46 0 10-10 10-22t-10-22l-130-122q-20-18-46-18t-44 18l-130 116q-10 10-10 23t10 23 23 10 23-10l118-106q10-12 22 0zM64 704q-26 0-45 19t-19 45q0 28 19 46t45 18h768q28 0 46-18t18-46q0-26-18-45t-46-19h-768zM64 192q-26 0-45 19t-19 45q0 28 19 46t45 18h768q28 0 46-18t18-46q0-26-18-45t-46-19h-768zM64 448q-26 0-45 19t-19 45q0 28 19 46t45 18h768q28 0 46-18t18-46q0-26-18-45t-46-19h-768z" />
<glyph unicode="&#xe026;" glyph-name="uniE026" horiz-adv-x="1026" d="M398 692q12 0 12-14v-178q0-14-12-14h-180q-14 0-14 14v178q0 14 14 14h180zM192 484q12 0 12-14v-178q0-14-12-14h-180q-12 0-12 14v178q0 14 12 14h180zM602 484q14 0 14-14v-178q0-14-14-14h-178q-14 0-14 14v178q0 14 14 14h178zM398 278q12 0 12-12v-180q0-12-12-12h-180q-14 0-14 12v180q0 12 14 12h180zM602 76q14 0 14-14v-180q0-12-14-12h-178q-14 0-14 12v180q0 14 14 14h178zM808 280q12 0 12-12v-180q0-12-12-12h-180q-12 0-12 12v180q0 12 12 12h180zM808 690q12 0 12-14v-178q0-14-12-14h-180q-12 0-12 14v178q0 14 12 14h180zM602 896q14 0 14-12v-180q0-12-14-12h-178q-14 0-14 12v180q0 12 14 12h178zM1014 484q12 0 12-14v-178q0-14-12-14h-180q-14 0-14 14v178q0 14 14 14h180z" />
<glyph unicode="&#xe027;" glyph-name="uniE027" d="M916 732q46 0 77-32t31-76v-494q0-46-31-74t-77-28h-808q-46 0-77 28t-31 74v494q0 44 31 76t77 32h808zM960 596q0 30-21 51t-51 21h-754q-30 0-50-21t-20-51v-440q0-30 20-47t50-17h754q30 0 51 17t21 47v440z" />
<glyph unicode="&#xe028;" glyph-name="uniE028" horiz-adv-x="768" d="M766 318q2-28-16-46t-46-16q-28-2-46 17t-18 47l2 294-526-526q-18-18-45-18t-45 18q-20 20-19 46t19 44l526 526-296-2q-26 0-45 19t-19 45q0 28 19 47t47 19h446q26 0 45-19t19-45z" />
<glyph unicode="&#xe029;" glyph-name="uniE029" horiz-adv-x="768" d="M512 896l256-256v-704q0-28-19-46t-47-18h-640q-28 0-45 18t-17 46v896q0 28 18 46t46 18h448zM704-64v640h-192q-28 0-46 18t-18 46v192h-384l-2-896h642z" />
<glyph unicode="&#xe02a;" glyph-name="uniE02A" horiz-adv-x="768" d="M386-64q-170 0-276 44-52 20-80 52-30 32-30 70v626q0 38 30 72 28 32 80 52 106 44 276 44 168 0 274-44 54-22 82-52 28-34 28-72v-626q0-36-28-70-28-30-82-52-106-44-274-44zM64 212v-110q0-16 22-33t60-33q46-16 108-25t132-9 132 9 108 25q38 16 60 33t22 33v110q-50-32-120-48-44-10-94-15t-108-5-108 5-94 15q-70 16-120 48zM64 420v-108q0-16 22-34t60-34q46-16 108-24t132-8 132 8 108 24q38 16 60 34t22 34v108q-52-32-135-50t-187-18q-58 0-108 6t-94 16q-38 10-67 21t-53 25zM64 628v-110q0-16 22-33t60-33q46-16 108-25t132-9 132 9 108 25q38 16 60 33t22 33v110q-24-16-53-27t-67-19q-92-22-202-22-58 0-108 6t-94 16q-38 8-67 19t-53 27zM386 828q-158 0-240-34t-82-66q0-16 22-34t60-32q46-16 108-25t132-9 132 9 108 25q38 14 60 32t22 34q0 32-82 66t-240 34z" />
<glyph unicode="&#xe02b;" glyph-name="uniE02B" horiz-adv-x="702" d="M640 896q26 0 45-19t19-45v-896q0-28-19-46t-45-18h-576q-28 0-46 18t-18 46v896q0 26 18 45t46 19h576zM320 768h-256v-832h256v832zM640 768h-256v-832h256v832z" />
<glyph unicode="&#xe02c;" glyph-name="uniE02C" horiz-adv-x="384" d="M320 896q26 0 45-19t19-45v-896q0-28-19-46t-45-18h-256q-28 0-46 18t-18 46v896q0 26 18 45t46 19h256zM320 832h-256v-896h256v896z" />
<glyph unicode="&#xe02d;" glyph-name="uniE02D" horiz-adv-x="896" d="M880 136q18-18 18-45t-18-45l-92-90q-18-20-44-20-28 0-46 20l-248 248v-122q0-34-24-58t-58-24q-22 0-41 11t-29 31l-4 8q-62 158-118 300-24 60-49 123t-48 122-43 109-32 86q-6 16 4 29t26 13q6 0 10-2 36-12 86-32t108-42 122-46 124-48q140-54 298-116l4-2h2q26-14 38-40t6-56q-8-28-30-46t-50-18h-122z" />
<glyph unicode="&#xe02e;" glyph-name="uniE02E" horiz-adv-x="896" d="M878 136q18-18 18-45t-18-45l-92-90q-18-20-44-20-28 0-46 20l-248 248v-122q0-34-24-58t-58-24q-22 0-41 11t-29 31l-4 8q-62 158-118 300-24 60-49 123t-48 122-43 109-32 86q-6 16 4 29t26 13q6 0 10-2 36-12 86-32t108-42 122-46 124-48q140-54 298-116l4-2h2q26-14 38-40t6-56q-8-28-30-46t-50-18h-122zM832 90l-248 250-110 108h276q12 0 18 16 4 16-10 22-2 0-37 14t-91 36-127 49-145 56-145 56-127 49q22-56 50-127t57-145 57-145 50-127 36-91 14-37h2q4-10 14-10 18 0 18 18v276l108-110 250-248z" />
<glyph unicode="&#xe02f;" glyph-name="uniE02F" d="M874 192q32-2 61-17t49-38 31-53 9-62q-2-34-17-62t-38-48-53-31-62-9q-34 2-62 17t-48 38-31 52-9 63q4 46 28 80t60 52l-30 114q-10-2-21-3t-23-1q-64 0-124 28l-128-168q22-22 34-50t12-62q0-66-47-113t-113-47-113 47-47 113 47 113 113 47q32 0 62-12l124 164q-58 42-92 108l-128-26q2-4 2-14 0-66-47-112t-113-46-113 46-47 112q0 68 47 115t113 47q46 0 83-24t57-62l122 26q-10 40-10 76 0 64 24 120t66 97 97 65 119 24 120-24 97-65 65-97 24-120q0-98-55-175t-145-111l30-112h20zM160 318q40 0 68 27t28 67-28 69-68 29-68-29-28-69 28-67 68-27zM352-64q40 0 68 28t28 68-28 68-68 28-68-28-28-68 28-68 68-28zM760 350q52 10 94 38t70 70h-104q-22-64-60-108zM796 520q6 32 6 70 0 16-1 31t-3 31h-158q-6-30-6-62 0-18 2-36t6-34h154zM836 652q2-16 3-31t1-31q0-38-6-70h118q10 36 10 70 0 36-8 62h-118zM928 712q-28 46-71 77t-99 41q44-46 64-118h106zM718 818q-42-42-62-106h126q-22 66-64 106zM678 830q-54-10-98-41t-72-77h106q26 76 64 118zM602 520q-6 32-6 70 0 32 6 62h-120q-4-16-6-31t-2-31q0-38 12-70h116zM514 458q28-42 69-70t93-38q-18 22-34 49t-26 59h-102zM718 364q20 16 35 41t27 53h-122q22-58 60-94zM960 26q4 40-23 69t-67 33-69-23-33-67 23-69 67-33q40-2 69 24t33 66z" />
<glyph unicode="&#xe030;" glyph-name="uniE030" horiz-adv-x="896" d="M336 832q20 0 34-14t14-34v-32q0-20-14-34t-34-14h-288q-20 0-34 14t-14 34v32q0 20 14 34t34 14h288zM336 640q20 0 34-14t14-34v-32q0-20-14-34t-34-14h-288q-20 0-34 14t-14 34v32q0 20 14 34t34 14h288zM336 448q20 0 34-14t14-34v-32q0-20-14-34t-34-14h-288q-20 0-34 14t-14 34v32q0 20 14 34t34 14h288zM848 832q20 0 34-14t14-34v-32q0-20-14-34t-34-14h-288q-20 0-34 14t-14 34v32q0 20 14 34t34 14h288zM848 640q20 0 34-14t14-34v-32q0-20-14-34t-34-14h-288q-20 0-34 14t-14 34v32q0 20 14 34t34 14h288zM848 448q20 0 34-14t14-34v-32q0-20-14-34t-34-14h-288q-20 0-34 14t-14 34v32q0 20 14 34t34 14h288zM848 256q20 0 34-14t14-34v-32q0-20-14-34t-34-14h-288q-20 0-34 14t-14 34v32q0 20 14 34t34 14h288zM192 256q80 0 136-56t56-136-56-136-136-56-136 56-56 136 56 136 136 56zM192-64q52 0 90 38t38 90-38 90-90 38-90-38-38-90 38-90 90-38z" />
<glyph unicode="&#xe031;" glyph-name="uniE031" horiz-adv-x="756" d="M690 22q40-18 3-42t-129-40-226-18-286 22q-38 6-47 16t0 21 31 22 47 18 48 8 33-5h-10q-4 0-10-1t-16-3q-8-2-23-6t-26-10-14-13 11-13q38-16 117-23t168-6 171 9 126 20q40 14 40 30 0 8-8 14zM244 104q-10-6-12-12-2-4 5-9t33-9q30-4 55-5t49 0 49 4 59 9l16-8q14-10 42-18-76-32-154-35t-129 10-62 35 49 38zM516 190q4-4 12-10 6-4 13-8t17-8q-90-26-179-29t-146 7-68 31 53 43q-12-10-14-18t5-13 33-9q64-6 124-4t150 18zM596 146q72 38 96 73t20 61-27 40-47 8q-6-2-10-2t-8-2l-4-2q2 2 4 6 6 6 12 8 46 16 81-3t40-54-30-74-131-65q2 0 2 2t2 4zM550 270q-48-12-107-19t-117-8-111 2-87 10-44 17 16 22q34 16 63 24t51 12q26 4 48 2-50-14-78-24-24-10-29-20t41-16q38-4 107-4t139 6q28 4 56 7t50 7l48 8-16-8q-8-4-15-9t-15-9zM608 686q-84-48-122-81t-46-59 6-50 34-52q22-30 14-57t-26-47q-22-22-56-42 16 14 24 32 8 16 8 35t-18 41q-32 36-41 67t-2 58 27 48 44 39q58 40 154 68zM378 334q-36 32-66 63t-48 61-21 57 15 55q26 40 70 72t83 67 62 79 7 108q26-34 26-74 0-36-25-85t-103-111q-62-50-75-89t-1-74 37-66 39-63zM602-90q52 10 83 20t47 20q18 10 24 20-4-34-52-54t-119-31-153-12-152 3q-46 4-74 8t-44 8q-20 6-26 10 44-6 100-10t118-4 126 5 122 17z" />
<glyph unicode="&#xe032;" glyph-name="uniE032" horiz-adv-x="960" d="M60 236h300v-300h-360v960h360v-420h-60v60h-240v-300zM60 596h240v180h-240v-180zM60 176v-180h240v180h-240zM960 896v-960h-360v360h60v-60h240v300h-300v360h360zM900 176h-240v-180h240v180zM900 776h-240v-180h240v180zM780 356h-420v-84l-180 144h420v80z" />
<glyph unicode="&#xe033;" glyph-name="uniE033" d="M510 640q54 0 101-20t82-55 55-81 20-100-20-101-55-82-82-55-101-20q-52 0-99 20t-82 55-55 82-20 101 20 100 55 81 82 55 99 20zM512 896q106 0 199-40t163-110 110-163 40-199-40-199-110-163-163-110-199-40-199 40-163 110-110 163-40 199 40 199 110 163 163 110 199 40zM510 0q80 0 150 30t122 82 82 122 30 150-30 150-82 122-122 82-150 30-150-30-122-82-82-122-30-150 30-150 82-122 122-82 150-30z" />
<glyph unicode="&#xe034;" glyph-name="uniE034" horiz-adv-x="1022" d="M1022 384l-512-508-508 508 508 510zM510-14l400 398-400 400-398-400zM478 352h-204v64h204v204h64v-204h204v-64h-204v-204h-64v204z" />
<glyph unicode="&#xe035;" glyph-name="uniE035" horiz-adv-x="1022" d="M1022 384l-512-508-508 508 508 510zM510-14l400 398-400 400-398-400zM464 384l-124 124 46 44 124-124 124 124 46-44-124-124 124-124-46-46-124 124-124-124-46 46z" />
<glyph unicode="&#xe036;" glyph-name="uniE036" d="M210 208q-14-16-30-16-20 0-32 14l-70 68q-14 18-14 34 0 20 14 34l30 30-18 44h-42q-22 0-34 14-14 14-14 34v96q0 22 14 34 12 14 34 14h42l18 44-30 30q-14 18-14 34 0 18 14 32l70 70q14 14 32 14 20 0 34-14l30-30 44 18v42q0 22 14 34 12 14 34 14h96q22 0 34-14 14-12 14-34v-42l44-18 30 30q14 14 34 14 16 0 34-14l68-70q14-12 14-32 0-14-10-30h-68l30 30-68 68-56-54-100 42v76h-96v-76l-100-42-56 54-68-68 54-56-42-100h-76v-96h76l42-100-54-56 68-68 30 32v-64zM976 352q22 0 34-14 14-12 14-34v-96q0-20-14-34-12-14-34-14h-42l-18-44 30-30q14-18 14-34t-14-34l-70-68q-12-14-32-14-22 0-34 14l-30 30-44-18v-42q0-20-14-34-12-14-34-14h-96q-22 0-34 14-14 14-14 34v42l-44 18-30-30q-12-14-34-14-20 0-34 14l-68 68q-14 14-14 34t14 34l30 30-18 44h-42q-22 0-34 14-14 14-14 34v96q0 22 14 34 12 14 34 14h42l18 44-30 30q-14 14-14 34t14 32l68 70q18 14 34 14 20 0 34-14l30-30 44 18v42q0 22 14 34 12 14 34 14h96q22 0 34-14 14-12 14-34v-42l44-18 30 30q14 14 34 14 18 0 32-14l70-70q14-14 14-32 0-16-14-34l-30-30 18-44h42zM976 304h-78l-42 100 56 56-68 68-56-54-100 42v76h-96v-76l-100-42-56 54-68-68 54-56-42-100h-76v-96h76l42-102-54-54 68-68 56 56 100-42v-78h96v78l100 42 56-56 68 68-56 54 42 102h78v96zM640 400q60 0 102-42t42-102-42-102-102-42-102 42-42 102 42 102 102 42zM640 160q40 0 68 28 28 32 28 68t-28 68q-32 28-68 28t-68-28q-28-32-28-68t28-68q28-28 68-28z" />
<glyph unicode="&#xe037;" glyph-name="uniE037" d="M160 576q-66 0-113 47t-47 113 47 113 113 47 113-47 47-113-47-113-113-47zM308 64h44v-64h-44v-108q0-20-22-20h-266q-20 0-20 20v266q0 22 20 22h266q22 0 22-22v-94zM448 128h64v-128h-128v64h64v64zM448 256h64v-64h-64v64zM448 384h64v-64h-64v64zM972 600q22 0 37-14t15-36v-308q0-22-15-36t-37-14h-306q-22 0-37 14t-15 36v206h-166v256h-90v64h154v-256h102v38q0 22 15 36t37 14h306zM922 498h-206v-204h206v204z" />
<glyph unicode="&#xe038;" glyph-name="uniE038" d="M512 896q106 0 199-40t163-110 110-163 40-199-40-199-110-163-163-110-199-40-200 40-163 110-109 163-40 199 40 199 109 163 163 110 200 40zM512-76q96 0 179 36t146 99 99 146 36 179-36 179-99 146-146 99-179 36-180-36-147-99-99-146-36-179 36-179 99-146 147-99 180-36zM512-34q-84 0-160 32t-134 87-92 132-34 167q0 74 29 149t83 135 132 97 176 37q86 0 163-33t133-89 89-133 33-163q0-88-33-164t-89-132-133-89-163-33zM512 754q-74 0-141-29t-118-78-81-117-30-146q0-70 27-136t77-118 117-84 149-32q76 0 143 29t117 79 79 118 29 144q0 70-26 137t-74 119-116 83-152 31zM512 640q-54 0-100-20t-81-55-55-81-20-100 20-100 55-81 81-55 100-20 100 20 81 55 55 81 20 100-20 100-55 81-81 55-100 20zM512 176q-42 0-80 16t-67 45-45 67-16 80 16 80 45 67 67 45 80 16 80-16 67-45 45-67 16-80-16-80-45-67-67-45-80-16zM632 368h-120v120q0 24-24 24-10 0-17-7t-7-17v-168h168q24 0 24 24t-24 24z" />
<glyph unicode="&#xe039;" glyph-name="uniE039" d="M512 640q-54 0-100-20t-81-55-55-81-20-100 20-100 55-81 81-55 100-20 100 20 81 55 55 81 20 100-20 100-55 81-81 55-100 20zM512 176q-42 0-80 16t-67 45-45 67-16 80 16 80 45 67 67 45 80 16 80-16 67-45 45-67 16-80-16-80-45-67-67-45-80-16zM632 368h-120v120q0 24-24 24-10 0-17-7t-7-17v-168h168q24 0 24 24t-24 24zM656-110q-18 0-22 16-2 2-2 8 0 18 16 24 34 12 66 28 28 12 55 29t45 35q8 8 18 8 8 0 16-8 8-6 8-18 0-10-6-16-22-22-52-40t-59-32-51-23-24-9-4-1-4-1zM656-110q-18 0-22 16-2 2-2 8 0 18 16 24 34 12 66 28 28 12 55 29t45 35q8 8 18 8 8 0 16-8 8-6 8-18 0-10-6-16-22-22-52-40t-59-32-51-23-24-9-4-1-4-1zM918 70q-4-4-12-4-10 0-14 4-12 6-12 20 0 4 4 12l12 18t25 45 26 57 17 54q4 22 26 22 22-4 22-24-4-30-18-65t-29-64-27-48-14-21q0-4-6-6zM1022 372q-4-16-22-16-10 0-17 7t-7 17q-2 36-6 72-4 30-10 62t-18 54q-2 4-2 10 0 14 14 22 4 2 10 2 16 0 22-12 12-26 20-61t12-68 5-56 1-25q0-6-2-8zM928 688q2-4 2-10 0-10-8-18-4-4-14-4-14 0-20 8l-51 51t-46 42-49 31q-14 4-14 20 0 6 2 10 6 16 24 16 4 0 5-1t3-1q24-12 50-31t48-40 38-39 22-24q8-8 8-10zM674 870q10-6 10-20-6-26-22-26-2 0-4 1t-4 1l-50 10q-22 4-49 8t-51 4q-10 0-20-1t-20-3q-24 0-28 20 0 24 20 28 10 4 22 4h26q26 0 55-3t52-8 38-9 17-4q4 0 5-1t3-1zM358 874q16 0 22-16 2-4 2-10 0-16-16-20l-19-9t-46-22-54-31-45-36q-6-8-16-8-12 0-18 8-8 6-8 18 0 10 6 16 20 20 51 40t59 35 50 24 24 9 3 1 5 1zM104 692q8 4 14 4 2 0 14-4 10-10 10-20 0-4-4-12l-11-18t-25-45-27-57-15-56q-4-20-22-20-14 2-20 9t-6 17q4 30 17 63t28 62 28 49 13 22zM2 394q2 14 22 18 10 0 17-7t7-17l1-21t5-51 11-62 19-54q2-4 2-12 0-14-12-20-4-2-12-2-14 0-22 12-14 26-22 61t-12 67-5 55-1 25q0 6 2 8zM88 100q0 12 8 20 6 4 16 4 12 0 18-8l8-8q8-10 23-27t33-35 38-35 38-25q14-8 14-22 0-6-2-10-8-14-22-14-6 0-10 2-26 12-54 36t-50 47-37 41-17 20q0 2-4 6v8zM340-96q-8 8-8 20 6 24 24 24 2 0 3-1t3-1l16-4t39-9 50-9 53-4q22 0 32 2 22 0 28-20 0-20-20-28-10-2-18-2h-18q-28 0-58 4t-56 9-43 10-19 5zM126 232q0 14 12 20 4 2 12 2 14 0 20-12l8-15t21-35 30-42 37-36q10-6 10-20 0-10-4-14-10-10-20-10-6 0-14 4-24 18-44 42t-34 46-23 39-9 19q-2 2-2 12zM112 504q12 12 22 12 24-4 24-24-2-4-8-35t-6-69q0-16 2-31t6-29q0-2 1-4t1-4q0-14-18-22-2 0-4-1t-4-1q-14 0-22 18-10 40-10 74 0 40 6 72t8 36q0 4 1 5t1 3zM280 732q4 2 10 2 8 0 18-10 4-4 4-14 0-12-8-18l-13-10t-31-27-36-38-28-43q-6-14-20-14-8 0-12 2-14 4-14 22 0 6 2 10 12 26 32 50t39 42 34 29 17 13q4 4 6 4zM562 804q16-6 16-24 0-10-7-17t-17-7h-34q-26 0-62-3t-64-17q-4-2-12-2-14 0-20 12-2 4-2 10 0 14 14 22 34 18 76 22t70 4h42zM824 668q4-8 4-12 0-8-6-14-6-10-18-10-10 0-16 6l-12 12t-31 26-43 29-48 21q-20 6-20 22 0 2 1 4t1 4q8 18 22 18 2 0 4-1t4-1q28-8 55-23t49-32 35-29 15-14q4-4 4-6zM926 400q-4-16-22-20-22 0-26 22-2 28-8 56-4 24-12 50t-22 48q-4 4-4 14 0 14 10 20 8 4 12 4 12 0 22-12 16-24 25-53t15-55 8-45 2-21v-8zM832 128q-4-4-14-4-8 0-12 4-10 4-10 20 0 10 4 14 16 22 32 46 12 22 25 46t17 50q4 20 24 20 24-4 24-24-6-30-19-60t-27-53-25-37-13-16q0-4-6-6zM592-26q-18 0-22 16 0 2-1 4t-1 4q0 16 18 22 28 8 54 18 22 10 47 22t43 30q6 6 16 6 12 0 18-8 8-12 8-18 0-8-8-16-36-34-84-52t-70-24q-2 0-3-1t-3-1q-4 0-6-1t-6-1zM322 14q-8 8-8 18 0 6 2 10 6 16 22 16 2 0 4-1t4-1l14-6t34-13 45-13 49-6h14q26 0 26-22t-22-26h-16q-28 0-56 6t-51 13-38 14-17 7q-4 4-6 4z" />
<glyph unicode="&#xe03a;" glyph-name="uniE03A" d="M492 892q20 10 40 0l470-158q22-6 22-30v-640q0-22-22-30l-470-158q-20-10-40 0l-470 158q-22 8-22 30v640q0 22 22 30zM144 708l368-126 368 126-368 126zM480-54v580l-416 140v-578zM960 88v578l-416-140v-580z" />
<glyph unicode="&#xe03b;" glyph-name="uniE03B" d="M290 656q24 26 64 26h46v-48h-36q-34 0-34-42v-120q0-58-54-76 54-24 54-78v-122q0-40 34-40h36v-50h-46q-40 0-64 28-20 22-20 64v116q0 28-12 40-10 12-46 16v50q32 2 46 16 12 12 12 40v114q0 44 20 66zM734 134q-24-28-64-28h-46v50h36q34 0 34 40v122q0 54 54 78-54 18-54 76v120q0 42-34 42h-36v48h46q40 0 64-26 20-22 20-66v-114q0-28 12-40 12-14 46-16v-50q-36-4-46-16-12-12-12-40v-116q0-42-20-64zM982 722q42-16 42-60v-556q0-44-42-60l-448-170q-22-10-44 0l-448 170q-42 16-42 60v556q0 44 42 60l448 170q22 10 44 0zM960 662l-448 170-448-170v-556l448-170 448 170v556z" />
<glyph unicode="&#xe03c;" glyph-name="uniE03C" horiz-adv-x="804" d="M400 616q-58 0-98 41t-40 99 40 99 98 41 100-41 42-99-42-99-100-41zM400 848q-36 0-64-27t-28-65 28-66 64-28q40 0 67 28t27 66-27 65-67 27zM680 752q18 12 41 12t42-10 31-31 10-47q-4-28-30-48l-200-152q-14-14-14-30v-500q0-30-21-52t-55-22q-30 0-52 22t-22 52v246h-16v-246q0-30-22-52t-52-22q-34 0-55 22t-21 52v500q0 14-28 40t-64 54-72 52-50 36q-30 20-30 51t17 55 47 33 60-15l214-160h128l70 50zM338 540q-4 0-12 4t-32 20-71 51-131 97q-12 10-24 9t-19-10-5-21 16-22l200-150q34-28 34-72v-500q0-22 26-22 10 0 17 6t7 16v256q0 40 40 40h36q40 0 40-40v-256q0-10 7-16t17-6q26 0 26 22v500q0 44 34 72l200 150q12 8 14 19t-4 18-17 10-25-3l-188-142-35-25t-15-5h-136z" />
<glyph unicode="&#xe03d;" glyph-name="uniE03D" d="M1002 678q22-6 22-28v-596q0-22-22-28l-480-152q-10-4-20 0l-480 152q-22 6-22 28v596q0 20 22 28l170 54v30q6 40 41 49t71 9q32 0 54-5t42-21v44q10 38 42 48t70 10q40 0 71-10t41-48v-44q2 6 33 11t68 4 69-11 38-36v-30zM960 346l-416-136v-266l416 132v270zM480 204l-416 136v-264l416-132v260zM480 484l-416 132v-208l416-138v214zM960 616l-416-132v-208l416 138v202zM656 670q22-14 63-14t67 14v42q-32-8-66-9t-64 9v-42zM240 670q8-6 27-9t40-3 38 3 23 9v42q-68-16-128 0v-42zM448 746q24 8 64 8 4 0 16-1t22-3q12-2 26-4v42q-68-20-128 0v-42zM400 634q-26-20-45-22t-69-4l132-42q-6 6-10 11t-5 11-2 16-1 30zM624 600q0-10-5-20t-17-14l134 42q-28-4-61 3t-51 23v-34zM512 848q-12 0-22-2t-18-4-18-4q40-10 60-10t54 10q-8 4-21 7t-35 3zM778 762q-22 10-56 10t-58-10q10-6 29-7t38-1 33 2 14 6zM304 770q-22 0-36-2t-22-6q8-4 25-6t36-2 35 2 20 6q-8 4-22 6t-36 2zM570 696q-8 4-22 7t-36 3-36-3-22-7q24-8 59-8t57 8zM144 654l64-22q-6 8-11 16t-5 20zM832 668q4-10-6-22-6-8-12-14l66 22zM538 544q-26-4-52 0l26-8zM446 608q22-14 63-14t67 14v42q-32-8-66-9t-64 9v-42z" />
<glyph unicode="&#xe03e;" glyph-name="uniE03E" d="M64 702q-28 0-46 18t-18 46 18 46 46 18h528q18 30 48 48t66 18h124q36 0 66-18t48-48h16q28 0 46-18t18-46-18-46-46-18h-16q-18-30-48-48t-66-18h-124q-36 0-66 18t-48 48h-528zM958 782q4-16 0-32h2q16 0 16 16t-16 16h-2zM706 848q-34 0-58-24t-24-58 24-58 58-24h124q34 0 58 24t24 58-24 58-58 24h-124zM64 782q-16 0-16-16t16-16h514q-4 16 0 32h-514zM960 480q28 0 46-18t18-46-18-46-46-18h-464q-18-30-48-48t-66-18h-124q-36 0-66 18t-48 48h-80q-28 0-46 18t-18 46 18 46 46 18h80q18 30 48 48t66 18h124q36 0 66-18t48-48h464zM130 400q-4 16 0 32h-66q-16 0-16-16t16-16h66zM382 334q34 0 58 24t24 58-24 58-58 24h-124q-34 0-58-24t-24-58 24-58 58-24h124zM960 400q16 0 16 16t-16 16h-450q4-16 0-32h450zM960 130q28 0 46-18t18-46-18-46-46-18h-208q-18-30-48-48t-66-18h-124q-36 0-66 18t-48 48h-336q-28 0-46 18t-18 46 18 46 46 18h336q18 30 48 48t66 18h124q36 0 66-18t48-48h208zM386 50q-4 16 0 32h-322q-16 0-16-16t16-16h322zM638-16q34 0 58 24t24 58-24 58-58 24h-124q-34 0-58-24t-24-58 24-58 58-24h124zM960 50q16 0 16 16t-16 16h-194q4-16 0-32h194z" />
<glyph unicode="&#xe03f;" glyph-name="uniE03F" d="M982 722q42-16 42-60v-556q0-44-42-60l-448-170q-22-10-44 0l-448 170q-42 16-42 60v556q0 44 42 60l448 170q22 10 44 0zM960 106v556l-448 170-448-170v-556l448-170zM256 584q0 24 16 40t38 16h404q22 0 38-16t16-40v-400q0-24-16-40t-38-16h-404q-22 0-38 16t-16 40v400zM720 584q0 8-6 8h-404q-6 0-6-8v-400q0-8 6-8h404q6 0 6 8v400zM452 262l-108 108q-6 6-6 14t6 12l108 110q6 6 14 6 6 0 12-6t6-12q0-8-6-14l-90-90q-6-6 0-12l90-90q12-12 1-24t-27-2zM572 262q-16-10-27 2t1 24l90 90q6 6 0 12l-90 90q-6 6-6 14 0 6 6 12t12 6q8 0 14-6l108-110q6-4 6-12t-6-14z" />
<glyph unicode="&#xe040;" glyph-name="uniE040" d="M896 0h-334l334 334v-334zM832 64v116l-116-116h116zM0-128l1024 1024v-1024h-1024zM960-64v806l-154-154 90-90-46-46-90 90-44-44 90-90-46-46-90 90-44-46 88-90-44-44-90 90-46-46 90-90-44-44-90 88-46-44 90-90-46-46-90 90-44-44 90-90-46-46-90 90-154-154h806z" />
<glyph unicode="&#xe041;" glyph-name="uniE041" d="M304 300q-10-10-24-10-12 0-20 8-48 42-75 99t-27 121q0 66 29 125t83 103q10 8 23 6t21-12q10-10 8-23t-12-23q-42-32-65-78t-23-98q0-104 80-172 22-22 2-46zM222 186q10-10 12-23t-8-23q-10-12-24-12-8 0-20 8-88 70-135 167t-47 205q0 114 50 213t142 169q10 8 23 6t23-12q8-10 6-23t-12-23q-82-60-125-146t-43-184q0-94 41-178t117-144zM764 728q48-42 75-99t27-121q0-140-112-228-10-10-23-8t-21 12q-10 10-8 23t12 23q88 70 88 178 0 48-20 93t-60 79q-10 8-11 21t9 23q8 12 24 12 8 0 20-8zM842 888q88-70 135-167t47-205q0-112-50-211t-142-169q-10-10-23-7t-23 13q-8 10-6 23t12 21q82 62 125 148t43 182q0 94-41 178t-117 144q-10 10-12 23t8 23q8 12 24 12 12 0 20-8zM736-86q6-22-12-36-10-6-18-6-12 0-18 6l-176 148-174-148q-6-6-18-6-10 0-18 6-18 14-12 36l156 490q-6 4-11 8t-11 8q-38 38-38 91t38 91 91 38 91-38 38-91-38-91q-6-4-12-9t-14-9zM516 576q-28 0-46-19t-18-47q0-26 18-45t46-19 46 19 18 45q0 28-18 47t-46 19zM464 68l-48 40-36-112zM512 108l78 64-68 212h-18l-68-212zM646-4l-36 112-48-40z" />
<glyph unicode="&#xe042;" glyph-name="uniE042" horiz-adv-x="896" d="M844 832q22 0 37-14t15-36v-796q0-22-15-36t-37-14h-666q-22 0-36 14t-14 36v624l-120 144q-18 28-2 52 12 26 44 26h794zM832 768h-760l112-128h200v-64h-192v-64h192v-64h-192v-64h192v-64h-192v-64h192v-64h-192v-64h192v-64h-192v-64h640v768z" />
<glyph unicode="&#xe043;" glyph-name="uniE043" horiz-adv-x="898" d="M888 824q10-10 10-23t-10-23l-276-274q4-12 2-16l-36-244q-6-34-37-44t-55 14l-82 82-348-350q-10-10-23-10t-23 10-10 23 10 23l350 348-82 82q-24 22-14 54t44 36l244 38q10 0 11-1t5-1l274 276q10 10 23 10t23-10z" />
<glyph unicode="&#xe044;" glyph-name="uniE044" horiz-adv-x="896" d="M328 312q22 22 46 0 22-22 0-44l-320-322q-10-10-23-10t-23 10-10 23 10 23zM566 458q-8-8-22-9t-24 9-10 23 10 23l264 264h-242q-14 0-23 10t-9 22q0 32 32 32h320q14 0 24-9t10-23v-320q0-12-10-22t-24-10q-12 0-21 10t-9 22v244z" />
<glyph unicode="&#xe045;" glyph-name="uniE045" horiz-adv-x="896" d="M658 642l-138 136q-16 16-8 34t30 20h320q14 0 24-9t10-23v-320q0-22-20-28t-36 6l-138 138-648-650q-10-10-23-10t-23 10-10 23 10 23zM832 768h-212l212-210v210z" />
<glyph unicode="&#xe046;" glyph-name="uniE046" horiz-adv-x="896" d="M864 832q32 0 32-32v-320q0-32-32-32t-32 32v244l-386-388q2-8 3-15t-1-17l-46-266q-6-50-56-56-102-18-157-27t-82-13-32-5-7-1q-30 0-51 24t-17 56l46 266q6 48 56 58l266 44q8 0 16 1t16-3l386 386h-242q-32 0-32 32t32 32h320zM384 316q0 4-6 4l-266-44q-4 0-4-4l-44-266q0-6 4-6l268 44q4 0 4 4z" />
<glyph unicode="&#xe047;" glyph-name="uniE047" horiz-adv-x="896" d="M864 832q32 0 32-32v-320q0-32-32-32t-32 32v244l-386-388q2-8 3-15t-1-17l-46-266q-6-50-56-56-102-18-157-27t-82-13-32-5-7-1q-30 0-51 24t-17 56l46 266q6 48 56 58l266 44q8 0 16 1t16-3l386 386h-242q-32 0-32 32t32 32h320z" />
<glyph unicode="&#xe048;" glyph-name="uniE048" horiz-adv-x="896" d="M784 768h-242q-32 0-32 32t32 32h320q14 0 24-9t10-23v-320q0-14-10-23t-24-9q-12 0-21 9t-9 23v244l-778-778q-10-10-23-10t-23 10-10 22 10 22z" />
<glyph unicode="&#xe049;" glyph-name="uniE049" horiz-adv-x="896" d="M760 406q8-10 8-23t-8-21l-192-192q-10-10-23-10t-23 10-9 23 9 21l158 158q12 12 0 22l-156 160q-10 10-10 22t10 22q22 22 46 0zM374 214q8-8 9-21t-9-23-23-10-23 10l-190 192q-10 8-10 21t10 23l190 192q10 10 22 10t22-10 10-22-10-22l-156-160q-12-10 0-22zM832 832q28 0 46-18t18-46v-768q0-28-18-46t-46-18h-768q-28 0-46 18t-18 46v768q0 28 18 46t46 18h768zM832 768h-768v-768h768v768z" />
<glyph unicode="&#xe04a;" glyph-name="uniE04A" horiz-adv-x="896" d="M288 304q18-16 0-34-6-6-16-6t-16 6l-116 116q-12 10-12 30t12 30l114 116q16 14 34 0 18-18 0-34l-110-112zM576 736q28 0 46-18t18-46v-512q0-28-18-46t-46-18h-512q-28 0-46 18t-18 46v512q0 28 18 46t46 18h512zM576 672h-512v-512h512v512zM500 446q12-10 12-30t-12-30l-114-116q-18-14-34 0-18 18 0 34l110 112-110 112q-18 16 0 34 16 16 32 0zM1010 444q14-22 14-66 0-52-29-86t-81-44q-16-2-30-3t-30-1h-60v-148h-90v416h150q44 0 89-12t67-56zM918 330q16 16 16 46 0 28-16 44-20 16-62 16h-62v-122h62q42 0 62 16z" />
<glyph unicode="&#xe04b;" glyph-name="uniE04B" horiz-adv-x="898" d="M288 306q18-18 0-34-4-8-16-9t-18 9l-114 114q-12 12-12 30 0 16 12 32l114 114q16 18 34 0 6-6 6-16t-6-18l-112-112zM574 736q28 0 47-18t19-46v-510q0-28-19-47t-47-19h-510q-28 0-46 19t-18 47v510q0 28 18 46t46 18h510zM576 672h-512v-512h512v512zM498 448q14-14 14-30 0-18-14-32l-114-114q-16-18-34 0-16 16 0 34l112 112-112 110q-18 16 0 34 8 8 18 7t16-7zM794 436v-102h130v-72h-130v-166h-90v416h274v-76h-184z" />
<glyph unicode="&#xe04c;" glyph-name="uniE04C" horiz-adv-x="896" d="M618 620l60 62q-50 40-111 63t-127 23q-92 0-169-41t-128-107-70-151 3-175q4-14-3-25t-19-15q-20 0-31 15t-16 36-6 45-1 42q0 90 35 170t95 140 140 95 170 35q162 0 284-104l64 66 64-234zM884 478q12-52 12-102 0-90-35-170t-95-140-140-95-170-35q-162 0-284 104l-64-66-64 234 234-60-60-62q50-40 111-63t127-23q78 0 146 30t119 81 81 119 30 146q0 42-10 88-4 12 3 23t21 15q32 6 38-24zM536 250q-26-18-58-24v-68h-64v68q-30 6-54 24l-50-48-44 44 48 50q-18 24-24 56h-68v64h68q4 30 24 56l-48 48 44 46 50-48q24 14 54 24v68h64v-68q32-10 58-24l48 48 46-46-48-48q10-16 15-28t9-28h68v-64h-68q-10-36-24-56l48-50-46-44zM448 286q40-2 68 29t28 69q0 40-30 67t-66 27q-40 0-68-27t-28-67 28-69 68-29z" />
<glyph unicode="&#xe04d;" glyph-name="uniE04D" horiz-adv-x="896" d="M86 678q0 66 40 109t110 45h146v-64h-146q-86 2-86-90v-182q0-50-24-80-18-20-62-30 36-6 60-32 26-28 26-80v-182q0-40 22-65t64-27h146v-64h-146q-68 0-108 44t-42 112v182q0 30-17 38t-69 12v120q50 4 67 12t19 40v182zM896 326q-52-4-69-12t-19-40v-182q0-64-40-109t-110-47h-148v64h148q40 0 62 25t24 67v182q0 50 24 80 20 22 64 32-40 6-62 30-26 28-26 80v182q0 40-22 64t-64 26h-148v64h148q68 0 108-42t42-112v-182q0-30 18-39t70-11v-120z" />
<glyph unicode="&#xe04e;" glyph-name="uniE04E" horiz-adv-x="896" d="M970 884q10 10 22 10t22-10 10-22-10-22l-520-522h178q32 0 32-32t-32-32h-254q-14 0-24 10-8 8-8 22v256q-2 14 8 23t24 9q12 0 22-10t10-22v-178zM992 702q12 0 22-9t10-23v-566q0-20-12-36t-30-24l-448-170q-22-6-46 0l-446 170q-42 16-42 60v556q0 44 42 60l448 170q22 6 44 0l182-70q28-10 35-22t3-26q-6-14-20-18t-42 6l-180 70-448-170v-556l448-170 448 170v566q0 28 32 32z" />
<glyph unicode="&#xe04f;" glyph-name="uniE04F" d="M864 128q32 0 32-32v-128q0-32-32-32h-256q-32 0-32 32v32h-128q-28 0-46 18t-18 46v640h-64v-32q0-32-32-32h-256q-32 0-32 32v128q0 32 32 32h256q32 0 32-32v-34h64q28 0 46-18t18-44v-640h128v32q0 32 32 32h256zM832 64h-192v-64h192v64z" />
<glyph unicode="&#xe050;" glyph-name="uniE050" horiz-adv-x="978" d="M630-64h-576q-22 0-38 16t-16 38v250q0 10 10 14 12 4 18-6 30-46 84-46 46 0 78 38 30 38 20 88-6 28-27 50t-49 28q-32 6-61-5t-45-39q-6-10-18-6-10 4-10 14v216q0 22 16 38t38 16h174q-18 36-16 70t19 61 47 44 70 17q34 0 62-19t44-48 18-62-16-63h174q22 0 38-16t16-38v-196q48 38 110 26 38-10 64-37t36-65q12-64-28-112-38-50-100-50-46 0-82 30v-192q0-22-16-38t-38-16z" />
<glyph unicode="&#xe051;" glyph-name="uniE051" horiz-adv-x="896" d="M714 76q-54 2-95 30t-73 71-57 97-49 108q-20 48-41 92t-44 78-50 55-59 21h-212q-14 0-24 9t-10 23 10 24 24 10h212q50 0 88-25t68-66 54-92 46-103q20-48 42-95t48-85 56-62 70-26h180l-112 80q-28 18-8 46 8 10 22 13t26-7l176-122q22-16 22-42 0-28-22-44l-176-122q-12-8-26-6t-22 14q-10 10-7 24t15 22l114 80h-186zM716 628q-54-4-93-50t-73-110q-8 20-16 39t-18 37q34 62 81 104t115 46h188l-114 78q-12 8-15 22t7 24q8 12 22 14t26-6l176-122q22-16 22-44 0-26-22-42l-176-122q-10-8-25-6t-23 12q-20 28 8 46l114 80h-184zM246 140q52 0 88 46t68 114q8-20 17-39t19-37q-34-64-80-107t-112-43h-212q-14 0-24 10t-10 24 10 23 24 9h212z" />
<glyph unicode="&#xe052;" glyph-name="uniE052" horiz-adv-x="896" d="M448 460q18 0 31-13t13-31-13-31-31-13-31 13-13 31 13 31 31 13zM276 460q18 0 31-13t13-31-13-31-31-13-31 13-13 31 13 31 31 13zM620 460q18 0 31-13t13-31-13-31-31-13-31 13-13 31 13 31 31 13zM236 258q10-10 10-23t-10-23-23-10-23 10l-180 182q-10 10-10 22t10 22l180 182q10 8 22 9t22-9q24-24 0-46l-156-158zM662 574q-24 22 0 46 10 10 22 9t22-9l180-182q10-10 10-22t-10-22l-180-182q-10-10-23-10t-23 10-10 23 10 23l158 158z" />
<glyph unicode="&#xe053;" glyph-name="uniE053" d="M248 606q16-4 30-16t14-38q0-28-21-42t-55-14h-88v210h84q14 0 28-2t24-8q20-10 24-42 2-16-10-32t-30-16zM174 620h34q16 0 25 4t9 20q0 26-34 26h-34v-50zM210 530q12 0 25 5t13 23q0 28-40 28h-34v-56h36zM418 710q46 0 73-31t27-79q0-42-26-75t-74-33q-42 0-70 31t-28 77q0 42 25 75t73 35zM418 528q28 0 41 22t13 50-12 50-42 22q-28 0-40-22t-12-50q0-22 12-47t40-25zM704 706h64v-210h-46v144l-6-26-38-118h-40q-12 38-19 59t-10 31-4 13-1 5q-2 2-2 4t-2 6l-4 12q0 4-1 8t-1 8v-146h-42v210h60l48-156zM832 832q26 0 45-18t19-44v-770q0-26-19-45t-45-19h-770q-26 0-44 19t-18 45v770q0 26 18 44t44 18h770zM192 64h-128v-64h128v64zM192 192h-128v-64h128v64zM192 320h-128v-64h128v64zM832 768h-768v-384h768v384zM832 192h-576v-64h576v64zM832 320h-576v-64h576v64zM832 0v64h-576v-64h576z" />
<glyph unicode="&#xe054;" glyph-name="uniE054" horiz-adv-x="896" d="M64-64h384v-64h-382q-28 0-46 18-20 18-20 46v704l256 256h448q26 0 44-18t20-46v-290h-64v290h-384v-192q0-26-18-44t-46-20h-192v-640zM450 446q-24-24-32-39t-8-31q0-28 22-50h-2l118-116v-98l-166 164q-40 40-40 100 0 30 13 58t34 51 50 37 61 14q56 0 102-40l176-178q42-42 42-100 0-40-25-74t-61-64l-46 46q42 42 53 59t11 33q0 28-22 54v-2l-178 176q-22 22-50 22-30 0-52-22zM994 122h-2q42-40 42-100 0-38-16-65t-44-53h2q-42-42-100-42-60 0-102 42l-152 150q-38 38-38 100 0 30 14 59t56 69l44-44-38-48q-10-20-6-45t20-43v2l150-152h-2q26-22 54-22 34 0 62 29t28 63q0 28-22 54v-2l-84 84v100z" />
<glyph unicode="&#xe055;" glyph-name="uniE055" d="M960 512q28 0 46-18t18-46v-128q0-28-18-46t-46-18h-128q-28 0-46 18t-18 46v32h-132q-12-62-62-112l114-116q12 4 16 4h128q28 0 46-18t18-46v-128q0-28-18-46t-46-18h-128q-28 0-46 18t-18 46v128q0 4 4 16l-122 120q-40-26-92-41t-110-15q-66 0-124 19t-102 52-69 76-25 93 25 93 69 76 102 52 124 19q58 0 110-15t92-41l122 120q-4 12-4 16v128q0 28 18 46t46 18h128q28 0 46-18t18-46v-128q0-28-18-46t-46-18h-128q-4 0-16 4l-114-116q50-50 62-112h132v32q0 28 18 46t46 18h128zM704 832v-128h128v128h-128zM832 64h-128v-128h128v128zM64 384q0-36 21-68t56-56 81-38 98-14 98 14 81 38 56 56 21 68-21 68-56 56-81 38-98 14-98-14-81-38-56-56-21-68zM960 320v128h-128v-128h128z" />
<glyph unicode="&#xe056;" glyph-name="uniE056" d="M960 512q26 0 45-18t19-46v-128q0-28-19-46t-45-18h-130q-26 0-44 18t-18 46v32h-128l-2-160q0-6-4-14l54-54q8 4 14 4h130q26 0 45-18t19-46v-128q0-28-19-46t-45-18h-130q-26 0-44 18t-18 46v128q0 10 2 16l-68 68-238-82q-6-2-16-2-12 0-18 2l-282 96q-20 6-20 30v384q0 24 20 30l282 96q16 2 34 0l238-82 68 68q-2 6-2 16v128q0 28 18 46t44 18h130q26 0 45-18t19-46v-128q0-28-19-46t-45-18h-130q-6 0-14 4l-54-54q2-4 4-7t2-7v-160h128v32q0 28 18 46t44 18h130zM702 832l2-128h128v128h-130zM288 460l-226 76v-322l226-76v322zM502 578l-182 62-184-62 184-62zM832 64h-130l2-128h128v128zM576 536l-226-76v-322l226 76v322zM960 320v128h-130l2-128h128z" />
<glyph unicode="&#xe057;" glyph-name="uniE057" d="M960 510q26 0 45-18t19-46v-128q0-26-19-45t-45-19h-128q-28 0-46 19t-18 45v32h-194v-112l114-114q8 4 16 4h128q26 0 45-19t19-45v-128q0-28-19-46t-45-18h-128q-28 0-46 18t-18 46v128q0 4 1 7t1 7l-68 70v-84q0-28-18-46-22-18-46-18h-448q-26 0-44 18t-18 46v574q0 24 18 46 18 18 44 18h38q18 52 74 62 14 26 46 48 30 18 70 18 32 0 62-18 26-18 46-48 52-8 74-62h38q24 0 46-18 18-22 18-46v-20l68 70q0 4-1 8t-1 8v128q0 28 18 46t46 18h128q26 0 45-18t19-46v-128q0-28-19-46t-45-18h-128q-8 0-16 4l-114-116v-114h194v32q0 28 18 46t46 18h128zM704 832v-128h128v128h-128zM166 692q-8-8-8-22 0-32 32-32h192q32 0 32 32 0 12-10 22t-22 10h-32q0 24-18 46-18 18-46 18t-46-18q-18-22-18-46h-32q-14 0-24-10zM510 638h-38q-4-10-9-20t-11-20q-18-24-52-24h-228q-34 0-52 24-14 20-20 40h-38v-574h448v574zM832 64h-128v-128h128v128zM960 318v128h-128v-128h128zM426 494l44-42-218-262-130 130 42 46 88-88z" />
<glyph unicode="&#xe058;" glyph-name="uniE058" d="M960 512q26 0 45-18t19-44v-130q0-26-19-45t-45-19h-130q-26 0-44 19t-18 45v32h-128v-200q0-2-1-2t-1-2l32-30q16 10 32 10h130q26 0 45-18t19-44v-130q0-26-19-45t-45-19h-130q-26 0-44 19t-18 45v122l-46 44q-2 0-3-1t-3-1h-538q-14 0-26 6-10 6-16 16-8 10-8 30v466q0 14 6 26 2 6 14 18 16 8 30 8h302l48-52h170l72 72q-2 4-2 14v130q0 26 18 44t44 18h130q26 0 45-18t19-44v-130q0-26-19-45t-45-19h-130q-6 0-14 4l-54-54 4-12t2-12v-150h128v34q0 26 18 44t44 18h130zM702 64l2-128h128v128h-130zM702 832l2-128h128v128h-130zM574 164l2 390h-204l-20 20-28 32h-260v-442h510zM960 320v128h-130l2-128h128z" />
<glyph unicode="&#xe059;" glyph-name="uniE059" d="M960 512h-128q-28 0-46-18t-18-46v-32h-56l-34 98 32 94 42 36q12-4 16-4h128q28 0 46 18t18 46v128q0 28-18 46t-46 18h-128q-28 0-46-18t-18-46v-128q0-4 4-16l-28-22-270 90q-2 2-10 2-10 0-18-6t-12-16l-12-36-12 36q-4 10-12 16t-18 6q-8 0-10-2l-284-96q-12-4-18-16t-2-24l36-106-36-104q-4-14 2-26t18-16l16-4v-236q0-22 22-30l282-96q6-2 16-2 12 0 16 2l282 96q4 0 5 2t5 4l42-24q-4-12-4-16v-128q0-28 18-46t46-18h128q28 0 46 18t18 46v128q0 28-18 46t-46 18h-128q-4 0-16-4l-74 44v184h90v-32q0-28 18-46t46-18h128q28 0 46 18t18 46v128q0 28-18 46t-46 18zM896 832v-128h-128v128h128zM768 64h128v-128h-128v128zM420 686l224-76-20-56-222 76zM296 686l18-56-222-76-20 56zM92 474l222-74-18-56-194 66-30 8zM326 74l-224 76v192l204-70h10q4 0 5 1t5 1v-200zM358 452l-20 8-164 54 184 62 28-8 156-54-122-40zM390 74v200q4 0 5-1t5-1h10l206 70v-192zM616 410l-196-66-18 56 214 72v-62zM832 320v128h128v-128h-128z" />
<glyph unicode="&#xe05a;" glyph-name="uniE05A" horiz-adv-x="896" d="M672 832q46 0 87-18t71-48 48-71 18-87-18-87-48-71-71-48-87-18q-74 0-134 44l-484-482q-8-10-22-10-12 0-22 10t-10 22q0 14 10 22l482 484q-44 60-44 134 0 46 18 87t48 71 71 48 87 18zM828 640q-10 46-44 80t-80 44v-124h124zM640 764q-46-10-80-44t-44-80h124v124zM640 576h-124q10-46 44-80t80-44v124zM704 452q46 10 80 44t44 80h-124v-124z" />
<glyph unicode="&#xe05b;" glyph-name="uniE05B" d="M512 640q-92 0-174-25t-143-69-96-102-35-124 35-124 96-102 143-69 174-25 174 25 143 69 96 102 35 124-35 124-96 102-143 69-174 25zM512 704q106 0 199-30t163-82 110-122 40-150-40-150-110-122-163-82-199-30-199 30-163 82-110 122-40 150 40 150 110 122 163 82 199 30z" />
<glyph unicode="&#xe05c;" glyph-name="uniE05C" d="M512 704q106 0 199-30t163-82 110-122 40-150-40-150-110-122-163-82-199-30-199 30-163 82-110 122-40 150 40 150 110 122 163 82 199 30zM512 640q-138 0-248-53t-162-139h820q-52 86-162 139t-248 53zM512 0q92 0 174 25t143 69 96 102 35 124q0 30-10 64h-876q-10-34-10-64 0-66 35-124t96-102 143-69 174-25zM320 256q28 0 46-18t18-46-18-46-46-18-46 18-18 46 18 46 46 18zM512 256q28 0 46-18t18-46-18-46-46-18-46 18-18 46 18 46 46 18zM704 256q28 0 46-18t18-46-18-46-46-18-46 18-18 46 18 46 46 18z" />
<glyph unicode="&#xe05d;" glyph-name="uniE05D" horiz-adv-x="896" d="M842 822q10 10 22 10t22-10 10-22-10-22l-832-832q-10-10-22-10t-22 10-10 22 10 22z" />
<glyph unicode="&#xe05e;" glyph-name="uniE05E" horiz-adv-x="898" d="M886 822q-10 10-22 10t-22-10l-92-90q-10-10-10-23t10-23 23-10 23 10l90 92q10 10 10 22t-10 22zM656 638l-90-92q-10-10-10-22t10-22 22-10 22 10l92 90q22 22 0 46-24 22-46 0zM470 452l-90-90q-22-24 0-46t46 0l90 90q22 24 0 46t-46 0zM286 266l-92-90q-10-10-10-23t10-23 23-10 23 10l90 92q10 10 10 22t-10 22-22 10-22-10zM100 82l-90-92q-10-10-10-22t10-22 22-10 22 10l92 90q22 22 0 46-24 22-46 0z" />
<glyph unicode="&#xe05f;" glyph-name="uniE05F" horiz-adv-x="896" d="M832 832h-768q-26 0-45-19t-19-45v-768q0-26 18-45t46-19h768q28 0 46 18t18 46v768q0 28-20 46t-44 18zM608 752h96v-96h-96v96zM400 752h96v-96h-96v96zM192 752h96v-96h-96v96zM832 0h-768v576h768v-576z" />
<glyph unicode="&#xe060;" glyph-name="uniE060" horiz-adv-x="896" d="M0 320h416v512h-416v-512zM0-64h416v320h-416v-320zM480-64h416v512h-416v-512zM480 832v-320h416v320h-416z" />
<glyph unicode="&#xe061;" glyph-name="uniE061" horiz-adv-x="896" d="M874 588q-14 4-25-2t-15-20q-16-52-59-85t-99-33q-68 0-116 48t-48 116q0 56 33 99t85 59q14 4 20 15t2 25q-4 12-16 18t-24 2q-74-22-119-82t-45-136q0-40 12-74t34-62l-484-486q-10-10-10-22t10-22 22-10 22 10l486 484q28-22 62-34t74-12q76 0 136 45t82 119q4 12-2 24t-18 16z" />
<glyph unicode="&#xe062;" glyph-name="uniE062" horiz-adv-x="896" d="M672 832q46 0 87-18t71-48 48-71 18-87-18-87-48-71-71-48-87-18q-74 0-134 44l-484-482q-10-10-22-10t-22 10-10 22 10 22l482 484q-44 60-44 134 0 46 18 87t48 71 71 48 87 18zM672 448q66 0 113 47t47 113-47 113-113 47-113-47-47-113 47-113 113-47z" />
<glyph unicode="&#xe063;" glyph-name="uniE063" d="M1016 736q8-14 8-32v-704q0-34-21-49t-43-15h-896q-16 0-40 12t-24 52v768q0 16 12 40t52 24h374l58-64h464q22 0 36-10t20-22zM960 640q-4 28-20 46t-44 18h-448l-64 64h-256q-34 0-49-21t-15-43v-640q0-36 21-50t43-14h768q16 0 40 12t24 52v576zM128 640h320v-256h-320v256zM128 320h320v-256h-320v256zM576 640h320v-256h-320v256zM576 320h320v-256h-320v256z" />
<glyph unicode="&#xe064;" glyph-name="uniE064" d="M32 472q-32 0-32 32t32 32h960q32 0 32-32t-32-32h-960zM32 382q14 16 18 26h14v-192h-22v150q-6-10-20-16-12-8-22-12v22q10 4 17 10t15 12zM984 382q14 14 20 26h16v-192h-24v150q-12-12-22-16-10-8-24-12v22q18 8 34 22z" />
<glyph unicode="&#xe065;" glyph-name="uniE065" d="M960 832q26 0 45-18t19-46v-768q0-28-18-46t-46-18h-448v64h448v576h-768v-256h-64v448q0 22 18 43t46 21h768zM444 118q8-8 8-22t-8-22l-134-128q-10-10-22-10t-22 10-10 22q0 14 10 22l78 74h-312q-32 0-32 32t32 32h312l-78 74q-10 8-10 22 0 12 10 22t22 10 22-10z" />
<glyph unicode="&#xe066;" glyph-name="uniE066" horiz-adv-x="896" d="M256 0q0-26-19-45t-45-19h-128q-26 0-45 18t-19 46v128q0 28 18 46t46 18h128q28 0 46-19t18-45v-64h64q28 0 46 19t18 45v224h-128v-32q0-26-19-45t-45-19h-128q-26 0-45 18t-19 46v128q0 28 18 46t46 18h128q28 0 46-19t18-45v-32h128v224q0 26-18 45t-46 19h-64v-64q0-26-19-45t-45-19h-128q-26 0-45 18t-19 46v128q0 28 18 46t46 18h128q28 0 46-19t18-45h64q52 0 90-38t38-90v-224h128v160q0 28 18 46t46 18h192q28 0 46-19t18-45v-384q0-26-19-45t-45-19h-192q-26 0-45 18t-19 46v160h-128v-224q0-52-38-90t-90-38h-64zM192 768h-128v-128h128v128zM192 448h-128v-128h128v128zM192 0v128h-128v-128h128z" />
<glyph unicode="&#xe067;" glyph-name="uniE067" horiz-adv-x="896" d="M640 0h-64q-52 0-90 38t-38 90v224h-128v-160q0-28-19-46t-45-18h-192q-26 0-45 19t-19 45v384q0 26 18 45t46 19h192q28 0 46-18t18-46v-160h128v224q0 52 38 90t90 38h64q0 26 18 45t46 19h128q28 0 46-18t18-46v-128q0-28-19-46t-45-18h-128q-26 0-45 19t-19 45v64h-64q-28 0-46-19t-18-45v-224h128v32q0 26 18 45t46 19h128q28 0 46-18t18-46v-128q0-28-19-46t-45-18h-128q-26 0-45 19t-19 45v32h-128v-224q0-26 18-45t46-19h64v64q0 26 18 45t46 19h128q28 0 46-18t18-46v-128q0-28-19-46t-45-18h-128q-26 0-45 19t-19 45zM704 768v-128h128v128h-128zM704 448v-128h128v128h-128zM704 0h128v128h-128v-128z" />
<glyph unicode="&#xe068;" glyph-name="uniE068" d="M572 832h-318q-26 0-45-18t-19-46v-576h64v576h318v64zM248 62l-54-56-78 76q-18 16-25 40t-7 50q0 60 40 112l-10 8-60-58q-54-52-54-122 0-68 54-122l58-60-50-52v-4q0-2 2-2h190v186q0 2-1 2t-1 2v2q-2 0-4-2zM968 774l-62 60 52 54q4 4 4 6t-8 2h-190v-188q0-6 2-6t4 2l50 50 82-78q36-34 36-96 0-66-44-116l10-8 64 62q56 52 56 126 0 70-56 130zM700 512h-254v-64h254v64zM446 320h254v64h-254v-64zM764 0h-382v640h318v64h-318q-28 0-46-18t-18-46v-640q0-28 18-46t46-18h382q26 0 45 18t19 46v576h-64v-576z" />
<glyph unicode="&#xe069;" glyph-name="uniE069" d="M1016 426l-70 70q-10 6-16 6-10 0-18-6l-408-406-20-56q-10-24-19-50t-17-48q30 10 59 20t52 17 37 10l14 3 406 406q8 8 8 16 0 10-8 18zM582 28l-36 34 286 282 34-34zM902 344l-36 36 64 62 34-34zM448 130h-352l224 220-38 36-218-224v512l384-352 384 352v-96h64v128q0 28-18 46t-46 18h-768q-28 0-46-19t-18-45v-576q0-26 19-45t45-19h384v64zM768 706l-320-320-320 320h640z" />
<glyph unicode="&#xe06a;" glyph-name="uniE06A" d="M730 580q32 0 32-32v-320q0-12-8-22t-24-10h-448q-12 0-22 10t-10 22v320q0 16 10 24t22 8h448zM316 548l190-152 190 152h-380zM730 534l-224-182-224 180v-280l132 132 22-24-130-132h400l-130 132 24 24 130-132v282zM512 896q106 0 199-40t163-110 110-163 40-199-40-199-110-163-163-110-199-40-200 40-163 110-109 163-40 199 40 199 109 163 163 110 200 40zM512-76q96 0 179 36t146 99 99 146 36 179-36 179-99 146-146 99-179 36-180-36-147-99-99-146-36-179 36-179 99-146 147-99 180-36z" />
<glyph unicode="&#xe06b;" glyph-name="uniE06B" d="M740 198q-2-2-10-2h-448q-10 0-12 2l168 156-24 22-164-148v322l8-6t34-27 76-62 138-113l256 216v-330q-2 0-8 4t-23 19-48 44-85 81l-26-22zM272 580q4 0 5 1t3 1h450q8 0 8-2l-232-194zM512 896q106 0 199-40t163-110 110-163 40-199-40-199-110-163-163-110-199-40-199 40-163 110-110 163-40 199 40 199 110 163 163 110 199 40zM510 0q80 0 150 30t122 82 82 122 30 150-30 150-82 122-122 82-150 30-150-30-122-82-82-122-30-150 30-150 82-122 122-82 150-30z" />
<glyph unicode="&#xe06c;" glyph-name="uniE06C" d="M522 572q-4 2-4 3t-4 1-8-4l-184-370q0-6 4-8 2-6 8 0l180 118 180-118q6-2 8 0 4 2 4 8zM512 896q-106 0-199-40t-163-110-110-163-40-199 40-199 110-163 163-110 199-40 199 40 163 110 110 163 40 199-40 199-110 163-163 110-199 40zM512 0q-80 0-150 30t-122 82-82 122-30 150 30 150 82 122 122 82 150 30 150-30 122-82 82-122 30-150-30-150-82-122-122-82-150-30z" />
<glyph unicode="&#xe06d;" glyph-name="uniE06D" d="M512 896q106 0 199-40t163-110 110-163 40-199-40-199-110-163-163-110-199-40-200 40-163 110-109 163-40 199 40 199 109 163 163 110 200 40zM512-76q96 0 179 36t146 99 99 146 36 179-36 179-99 146-146 99-179 36-180-36-147-99-99-146-36-179 36-179 99-146 147-99 180-36zM512 640q-54 0-100-20t-81-55-55-81-20-100 20-100 55-81 81-55 100-20 100 20 81 55 55 81 20 100-20 100-55 81-81 55-100 20zM512 176q-42 0-80 16t-67 45-45 67-16 80 16 80 45 67 67 45 80 16 80-16 67-45 45-67 16-80-16-80-45-67-67-45-80-16zM632 368h-120v120q0 24-24 24t-24-24v-168h168q24 0 24 24t-24 24z" />
<glyph unicode="&#xe06e;" glyph-name="uniE06E" d="M724 604q12-12 12-26 0-6-2-10l-148-348q-8-16-24-16-18 0-26 12l-66 100-132-146q-10-10-22-10-28 0-28 30 0 6 2 10l148 348q12 16 24 16 20 0 26-14l60-98 140 148q6 8 18 8 6 0 18-4zM618 444l-54-58q-8-10-24-10-14 4-20 14l-50 84-60-140 42 48q10 10 22 10 16-4 24-14l56-86zM512 896q106 0 199-40t163-110 110-163 40-199-40-199-110-163-163-110-199-40-200 40-163 110-109 163-40 199 40 199 109 163 163 110 200 40zM512-76q96 0 179 36t146 99 99 146 36 179-36 179-99 146-146 99-179 36-180-36-147-99-99-146-36-179 36-179 99-146 147-99 180-36z" />
<glyph unicode="&#xe06f;" glyph-name="uniE06F" d="M726 604q12-12 12-26 0-6-2-10l-148-348q-8-16-24-16-18 0-26 12l-66 100-132-146q-10-10-22-10-28 0-28 30 0 6 2 10l148 348q12 16 24 16 20 0 26-14l60-98 140 148q6 8 18 8 6 0 18-4zM512 896q106 0 199-40t163-110 110-163 40-199-40-199-110-163-163-110-199-40-199 40-163 110-110 163-40 199 40 199 110 163 163 110 199 40zM512 0q80 0 150 30t122 82 82 122 30 150-30 150-82 122-122 82-150 30-150-30-122-82-82-122-30-150 30-150 82-122 122-82 150-30z" />
<glyph unicode="&#xe070;" glyph-name="uniE070" d="M960 704q28 0 46-18t18-46v-640q0-28-18-46t-46-18h-448q-28 0-46 18t-18 46v192h64v-192h448v640h-448v-128h-64v128q0 28 18 46t46 18h448zM256 512q28 0 46-18t18-46v-192q0-28-18-46t-46-18h-192q-28 0-46 18t-18 46v192q0 28 18 46t46 18h192zM664 320h-248q-32 0-32 32t32 32h248l-80 80q-10 10-10 22 0 32 32 32 14 0 24-8l134-136q8-12 8-22 0-14-8-22l-134-136q-10-8-24-8-32 0-32 30 0 14 10 24z" />
<glyph unicode="&#xe071;" glyph-name="uniE071" horiz-adv-x="896" d="M862 832q14 0 24-9t10-23v-320q0-22-20-28t-36 6l-136 138-138-140q-8-8-24-8-14 0-22 10t-8 22 10 22l136 140-138 136q-16 16-8 34t30 20h320zM832 768h-212l212-210v210zM330 310q10 10 22 10t21-10 9-22q0-14-8-22l-320-320q-10-10-22-10-14 0-23 10t-9 22q0 14 10 24z" />
<glyph unicode="&#xe072;" glyph-name="uniE072" d="M374 660h92v-548h-92v-46h276v46h-92v548h92v46h-276v-46zM982 722q42-16 42-60v-556q0-44-42-60l-448-170q-22-10-44 0l-448 170q-42 16-42 60v556q0 44 42 60l448 170q22 10 44 0zM960 106v556l-448 170-448-170v-556l448-170z" />
<glyph unicode="&#xe073;" glyph-name="uniE0001" horiz-adv-x="896" d="M318 256h-190v256h190v192h258v-192h192v-256h-192v-192h-258v192zM384 320v-192h128v192h190v128h-190v192h-128v-192h-192v-128h192zM832 832q28 0 46-17t18-45v-770q0-26-18-46t-46-20h-768q-26 0-45 20t-19 46v770q0 28 19 45t45 17h768zM830 768h-766v-768h766v768z" />
<glyph unicode="&#xe074;" glyph-name="uniE0011" horiz-adv-x="896" d="M512 514q0-80-56-136t-136-56-136 56-56 136 56 136 136 56 136-56 56-136zM320 386q52 0 90 38t38 90q0 54-38 91t-90 37q-54 0-91-37t-37-91q0-52 37-90t91-38zM384 320q52 0 99-20t82-54 55-80 20-100v-130h-640v130q0 54 20 100t55 80 81 54 100 20h128zM576 66q0 80-56 136t-136 56h-128q-80 0-136-56t-56-136v-64h512v64zM864 576q32 0 32-32 0-12-9-22t-23-10h-256q-12 0-22 10t-10 22q0 14 10 23t22 9h256zM864 704q32 0 32-32 0-12-9-22t-23-10h-256q-12 0-22 10t-10 22q0 14 10 23t22 9h256zM864 832q32 0 32-32 0-12-9-22t-23-10h-256q-12 0-22 10t-10 22q0 14 10 23t22 9h256z" />
<glyph unicode="&#xe075;" glyph-name="uniE0021" horiz-adv-x="896" d="M878 134q18-20 18-45t-18-43l-92-92q-18-18-42-18-28 0-46 18l-326 328q-46-20-104-20-94 0-166 53t-102 133h236q28 0 55 19t27 47v64q0 28-27 46t-55 18h-236q30 84 102 137t166 53q60 0 111-23t90-62 61-91 22-110q0-40-12-78zM832 88l-336 336-28 26 10 36q6 18 8 32t2 28q0 46-17 86t-47 70-70 48-86 18q-92 0-154-66h122q26 0 52-10t47-26 34-39 13-49v-64q0-26-13-49t-34-41-47-28-52-10h-122q30-28 70-44t84-16q34 0 82 16l38 16 30-30 326-328z" />
<glyph unicode="&#xe076;" glyph-name="uniE0031" d="M0-128v1024h512v-1024h-512zM64 832v-896h384v896h-384zM832 896h192v-448h-448v448h256zM640 832v-128h128v128h-128zM640 512h128v128h-128v-128zM960 512v128h-128v-128h128zM832 704h128v128h-128v-128zM322 416q0-32 32-32t32 32-32 32-32-32z" />
<glyph unicode="&#xe077;" glyph-name="uniE0041" horiz-adv-x="896" d="M704 578q-26 0-45 19t-19 45q0 28 19 46t45 18q28 0 46-18t18-46q0-26-18-45t-46-19zM832 832q28 0 46-17t18-45v-768q0-26-18-46t-46-20h-768q-26 0-45 20t-19 46v768q0 28 19 45t45 17h768zM832 770h-768v-768h768v768zM448 66q-52 0-99 20t-82 55-55 81-20 100 20 100 55 81 82 55 99 20q54 0 101-20t81-55 54-81 20-100-20-100-54-81-81-55-101-20zM448 514q-80 0-136-56t-56-136 56-136 136-56 136 56 56 136q0 82-55 137t-137 55z" />
<glyph unicode="&#xe078;" glyph-name="uniE0051" d="M384 830h640v-828h-318v62h256v704h-512v-64h-66v126zM514 450q0-80-56-136t-136-56-136 56-56 136 56 136 136 56 136-56 56-136zM322 322q52 0 90 38t38 90-38 90-90 38-90-38-38-90 38-90 90-38zM386 258q52 0 98-20t81-55 55-82 20-99v-66h-640v66q0 52 20 99t55 82 82 55 101 20h128zM578 2q0 80-56 135t-136 55h-128q-40 0-74-15t-61-40-42-60-15-75h512zM878 464q18-20 18-46t-18-46l-124-116q-10-10-22-10t-22 10-10 23 10 23l90 82h-192q-32 0-32 32t32 32h192l-92 82q-10 10-10 23t10 23 22 10 22-10z" />
<glyph unicode="&#xe079;" glyph-name="uniE0061" d="M960 768q26 0 45-18t19-46v-640q0-28-19-46t-45-18q-18 0-32 8l-224 240v-56q0-54-38-91t-90-37h-448q-52 0-90 37t-38 91v384q0 52 38 90t90 38h448q52 0 90-38t38-90v-58l224 240q16 10 32 10zM640 576q0 26-18 45t-46 19h-448q-28 0-46-19t-18-45v-384q0-28 18-46t46-18h448q28 0 46 18t18 46v384zM960 704l-256-268v-106l256-266v640z" />
<glyph unicode="&#xe07a;" glyph-name="uniE0071" d="M606 620l112-334-112-112-148 296-142-106v-150l-54-52-102 160-160 102 52 52h150l108 144-298 148 112 110 334-110 74 74q22 22 60 38t74 16q34 0 52-18 14-16 16-41t-5-52-21-52-28-39zM556 602l-10 32 22 22 76 74q12 12 20 29t13 33 6 30-3 20h-4q-2 0-4 1t-6 1q-26 0-54-12t-44-28l-96-96-30 10-304 100-38-36 232-116 58-28-146-192-16-22h-130l92-58 8-6 8-10 56-90v130l22 14 192 146 144-288 38 38zM998 130q26-28 26-76 0-54-32-88-30-34-96-44v-50h-44v48q-58 8-86 38-30 28-40 88l76 8q2-24 16-40 8-12 34-24v120q-66 18-88 50-26 32-26 78t30 80q26 32 84 38l2 60h44l-2-60q54-10 80-32 28-28 36-70l-74-8q-6 32-42 46v-114q80-22 102-48zM852 292q-24-8-32-20-10-14-10-30t8-28q12-12 34-22v100zM940 6q12 14 12 38 0 16-10 32-10 12-46 22v-112q32 6 44 20z" />
<glyph unicode="&#xe07b;" glyph-name="uniE0081" horiz-adv-x="896" d="M448 398q58-38 93-100t35-138q0-60-23-113t-62-92-91-61-112-22-112 22-91 61-62 92-23 113q0 76 35 138t93 100v338q0 66 47 113t113 47 113-47 47-113v-338zM288-64q46 0 87 18t71 48 48 71 18 87q0 56-26 105t-72 81l-30 18v372q0 40-28 68t-68 28-68-28-28-68v-372l-28-18q-46-32-73-81t-27-105q0-46 18-87t48-71 71-48 87-18zM896 800q0-32-32-32h-224v64h224q32 0 32-32zM768 672q0-32-32-32h-96v64h96q32 0 32-32zM864 576q32 0 32-32t-32-32h-224v64h224zM736 448q32 0 32-32t-32-32h-96v64h96zM320 282q42-10 69-43t27-79q0-54-37-91t-91-37q-52 0-90 37t-38 91q0 46 28 79t68 43v262q0 14 10 23t22 9q32 0 32-32v-262z" />
<glyph unicode="&#xe07c;" glyph-name="uniE0091" horiz-adv-x="768" d="M704 768q26 0 45-18t19-46v-768q0-28-19-46t-45-18h-640q-28 0-46 18t-18 46v768q0 28 18 46t46 18h134q8 24 28 41t46 21q16 30 46 48t66 18 65-18 45-48q28-4 47-21t29-41h134zM288 768q-32 0-32-32t32-32h192q32 0 32 32t-32 32h-32q0 28-19 46t-45 18q-28 0-46-18t-18-46h-32zM704 704h-134q-6-22-22-40-20-24-50-24h-228q-32 0-52 24-14 20-20 40h-134v-768h640v768zM308 500l46-44-136-136-90 90 44 46 46-46zM308 244l46-44-136-136-90 90 44 46 46-46zM608 448q32 0 32-32 0-12-9-22t-23-10h-128q-12 0-22 10t-10 22q0 14 10 23t22 9h128zM608 192q32 0 32-32 0-12-9-22t-23-10h-128q-12 0-22 10t-10 22q0 14 10 23t22 9h128z" />
<glyph unicode="&#xe07d;" glyph-name="uniE00A1" d="M510 832q-76 0-145-24t-125-67-98-102-62-127h-66q22 82 69 153t112 122 145 80 170 29q146 0 265-73t183-193v114q2 14 12 23t22 7q14 0 22-10t8-22v-168q-4-28-23-45t-45-17l-170 16q-12 0-21 10t-9 22q4 14 13 23t23 7l122-10q-56 112-163 182t-239 70zM510-64q84 0 160 30t135 81 97 121 50 152h66q-12-94-56-176t-112-142-155-95-185-35q-144 0-262 72t-184 190v-110q-2-14-12-23t-22-7q-14 0-22 10t-8 22v168q4 28 23 45t47 17l168-16q14 0 22-10t8-22q-2-16-12-24t-22-8l-124 12q54-112 161-182t239-70z" />
<glyph unicode="&#xe07e;" glyph-name="uniE00B1" horiz-adv-x="768" d="M218 566l-74 70 36 38 38-34 108 110 36-38zM218 310l-74 74 36 36 38-34 108 110 36-38zM144 60l74 72-74 72 36 36 74-74 72 74 36-36-74-72 74-72-36-36-72 74-74-74zM704 896q28 0 46-18t18-46v-896q0-26-18-45t-46-19h-640q-28 0-46 19t-18 45v896q0 28 18 46t46 18h640zM704 832h-640v-896h640v896zM608 704q32 0 32-32 0-12-9-22t-23-10h-128q-12 0-22 10t-10 22q0 14 10 23t22 9h128zM608 448q32 0 32-32 0-12-9-22t-23-10h-128q-12 0-22 10t-10 22q0 14 10 23t22 9h128zM608 192q32 0 32-32 0-12-9-22t-23-10h-128q-12 0-22 10t-10 22q0 14 10 23t22 9h128z" />
<glyph unicode="&#xe07f;" glyph-name="uniE00C1" d="M992 162q14-6 18-19t0-25l-26-56q-6-14-19-18t-25 0l-60 26q-16-20-33-36t-39-32l24-60q4-14-1-27t-19-17l-58-22q-14-6-26 0t-18 18l-24 62q-10-2-21-3t-21-1q-30 0-60 6l-26-60q-6-12-19-17t-25 1l-54 24q-32 14-18 46l26 60q-20 16-38 32t-32 38l-60-22q-14-6-27 0t-17 18l-22 58q-6 14 0 27t18 17l62 24q-2 10-3 21t-1 23q0 30 6 58l-60 26q-12 6-17 19t1 25l24 56q6 12 19 17t27-1l58-26q34 44 74 72l-22 60q-6 12 0 25t20 17l56 24q12 4 25-1t17-19l24-62q10 2 21 4t23 2q16 0 30-2l28-4 26 58q6 12 19 17t25 1l58-26q12-6 17-19t-1-25l-26-60q42-32 68-74l62 24q12 4 25-1t19-19l22-56q4-14-1-27t-19-17l-62-24q2-10 3-21t1-21q0-30-6-60zM644 54q40 0 75 15t62 41 42 62 15 76-15 75-42 61-62 41-75 15q-82 0-137-56t-55-136q0-82 55-138t137-56zM314 532q-28-18-58-24v-68h-64v68q-30 6-54 24l-50-48-44 44 48 50q-18 24-24 56h-68v64h68q4 28 24 56l-48 48 44 46 50-48q24 14 54 24v68h64v-68q30-8 58-24l48 48 46-46-48-48q8-14 14-27t10-29h68v-64h-68q-10-34-24-56l48-50-46-44zM226 568q40 0 68 29t28 69-28 67-68 27-68-27-28-67 28-69 68-29z" />
<glyph unicode="&#xe080;" glyph-name="uniE00D1" horiz-adv-x="896" d="M876 44q20-18 20-45t-20-45q-18-18-44-18t-46 18l-234 236q-90-62-200-62-72 0-136 27t-112 75-76 112-28 138q0 72 28 136t76 112 112 76 136 28 136-28 112-76 76-112 28-136q0-56-17-106t-45-94zM352 192q60 0 112 22t91 61 62 92 23 113-23 112-62 91-91 62-112 23-113-23-92-62-61-91-22-112 22-113 61-92 92-61 113-22z" />
<glyph unicode="&#xe081;" glyph-name="uniE00E1" horiz-adv-x="886" d="M844 374q22-28 22-66 0-46-25-74t-85-38v-42h-36v40q-92 12-108 106l64 8q4-20 12-31t32-25v104q-58 16-78 45t-20 65q0 40 25 68t73 32v26h36v-26q48-4 71-27t29-59l-62-8q-6 26-38 40v-96q70-22 88-42zM720 512q-24-8-31-20t-7-22q0-14 6-23t32-21v86zM794 266q12 14 12 32 0 16-8 27t-42 21v-98q28 6 38 18zM768 64v-128q0-28-18-46t-46-18h-640q-28 0-46 18t-18 46v704l256 256h448q26 0 45-18t19-46v-128h-64v128h-384v-192q0-28-19-46t-47-18h-190v-640h640v128h64z" />
<glyph unicode="&#xe082;" glyph-name="uniE00F1" horiz-adv-x="896" d="M794 768l102-192v-64q0-28-18-46t-46-18q-26 0-45 18t-19 46q0-28-18-46t-46-18q-26 0-45 18t-19 46q0-28-18-46t-46-18q-26 0-45 18t-19 46q0-28-18-46t-46-18q-26 0-45 18t-19 46q0-28-18-46t-46-18q-26 0-45 18t-19 46q0-28-18-46t-46-18q-26 0-45 18t-19 46q0-28-18-46t-46-18q-26 0-45 18t-19 46v64l104 192h70l-84-192h112l44 192h66l-44-192h148v192h64v-192h150l-44 192h66l44-192h112l-86 192h72zM96 768q-12 0-22 9t-10 23q0 12 10 22t22 10h704q14 0 23-10t9-22q0-32-32-32h-704zM224 64q-12 0-22 9t-10 23v192q0 12 10 22t22 10h192q14 0 23-10t9-22v-192q0-32-32-32h-192zM256 128h128v128h-128v-128zM768 384h64v-448h-192v320h-64v-320h-512v448h64v-384h384v288q0 12 10 22t22 10h128q14 0 23-10t9-22v-288h64v384z" />
<glyph unicode="&#xe083;" glyph-name="uniE0101" horiz-adv-x="896" d="M888 256q-12-82-51-152t-97-121-133-81-161-30q-92 0-173 35t-142 96-96 142-35 175q0 90 33 170t91 140 136 96 168 40h122q52 0 120 2l-82 72q-10 10-10 23t10 23 22 10 22-10l116-102q18-20 18-46t-18-46l-114-108q-10-10-22-10t-22 10-10 23 10 23l80 74h-224q-80 0-149-30t-121-82-82-122-30-150 30-150 82-122 121-82 149-30q72 0 136 24t113 67 83 101 46 128h64z" />
<glyph unicode="&#xe084;" glyph-name="uniE0111" horiz-adv-x="882" d="M874 676v-580l-436-220-436 220v580l218 110 438-218v-218l-74-36v210l-364 180-146-70v-496l364-180 364 180v496l-364 180-56-28-82 42 138 68zM148 276l216-108v-90l-216 106v92z" />
<glyph unicode="&#xe085;" glyph-name="uniE0121" d="M480-64q74 0 140 24t119 67 91 101 54 128h66q-16-82-59-153t-105-122-141-80-165-29q-100 0-187 38t-152 103-103 152-38 187q0 86 29 164t81 140 122 105 152 59v-64q-68-16-127-54t-102-91-67-119-24-140q0-86 33-162t90-132 132-89 161-33zM448 320v288q0 14 10 23t22 9q32 0 32-32v-224h288q32 0 32-32t-32-32h-352zM670 448l52 158-134 98h166l52 158 52-158h166l-136-98 52-158-134 98z" />
<glyph unicode="&#xe086;" glyph-name="uniE0131" d="M704 32h64v-96q0-28-18-46t-46-18h-640q-28 0-46 18t-18 46v704l256 256h448q26 0 45-18t19-46v-128h-64v128h-384v-192q0-28-19-46t-47-18h-190v-640h640v96zM960 512q26 0 45-19t19-45v-256q0-28-19-46t-45-18h-320q-28 0-46 18t-18 46v64h-64q-28 0-46 18t-18 46v256q0 26 18 45t46 19h320q26 0 45-19t19-45v-64h64zM576 448q0 26 18 45t46 19h192v64h-320v-256h64v128zM960 448h-320v-256h320v256z" />
<glyph unicode="&#xe087;" glyph-name="uniE0141" horiz-adv-x="896" d="M858 36q14 0 25-11t11-27-14-33-33-32-39-27-34-18q-22-10-44-13t-42-3q-40 0-105 22t-171 78q-88 46-140 67t-80 21q-70 0-126-80-12-16-30-16-14 0-25 10t-11 28q0 36 25 60t58 39 64 21 43 6q42 0 102-21t154-73q92-52 149-70t91-18q88 0 146 76 8 14 26 14zM36 168q-14 0-25 9t-11 25q8 30 31 52t51 37 57 22 47 7q40 0 101-22t159-72q92-52 147-72t91-20q84 0 148 80 8 14 26 14 14 0 25-11t11-31q0-14-15-31t-34-34-39-29-32-14q-28-12-50-15t-36-3q-40 0-105 22t-171 80q-88 48-140 67t-82 19q-76 0-124-66-14-14-30-14zM224 534q-12 0-22 9t-10 23v8q0 90 54 152t148 62h28q28 46 77 77t107 31q46 0 87-16t72-44 49-66 18-82v-432l-64 30v98l-128-96v-96q-16 6-29 15t-35 19v284q0 102-49 150t-133 56q-26 2-51-8t-44-30-31-47-12-57v-8q0-32-32-32zM768 542l-128-94v-92l128 96v90zM616 832q-36 0-69-9t-53-49q26-14 52-34t47-45 34-53 13-60v-70l128 94v82q0 64-44 104t-108 40z" />
<glyph unicode="&#xe088;" glyph-name="uniE0151" horiz-adv-x="1060" d="M1030 552q30-90 30-186 0-202-132-356l-32 28-314 316zM954 612l-402-178v482q142-10 259-87t183-199zM552 266l286-286q-126-106-286-120-24-2-44-2t-42 2q-128 10-235 81t-169 183q-20 36-34 76-28 80-28 166 0 188 120 332 30 32 60 58 124 104 286 120v-526z" />
<glyph unicode="&#xe089;" glyph-name="uniE0161" horiz-adv-x="896" d="M832 832q28 0 46-18t18-46v-768q0-26-18-45t-46-19h-768q-28 0-46 19t-18 45v768q0 28 18 46t46 18h768zM832 768h-768v-640h768v640zM576 512l192-320h-384zM388 320h-260v320h280q-10-22-17-45t-7-51q0-40 14-76t38-64zM472 462q-10 18-17 39t-7 43q0 68 47 114t113 46q68 0 114-46t46-114q0-38-16-70t-44-54l-132 218z" />
<glyph unicode="&#xe08a;" glyph-name="uniE0171" d="M960 444l-510-508q0-28 18-46t46-18h446q26 0 45 18t19 46v444q0 28-19 46t-45 18zM960-64h-420l420 418v-418zM886 554q-10 10-22 10t-22-10l-500-502q-10-10-10-22t10-22 22-10 22 10l500 500q24 22 0 46zM304 792q-4 0-8 1t-8 1-8-1-8-1v104h32v-104zM430 726q-10 12-22 22l72 74 24-22zM576 592h-104q2 4 2 16 0 10-2 16h104v-32zM408 466q12 10 22 22l74-74-24-22zM288 422h16v-102h-32v102h16zM74 414l72 74q6-6 11-12t13-10l-74-74zM102 608q0-4 1-8t1-8h-104v32h104q0-4-1-8t-1-8zM170 748q-8-4-13-10t-11-12l-72 74 22 22zM288 448q-66 0-113 46t-47 114q0 66 47 113t113 47 113-47 47-113q0-68-47-114t-113-46zM288 704q-40 0-68-28t-28-68 28-68 68-28 68 28 28 68-28 68-68 28z" />
<glyph unicode="&#xe08b;" glyph-name="uniE0181" d="M64 0q-26 0-45 18t-19 46v768q0 26 19 45t45 19h128q28 0 46-19t18-45v-768q0-28-18-46t-46-18h-128zM960 768q28 0 46-19t18-45v-768q0-28-18-46t-46-18h-896q-26 0-45 18t-19 46h960v768h-640v64h640zM448 256q-26 0-45 18t-19 46q0 26 19 45t45 19q28 0 46-19t18-45q0-28-18-46t-46-18zM640 384q28 0 46-19t18-45q0-28-18-46t-46-18q-26 0-45 18t-19 46q0 26 19 45t45 19zM832 384q28 0 46-19t18-45q0-28-18-46t-46-18q-26 0-45 18t-19 46q0 26 19 45t45 19zM832 192q28 0 46-19t18-45q0-28-18-46t-46-18q-26 0-45 18t-19 46q0 26 19 45t45 19zM640 192q28 0 46-19t18-45q0-28-18-46t-46-18q-26 0-45 18t-19 46q0 26 19 45t45 19zM448 64q-26 0-45 18t-19 46q0 26 19 45t45 19q28 0 46-19t18-45q0-28-18-46t-46-18zM896 544q0-32-32-32h-448q-32 0-32 32v64q0 12 9 22t23 10h448q14 0 23-10t9-22v-64z" />
<glyph unicode="&#xe08c;" glyph-name="uniE0191" d="M448 320v288q0 14 10 23t22 9q32 0 32-32v-224h288q32 0 32-32t-32-32h-352zM640 880q136-34 235-133t133-235h-66q-34 108-114 187t-188 113v68zM512-64q76 0 145 24t125 67 97 101 63 128h66q-22-82-68-153t-111-122-146-80-171-29q-106 0-199 40t-163 110-110 163-40 199q0 90 29 170t80 145 122 112 153 69v-66q-70-22-128-63t-101-97-67-125-24-145q0-94 35-175t96-142 143-96 174-35z" />
<glyph unicode="&#xe08d;" glyph-name="uniE01A1" d="M898 326q44 0 84-22t40-52q0-46-68-46-36 0-83 11t-79 29q-64-14-115-26t-85-22q-66-102-108-102l-14 2q-42 14-42 52 0 34 60 74l62 24q56 90 84 178-14 14-18 44t-4 50q0 44 14 75t42 31q22 0 35-24t13-72q0-20-3-44t-11-52q52-96 100-126l62 14q20 4 34 4zM726 292q-28 26-48 60l-42-80zM768 32v-96q0-28-18-46t-46-18h-640q-28 0-46 18t-18 46v704l256 256h448q26 0 45-18t19-46v-128h-64v128h-384v-192q0-28-19-46t-47-18h-190v-640h640v96h64z" />
<glyph unicode="&#xe08e;" glyph-name="uniE01B1" d="M480 320h-32v288q0 32 32 32t32-32v-224h288q32 0 32-32 0-12-9-22t-23-10h-320zM630 882q84-20 157-66t125-111 82-147 30-174q0-106-40-199t-109-163-163-110-200-40q-98 0-185 35t-155 95-112 142-56 176h66q12-82 51-152t98-121 134-81 159-30q92 0 174 35t143 96 96 143 35 174q0 78-25 148t-69 127-104 98-132 59v66zM384 812q-90-28-161-88t-111-144l122 10q12 2 22-7t12-23q0-32-30-32l-168-16q-28 0-47 17t-23 45l2 168q-2 12 7 22t21 10q14 2 23-7t11-23v-114q52 92 134 157t186 93v-68z" />
<glyph unicode="&#xe08f;" glyph-name="uniE01C1" d="M736 300q34-32 66-64l64-64q30-30 29-66t-29-66q-12-10-23-21t-21-23q-30-34-67-47t-77-13h-16t-18 2q-72 8-136 37t-124 69q-108 74-192 167t-142 211q-20 40-32 81t-16 85q-4 48 7 91t51 77q12 10 23 22t32 33 57 21q30 0 60-26l68-68t68-70q28-28 26-62t-30-62q-18-20-36-38l-38-38q98-144 242-242 38 36 74 74 34 30 66 30 36 0 64-30zM820 86q20 20 0 40-32 34-64 66l-64 64q-4 4-9 7t-11 3q-12 0-20-12l-112-112-44 30q-76 56-141 120t-119 140l-30 44 62 62q14 12 26 25t26 25q18 20 2 36-34 38-67 71t-67 65q-12 8-16 8-12 0-20-12-4-4-8-7t-8-7q-16-18-34-34-22-22-31-49t-5-67q6-64 42-142 102-210 312-352 64-44 120-67t112-31h26q58 0 96 38 8 10 15 18t17 16zM1006 720q18-20 18-46t-18-46l-184-172q-10-10-22-10t-22 10-10 23 10 23l150 138h-382q-32 0-32 32t32 32h382l-150 136q-10 10-10 23t10 23 22 10 22-10z" />
<glyph unicode="&#xe090;" glyph-name="uniE01D1" d="M884 320h6q6-6 6-8v-376q0-28-18-46t-46-18h-768q-28 0-46 18t-18 46v640q0 28 18 46t46 18h384v-64h-384v-424l72 74q-8 16-8 30 0 28 18 46t46 18 46-18 18-46q0-14-8-30l106-106q16 8 30 8l92 204q-28 20-28 52 0 28 18 46t46 18 46-18 18-46q0-24-18-46l78-210h4q18 0 34-10l208 202h2zM832 226l-136-132q8-20 8-30 0-28-18-46t-46-18-46 18-18 46q0 34 30 54l-78 206q-8-4-16-4-2 0-3 1t-3 1l-90-204q14-8 23-22t9-32q0-28-18-46t-46-18-46 18-18 46q0 18 10 34l-104 104q-16-10-34-10t-34 10l-94-94v-172h768v290zM670 448l52 158-134 98h166l52 158 52-158h166l-136-98 52-158-134 98z" />
<glyph unicode="&#xe091;" glyph-name="uniE01E1" horiz-adv-x="960" d="M780 400q-58 8-86 38-30 28-40 88l76 8q2-24 16-40 8-12 34-24v120q-66 18-88 50-26 32-26 78t30 80q26 32 84 38v60h44v-60q54-10 80-32 28-28 36-70l-74-8q-6 32-42 46v-114q80-22 102-48 26-28 26-76 0-54-32-88-30-34-96-44v-50h-44v48zM824 466q32 6 44 20t12 38q0 16-10 32-10 12-46 22v-112zM746 694q12-12 34-22v100q-24-8-32-20-10-14-10-30t8-28zM384 256q54 0 100-20t81-55 55-81 20-100v-64h-640v64q0 54 20 100t55 81 82 55 99 20h128zM576 0q0 80-56 136t-136 56h-128q-40 0-74-15t-61-41-42-61-15-75h512zM512 448q0-80-56-136t-136-56-136 56-56 136 56 136 136 56 136-56 56-136zM320 320q54 0 91 38t37 90q0 54-37 91t-91 37q-52 0-90-37t-38-91q0-52 38-90t90-38zM926 128q32 0 32-32 0-12-9-22t-23-10h-190q-12 0-22 10t-10 22q0 14 10 23t22 9h190zM926 0q32 0 32-32 0-12-9-22t-23-10h-190q-12 0-22 10t-10 22q0 14 10 23t22 9h190z" />
<glyph unicode="&#xe092;" glyph-name="uniE01F1" horiz-adv-x="768" d="M544 512q32 0 32-32 0-12-9-22t-23-10h-320q-12 0-22 10t-10 22q0 14 10 23t22 9h320zM544 320q32 0 32-32 0-12-9-22t-23-10h-320q-12 0-22 10t-10 22q0 14 10 23t22 9h320zM544 128q32 0 32-32 0-12-9-22t-23-10h-320q-12 0-22 10t-10 22q0 14 10 23t22 9h320zM704 832q28 0 46-19t18-45v-832q0-28-18-46t-46-18h-640q-28 0-46 18t-18 46v832q0 26 18 45t46 19h128v64h64v-64h256v64h64v-64h128zM512 704h64v64h-64v-64zM192 704h64v64h-64v-64zM704 640h-640v-704h640v704z" />
<glyph unicode="&#xe093;" glyph-name="uniE0201" d="M526 544q44-16 56-30 14-14 14-44 0-64-70-76v-30h-28v30q-58 10-70 72l44 4q2-6 10-22 4-2 5-4t3-4q4-2 8-6v74q-32 6-46 26-18 20-18 46 0 22 18 40 14 20 46 24v18h28v-18q28-2 44-18t18-38l-42-6q0 16-20 26v-64zM498 608q-20-6-20-24 0-22 20-32v56zM550 442q6 8 6 20 0 22-30 38v-68q16 2 24 10zM960 832q28 0 46-18t18-46v-512q0-26-18-45t-46-19h-896q-26 0-45 19t-19 45v512q0 28 19 46t45 18h896zM960 696q-32 0-54 22t-22 50h-746q0-30-22-50-22-22-52-22v-366q32 0 52-22 22-20 22-52h750q0 30 22 52 20 22 50 22v366zM512 736q46 0 87-18t71-48 48-71 18-87-18-87-48-71-71-48-87-18-87 18-71 48-48 71-18 87 18 87 48 71 71 48 87 18zM512 320q80 0 136 56t56 136-56 136-136 56-136-56-56-136 56-136 136-56zM992 128q32 0 32-32 0-12-9-22t-23-10h-960q-14 0-23 10t-9 22q0 32 32 32h960zM992 0q32 0 32-32 0-12-9-22t-23-10h-960q-14 0-23 10t-9 22q0 32 32 32h960zM192 576q28 0 46-18t18-46q0-26-18-45t-46-19q-26 0-45 19t-19 45q0 28 19 46t45 18zM832 576q28 0 46-18t18-46q0-26-18-45t-46-19q-26 0-45 19t-19 45q0 28 19 46t45 18z" />
<glyph unicode="&#xe094;" glyph-name="uniE0211" horiz-adv-x="768" d="M424 894q72-6 135-39t110-84 73-118 26-141q0-28-16-71t-43-93-61-104-70-108q-84-124-190-264-110 138-194 262-36 52-71 107t-62 106-44 94-17 71q0 80 30 150t82 122 122 82 150 30h22t18-2zM388-22q60 82 117 165t101 156 71 129 27 84q0 62-22 117t-60 98-90 71-114 34h-36q-66 0-123-25t-101-69-69-102-25-124q0-30 30-90t77-134 104-156 113-154zM384 704q80 0 136-56t56-136-56-136-136-56-136 56-56 136 56 136 136 56zM384 384q54 0 91 38t37 90q0 54-37 91t-91 37q-52 0-90-37t-38-91q0-52 38-90t90-38z" />
<glyph unicode="&#xe095;" glyph-name="uniE0221" horiz-adv-x="896" d="M640 724q114-54 185-162t71-242q0-94-35-175t-96-142-143-96-174-35q-94 0-175 35t-142 96-96 142-35 175q0 134 71 242t185 162v-72q-86-50-139-137t-53-195q0-80 30-150t82-122 122-82 150-30 150 30 122 82 82 122 30 150q0 108-53 195t-139 137v72zM448 320q-28 0-46 18t-18 46v448q0 26 18 45t46 19q26 0 45-19t19-45v-448q0-28-19-46t-45-18z" />
<glyph unicode="&#xe096;" glyph-name="uniE0231" d="M1026 768v-126l-220-312-220 294-200-194-218 116-166-146v104l156 136 212-110 216 214 218-290zM806 98l220 220v-104l-220-220-224 224-214-142-222 148-144-72v82l150 74 216-144 224 148z" />
<glyph unicode="&#xe097;" glyph-name="uniE0241" horiz-adv-x="640" d="M320 896q66 0 123-24t101-66 69-101 25-129q0-48-15-85t-36-68-43-56-32-47q-2-2-12-32l-22-66q-14-42-30-94h-256l-32 96q-12 36-22 65t-10 31q-10 22-32 47t-43 55-37 68-16 88q0 70 25 129t69 101 102 65 124 23zM500 416q28 34 51 71t23 89q0 54-19 101t-54 82-81 54-100 19-101-18-81-52q-74-72-74-184 0-52 22-88t50-70q16-18 28-36t22-38q0-2 2-5t6-18 15-45 29-86h162q18 56 29 86t16 45 7 19 2 6q10 18 21 34t25 34zM192-64h256l-20-20q-44-44-108-44-66 0-110 44zM434 96q12 0 21-9t9-23v-64q0-14-9-23t-21-9h-230q-28 0-28 32v64q0 32 28 32h230zM348 0q28 0 28 32t-28 32-28-32 28-32z" />
<glyph unicode="&#xe098;" glyph-name="uniE0251" d="M384 256q54 0 100-20t81-55 55-81 20-100v-64h-640v64q0 54 20 100t55 81 82 55 99 20h128zM576 0q0 80-56 136t-136 56h-128q-40 0-74-15t-61-41-42-61-15-75h512zM512 448q0-80-56-136t-136-56-136 56-56 136 56 136 136 56 136-56 56-136zM320 320q54 0 91 38t37 90q0 54-37 91t-91 37q-52 0-90-37t-38-91q0-52 38-90t90-38zM670 448l52 158-134 98h166l52 158 52-158h166l-136-98 52-158-134 98zM926 128q32 0 32-32 0-12-9-22t-23-10h-190q-12 0-22 10t-10 22q0 14 10 23t22 9h190zM926 0q32 0 32-32 0-12-9-22t-23-10h-190q-12 0-22 10t-10 22q0 14 10 23t22 9h190z" />
<glyph unicode="&#xe099;" glyph-name="uniE0261" horiz-adv-x="1040" d="M534 414q84-18 118-62t34-86q0-62-41-107t-111-49v-66h-50v64q-52 2-94 40t-50 114l82 10q6-28 24-50t38-30v146q-64 22-103 65t-39 89q0 24 10 50t29 48 45 37 58 17v42h50v-42q116-8 140-124l-72-12q-4 24-22 40t-46 18v-152zM534 184q28 8 47 29t19 45q0 48-66 70v-144zM484 568q-22-8-36-26t-14-38q0-40 50-64v128zM512 896q106 0 200-40t163-110 109-163 40-199-40-200-109-163-163-109-200-40-199 40-163 109-110 163-40 200 40 199 110 163 163 110 199 40zM512-64q92 0 174 35t143 96 96 142 35 175q0 92-35 174t-96 143-143 96-174 35-174-35-143-96-96-143-35-174q0-94 35-175t96-142 143-96 174-35z" />
<glyph unicode="&#xe09a;" glyph-name="uniE0271" d="M192 256q-28 0-46 19t-18 45v448q0 28 18 46t46 18h640q26 0 45-18t19-46v-448q0-26-19-45t-45-19h-640zM192 320h640v448h-640v-448zM1024 10q0-30-22-52t-52-22h-876q-30 0-52 22t-22 52l146 182h732zM640 0l-64 64h-128l-64-64h256z" />
<glyph unicode="&#xe09b;" glyph-name="uniE0281" d="M744 506l-166 166 54 54 112-110 220 222 58-70zM384 256q54 0 100-20t81-55 55-81 20-100v-64h-640v64q0 54 20 100t55 81 82 55 99 20h128zM576 0q0 80-56 136t-136 56h-128q-40 0-74-15t-61-41-42-61-15-75h512zM512 448q0-80-56-136t-136-56-136 56-56 136 56 136 136 56 136-56 56-136zM320 320q54 0 91 38t37 90q0 54-37 91t-91 37q-52 0-90-37t-38-91q0-52 38-90t90-38zM926 128q32 0 32-32 0-12-9-22t-23-10h-190q-12 0-22 10t-10 22q0 14 10 23t22 9h190zM926 0q32 0 32-32 0-12-9-22t-23-10h-190q-12 0-22 10t-10 22q0 14 10 23t22 9h190z" />
<glyph unicode="&#xe09c;" glyph-name="uniE0291" d="M884 320h8q4-4 4-6v-378q0-26-18-45t-46-19h-768q-26 0-45 19t-19 45v640q0 28 19 46t45 18h384v-64h-384v-422l74 72q-10 16-10 30 0 28 19 46t45 18q28 0 46-18t18-46q0-10-8-30l106-106q20 8 30 8h2l90 206q-28 18-28 50 0 28 19 46t45 18q28 0 46-18t18-46q0-30-18-44l80-212h2q18 0 34-10l208 202h2zM832 226l-136-132q8-10 8-30 0-26-18-45t-46-19q-26 0-45 19t-19 45q0 18 9 31t21 23l-76 206q-12-4-18-4-2 0-3 1t-3 1l-90-204q32-16 32-54 0-26-18-45t-46-19q-26 0-45 19t-19 45q0 10 4 18l8 16-106 106-16-8t-18-4-17 4-15 8l-96-96v-172h768v290zM746 436l-166 166 54 56 112-112 218 222 60-68z" />
<glyph unicode="&#xe09d;" glyph-name="uniE02A1" d="M736 300q34-32 66-64l64-64q30-30 29-66t-29-66q-12-10-23-21t-21-23q-30-34-67-47t-77-13h-16t-18 2q-72 8-136 37t-124 69q-108 74-192 167t-142 211q-20 40-32 81t-16 85q-4 48 7 91t51 77q12 10 23 22t23 24q30 30 66 30 30 0 60-26l68-68t68-70q28-28 26-62t-30-62q-18-20-36-38l-38-38q98-144 242-242 38 36 74 74 34 30 66 30 36 0 64-30zM820 86q20 20 0 40-32 34-64 66l-64 64q-4 4-9 7t-11 3q-12 0-20-12l-112-112-44 30q-76 56-141 120t-119 140l-30 44 62 62q14 12 26 25t26 25q18 20 2 36-34 38-67 71t-67 65q-12 8-16 8-12 0-20-12-4-4-8-7t-8-7q-16-18-34-34-22-22-31-49t-5-67q6-64 42-142 102-210 312-352 64-44 120-67t112-31h26q58 0 96 38 8 10 15 18t17 16zM716 886q10 10 22 10t22-10 10-23-10-23l-150-136h382q32 0 32-32t-32-32h-382l150-138q10-10 10-23t-10-23-22-10-22 10l-184 172q-18 20-18 46t18 46z" />
<glyph unicode="&#xe09e;" glyph-name="uniE02B1" d="M560 340q-20-20-46-20t-44 20l-204 202q-24 24 0 46 22 22 44 0l170-170v446q0 32 32 32t32-32v-450l174 174q22 22 46 0 10-10 10-23t-10-23zM960 256q26 0 45-19t19-45v-256q0-28-19-46t-45-18h-896q-28 0-46 18t-18 46v256q0 26 18 45t46 19h192q0-64 64-64h386q62 0 62 64h192zM960 192h-142q-34-64-112-64h-386q-80 0-114 64h-142v-256h896v256zM672 64q12 0 22-10t10-22q0-14-10-23t-22-9h-320q-32 0-32 32 0 12 9 22t23 10h320z" />
<glyph unicode="&#xe09f;" glyph-name="uniE02C1" horiz-adv-x="896" d="M144 320q-16 0-16 16v96q0 16 16 16h480q16 0 16-16v-96q0-16-16-16h-480zM144 576q-16 0-16 16v96q0 16 16 16h352q16 0 16-16v-96q0-16-16-16h-352zM880 192q16 0 16-16v-96q0-16-16-16h-736q-16 0-16 16v96q0 16 16 16h736zM0 832h64v-896h-64v896z" />
<glyph unicode="&#xe0a0;" glyph-name="uniE02D1" d="M512 896q106 0 199-40t163-110 110-163 40-199-40-199-110-163-163-110-199-40-200 40-163 110-109 163-40 199 40 199 109 163 163 110 200 40zM512-64q92 0 174 35t143 96 96 142 35 175q0 92-35 174t-96 143-143 96-174 35q-94 0-175-35t-142-96-96-143-35-174q0-94 35-175t96-142 142-96 175-35zM800 384q12 0 22-9t10-23-10-23-22-9h-352v288q0 32 32 32 12 0 22-9t10-23v-224h288z" />
<glyph unicode="&#xe0a1;" glyph-name="uniE02E1" horiz-adv-x="980" d="M416 878l44-174v-108q-78-12-130-74t-52-146 52-145 130-75v-106l-52-174-42 278-228-142 140 234-278 22 240 108-240 134h278l-140 230 234-140zM460 242q-44 12-76 53t-32 89q0 52 32 93t76 53v-288zM982 342h-74l38-104h-78l-34 104h-98l-22-42 48-34 36-76h-74l-52 36-22-34 50-86h102l36-60h-102l38-68-14-50-50 12-38 68-48-74-34 66 44 68-48 86h-76v74h64l90 148-90 150h-64v74h76l48 84-44 66 36 68 48-72 36 68 52 12 12-52-38-64h84l-36-68-84 6-50-88 20-34 54 36h76l-38-74-48-34 22-42h98l34 76h78l-38-76h74l38-36zM574 376l-62-72v144z" />
<glyph unicode="&#xe0a2;" glyph-name="uniE02F1" d="M896 64h64v-128q0-28-18-46t-46-18h-768q-26 0-45 18t-19 46v384h64v-384h768v128zM128 512h-64v256q0 26 19 45t45 19h128v64h64v-64h384v64h64v-64h128q28 0 46-19t18-45v-512h-64v384h-768v-128zM704 704h64v64h-64v-64zM256 704h64v64h-64v-64zM384 384h-384v64h576q14 0 23-10t9-22q0-8-20-33t-44-53q-28-34-62-72zM1024 192v-64h-192l-94-128-98 128h-128l-94-130q-38 40-66 74-24 28-44 54t-20 34q0 12 9 22t23 10h704z" />
<glyph unicode="&#xe0a3;" glyph-name="uniE0301" d="M832 352q0-14-10-23t-22-9h-352v288q0 32 32 32 12 0 22-9t10-23v-224h288q12 0 22-9t10-23zM64 384q0-84 29-160t81-135 122-98 152-51v-64q-96 12-178 56t-142 112-94 155-34 185q0 106 40 199t109 163 163 110 200 40q90 0 170-29t145-80 111-122 68-153h-66q-20 68-61 127t-97 102-125 67-145 24q-94 0-175-35t-142-96-96-143-35-174zM1008 258q-28-104-93-186t-157-134h114q14-2 23-11t7-23q0-12-10-21t-22-7l-168-2q-28 4-45 23t-17 47l16 168q0 30 32 30 14-2 23-12t7-22l-10-122q84 40 144 111t88 161h68z" />
<glyph unicode="&#xe0a4;" glyph-name="uniE0311" horiz-adv-x="660" d="M640-64h-64v-64h-128v64h-254v-64h-130v64h-64v886q0 30 21 52t51 22h496q30 0 51-22t21-52v-886zM576 796q0 16-11 26t-25 10h-440q-14 0-25-10t-11-26v-796h512v796zM192 704h258v-64h-258v64zM364 484h146v-36h-146v36z" />
<glyph unicode="&#xe0a5;" glyph-name="uniE0321" d="M960 768q22 0 36-10t20-22q8-14 8-32v-190h-64q-2 144-10 158-6 12-19 22t-35 10h-448l-64 64h-256q-24 0-37-10t-19-22q-8-14-8-32v-640q0-26 10-38t22-18q14-8 224-8v-64h-256q-18 0-32 8-12 6-22 19t-10 37v768q0 18 8 32 6 12 19 22t37 10h376l54-64h466zM960 384q28 0 46-18t18-46v-382q0-26-18-45t-46-19h-448q-26 0-45 19t-19 45v382q0 28 19 46t45 18h448z" />
<glyph unicode="&#xe0a6;" glyph-name="uniE0331" horiz-adv-x="992" d="M974 294q22-28 22-66 0-46-25-74t-85-38v-42h-36v40q-92 12-108 106l64 8q4-20 12-31t32-25v104q-58 16-78 45t-20 65q0 40 25 68t73 32v26h36v-26q48-4 71-27t29-59l-62-8q-6 26-38 40v-96q70-22 88-42zM850 432q-24-8-31-20t-7-22q0-14 6-23t32-21v86zM924 186q12 14 12 32 0 16-8 27t-42 21v-98q30 6 38 18zM832 0h64v-64q0-28-18-46t-46-18h-576q-28 0-46 18t-18 46v576l194 192h446q26 0 45-18t19-46v-64h-64v64h-382v-128q0-28-19-46t-47-18h-128v-512h576v64zM64 64h-64v768q0 28 19 46t45 18h576v-64h-576v-768zM606 256q32 0 32-32 0-12-9-22t-23-10h-254q-12 0-22 10t-10 22q0 14 10 23t22 9h254zM606 128q32 0 32-32 0-12-9-22t-23-10h-254q-12 0-22 10t-10 22q0 14 10 23t22 9h254z" />
<glyph unicode="&#xe0a7;" glyph-name="uniE0341" d="M1024 576v-448h-640v448h640zM960 512h-128v-126h128v126zM768 386v126h-126v-126h126zM642 322v-130h126v130h-126zM448 512v-126h130v126h-130zM448 192h130v130h-130v-130zM960 192v130h-128v-130h128zM768 64v-128q0-28-18-46t-46-18h-640q-28 0-46 18t-18 46v704l256 256h448q26 0 45-18t19-46v-192h-64v192h-384v-192q0-28-19-46t-47-18h-190v-640h640v128h64z" />
<glyph unicode="&#xe0a8;" glyph-name="uniE0351" horiz-adv-x="500" d="M148 236q-6 28-18 50l300 92q24 6 24 32 0 16-9 29t-25 13q-4 0-6-1t-6-1l-372-112q-4-4-10-5t-10-9l-4-16q-2-2-2-8 0-18 7-26t15-10 13-1-1 1q16 0 29-32t13-80h72q0 40-10 84zM48 412q-28 0-36 26-4 18 3 31t21 17l372 112q14 4 28-3t18-23-3-29-21-17l-372-112q-6-2-10-2zM48 560q-28 0-36 28-4 16 3 29t21 17l372 112q14 4 28-3t18-22-3-29-21-18l-372-112q-6-2-10-2zM48 710q-28 0-36 28-4 14 3 27t21 17l372 112q14 4 28-3t18-21-3-29-21-19l-372-110q-6-2-10-2zM390 184q12 44 28 44t27 11 11 26-11 25-27 10q-74 0-100-100-6-22-8-48h76zM130-84q44-44 110-44 64 0 108 44l20 20h-256zM354 96h-230q-28 0-28-32v-64q0-32 28-32h230q12 0 21 9t9 23v64q0 14-9 23t-21 9zM268 0q-28 0-28 32t28 32 28-32-28-32z" />
<glyph unicode="&#xe0a9;" glyph-name="uniE0361" horiz-adv-x="768" d="M640 640q0-54-20-100t-55-81-82-55-99-20q-54 0-100 20t-81 55-55 81-20 100q0 52 20 99t55 82 81 55 100 20q52 0 99-20t82-55 55-82 20-99zM384 448q80 0 136 56t56 136-56 136-136 56-136-56-56-136 56-136 136-56zM512 384q52 0 99-20t82-55 55-82 20-99v-256h-768v256q0 52 20 99t55 82 81 55 100 20h256zM704 128q0 80-56 136t-136 56h-256q-80 0-136-56t-56-136v-192h640v192zM448 128h192v-64h-192v64z" />
<glyph unicode="&#xe0aa;" glyph-name="uniE0371" horiz-adv-x="1026" d="M960 704q28 0 46-18t18-46v-640q0-26-18-45t-46-19h-896q-26 0-45 19t-19 45v640q0 28 19 46t45 18h896zM128 640l384-320 384 320h-768zM960 608l-448-352-448 352v-576l266 272 38-36-272-268h832l-270 268 34 36 268-272v576z" />
<glyph unicode="&#xe0ab;" glyph-name="uniE0381" horiz-adv-x="896" d="M886 688q10-14 10-24 0-12-10-22l-650-652q-8-8-16-8l-220-46 44 220q0 10 8 18l652 650q8 8 22 8t22-8zM644 490l-92 90-448-446 92-92zM818 666l-92 88-128-128 90-90z" />
<glyph unicode="&#xe0ac;" glyph-name="uniE0391" d="M64 128h192v-64h-192q-28 0-46 18t-18 46v704q0 26 18 45t46 19h512q26 0 45-19t19-45v-64h-64v64h-512v-704zM960 704q26 0 45-19t19-45v-704q0-28-19-46t-45-18h-512q-28 0-46 18t-18 46v128h64v-128h512v704h-512v-130h-64v130q0 26 18 45t46 19h512zM750 336q18-20 18-46t-18-46l-184-172q-10-10-22-10t-22 10-10 23 10 23l150 138h-382q-32 0-32 32t32 32h382l-150 136q-10 10-10 23t10 23 22 10 22-10z" />
<glyph unicode="&#xe0ad;" glyph-name="uniE03A1" d="M960 0q26 0 45-19t19-45q0-28-19-46t-45-18h-896q-28 0-46 18t-18 46q0 26 18 45t46 19h896zM560 148q-20-20-46-20t-44 20l-204 202q-24 24 0 46 22 22 44 0l170-170v638q0 32 32 32t32-32v-642l174 174q22 22 46 0 22-22 0-46z" />
<glyph unicode="&#xe0ae;" glyph-name="uniE03B1" horiz-adv-x="982" d="M1020 606l-110-440h-74l-106 330-110-330h-74l-110 440h74l74-330 108 330h72l110-330 72 330h74zM768 32v-96q0-28-18-46t-46-18h-640q-28 0-46 18t-18 46v704l256 256h448q26 0 45-18t19-46v-128h-64v128h-384v-192q0-28-19-46t-47-18h-190v-640h640v96h64z" />
<glyph unicode="&#xe0af;" glyph-name="uniE03C1" horiz-adv-x="896" d="M736 640q-32 0-32 32t32 32 32-32-32-32zM608 640q-32 0-32 32t32 32 32-32-32-32zM896-2q0-26-19-45t-45-19h-768q-28 0-46 19t-18 45v768q0 28 18 46t46 18h768q26 0 45-18t19-46v-768zM830 512h-768v-512h768v512zM830 768h-768v-194h768v194zM138 62q-10 36-10 64 0 40 15 75t41 62 61 42 75 15 75-15 61-42 41-62 15-75q0-16-4-32l-8-32h-70q8 16 13 32t5 32q0 54-38 92t-90 38q-54 0-91-38t-37-92q0-32 16-64h-70zM608 256q66 0 113-47t47-115q0-8-1-15t-3-17h-66l4 16t2 16q0 40-28 69t-68 29q-20 0-40-10-6 30-22 60 32 14 62 14zM566 352q-12-12-22 0-12 10 0 22l68 68q10 10 22 0 10-12 0-22zM438 352q-12-12-22 0-12 10 0 22l68 68q10 10 22 0 10-12 0-22zM672 324q-10-10-24 0-12 10 0 22l92 92q10 10 22 0 10-10 0-24z" />
<glyph unicode="&#xe0b0;" glyph-name="uniE03D1" horiz-adv-x="896" d="M896 832v-64h-896v64h290q-2 0 14 32t80 32h130q62 0 78-32l16-32h288zM804 704h92v-66h-64l-64-702q0-64-64-64h-512q-64 0-64 64l-64 702h-64v66h804zM768 638h-640l64-702h512zM338 68l-62-6-40 448 62 6zM480 64h-68v450h68v-450zM620 62l-66 6 40 448 66-6z" />
<glyph unicode="&#xe0b1;" glyph-name="uniE03E1" horiz-adv-x="704" d="M688 678q10-10 10-23t-10-23l-248-248 248-250q22-22 0-44l-44-46q-24-22-46 0l-250 250-248-250q-10-10-23-10t-23 10l-44 46q-10 10-10 22t10 22l248 250-248 248q-10 10-10 23t10 23l44 46q24 22 46 0l248-250 250 250q22 22 46 0l44-46z" />
<glyph unicode="&#xe0b2;" glyph-name="uniE03F1" horiz-adv-x="960" d="M832 256h64v-256q0-28-19-46t-45-18h-768q-28 0-46 18t-18 46v768q0 26 18 45t46 19h256v-64h-256v-768h768v256zM952 846q14-14 4-32l-370-544q-6-12-20-14t-24 8l-250 278q-18 18 0 36l42 42q20 20 38 0l160-160q10-10 23-8t19 16l292 414q6 12 19 14t23-8z" />
<glyph unicode="&#xe0b3;" glyph-name="uniE0401" d="M1024 638q0-110-21-181t-54-113-74-62-80-30-71-17-48-23q-10-20-20-41t-20-43q24 0 58-30t64-66q36-42 72-96h-638q36 54 72 96 30 36 64 65t62 31q-10 22-20 43t-20 41q-16 16-49 22t-71 17-79 31-75 62-55 112-21 182q0 32 18 48t48 16h126v64q0 32 18 48t48 16h510q64 0 64-64v-64h128q64 0 64-64zM830 640q-2-78-8-127t-14-80-19-52-23-43q32 8 66 18t63 38 47 85 18 159h-40q-18 0-41 1t-49 1zM64 638q0-102 19-159t47-85 63-38 67-18q-12 22-23 43t-20 52-15 80-8 127q-52 0-90-1t-40-1zM684 0q-14 18-30 32-16 12-35 22t-43 10h-128q-22 0-42-10t-36-22q-18-14-32-32h346zM570 128q22 58 46 106t44 66q20 20 39 37t34 60 25 128 10 241h-512q0-156 10-241t26-128 35-60 39-37q20-18 44-66t46-106h114z" />
<glyph unicode="&#xe0b4;" glyph-name="uniE0411" d="M254 66q6 6 6-4v-190h-196q-2 0-2 2v6l52 52-60 60q-56 56-56 126 0 72 56 124l62 60 10-8q-42-52-42-114 0-56 34-94l80-76zM972 776q56-54 56-126 0-74-56-124l-62-60-10 8q44 50 44 114 0 60-36 94l-80 76-50-50q-6-4-6 4v184h188q12 0 4-8l-52-52zM708 512h-384v192h384v-192zM388 448q28 0 46-18t18-46-18-46-46-18-46 18-18 46 18 46 46 18zM644 448q28 0 46-18t18-46-18-46-46-18q-26 0-45 18t-19 46 19 46 45 18zM388 256q28 0 46-18t18-46-18-46-46-18-46 18-18 46 18 46 46 18zM644 256q28 0 46-18t18-46-18-46-46-18q-26 0-45 18t-19 46 19 46 45 18zM708 768h-448v-640h-64v640q0 28 19 46t45 18h448v-64zM772 640h64v-640q0-28-18-46t-46-18h-448v64h448v640z" />
<glyph unicode="&#xe0b5;" glyph-name="uniE0421" horiz-adv-x="1140" d="M1042 762q32 0 56-23t24-55v-658q0-34-24-62t-56-28h-960q-34 0-58 28t-24 62v658q0 32 24 55t58 23h960zM960 594h-64q-12-38-48-64-34-28-64-36v-70q58 18 100 58v-290h76v402zM144 424q60 18 100 58v-290h76v402h-62q-12-38-47-64t-67-36v-70zM522 192l52 82 52-82h86l-96 136 88 124h-82l-48-70-46 70h-84l90-126-94-134h82zM882 22v82h-320v-82h320z" />
<glyph unicode="&#xe0b6;" glyph-name="uniE0431" d="M410 256q-36 0-54-28-10-16-20-33t-15-32 0-25 25-10h518q12 0 22-9t10-23q0-12-10-22t-22-10h-598q-34 0-41 17t2 42 28 57 35 62l12 22q10 14 4 28l-144 354q-18 44-33 83t-49 39h-48q-14 0-23 10t-9 22q0 32 32 32h96q20 0 39-30t36-66 30-66 23-30h712q30 0 46-23t6-51l-110-278q-14-32-48-32h-452zM344 380q10-28 24-44t58-16h370q44 0 57 15t23 39l48 114q20 64 2 76t-62 12h-498q-34 0-51-2t-22-10-2-25 13-47zM256 0q26 0 45-18t19-46q0-26-19-45t-45-19q-28 0-46 19t-18 45q0 28 18 46t46 18zM832 0q26 0 45-18t19-46q0-26-19-45t-45-19q-28 0-46 19t-18 45q0 28 18 46t46 18z" />
<glyph unicode="&#xe0b7;" glyph-name="uniE0441" d="M786 704q0 46 32 78t78 32 78-32 32-78-32-78-78-32-78 32-32 78zM1024 46l-292 446-156-218 156-228h292zM732-64h-732l346 556z" />
</font>
</defs>
</svg>
