<?xml version="1.0" standalone="no"?>
<!DOCTYPE svg PUBLIC "-//W3C//DTD SVG 1.1//EN" "http://www.w3.org/Graphics/SVG/1.1/DTD/svg11.dtd" >
<!--
2013-9-30: Created.
-->
<svg>
<metadata>
Created by iconfont
</metadata>
<defs>

<font id="iconfont" horiz-adv-x="1024" >
  <font-face
    font-family="iconfont"
    font-weight="500"
    font-stretch="normal"
    units-per-em="1024"
    ascent="896"
    descent="-128"
  />
    <missing-glyph />
    
    <glyph glyph-name="shezhifasongxiaoxi" unicode="&#58981;" d="M785.281083 547.968445c-75.463716 0-136.641053 61.176314-136.641053 136.641053S709.817368 821.250552 785.281083 821.250552s136.641053-61.176314 136.641053-136.641053S860.745822 547.968445 785.281083 547.968445zM156.733671 602.625276l0-491.906359c0-60.370972 48.941666-109.312638 109.312638-109.312638l437.250552 0c60.370972 0 109.312638 48.941666 109.312638 109.312638L812.609499 438.656831l54.655807 0 0-355.266329c0-75.463716-61.177338-136.641053-136.641053-136.641053L238.718917-53.25055199999997c-75.463716 0-136.641053 61.176314-136.641053 136.641053L102.077863 629.9536909999999c0 75.463716 61.176314 136.641053 136.641053 136.641053l300.609499 0 0-54.655807L266.046309 711.938937C205.676359 711.937914 156.733671 662.996249 156.733671 602.625276z"  horiz-adv-x="1024" />

    
    <glyph glyph-name="dengjiguanli" unicode="&#58891;" d="M803.917-54.45399999999995h-583.829c-80.606 0-145.959 65.352-145.959 145.955v583.829c0 80.606 65.353 145.959 145.959 145.959h583.829c80.602 0 145.955-65.353 145.955-145.959v-583.829c0-80.603-65.353-145.955-145.955-145.955v0zM329.555 492.887h-72.978v-328.404h72.978v328.404zM767.428 200.971h-72.983v36.488h72.983v72.978h-72.983v36.488h72.983v72.982h-72.983v36.488h72.983v72.978h-145.959l36.488 72.977v72.978l-109.466 36.493v-72.983l-72.983-72.978-109.467-72.977v-328.404l109.467-36.493h291.919v72.981h-0.001zM767.428 200.971z"  horiz-adv-x="1024" />

    
    <glyph glyph-name="jieshushililiebiao" unicode="&#59111;" d="M512.662511-60.964969999999994c-246.880215 0-447.014924 200.134709-447.014924 447.009727 0 190.5612 119.443417 352.819588 287.36017 417.128987l0-69.157311C221.205719 673.4395039999999 129.50689 540.6179569999999 129.50689 386.044758c0-211.594139 171.560282-383.154621 383.15562-383.154621 211.596338 0 383.150624 171.559283 383.150624 383.154621 0 154.573199-91.702825 287.394746-223.505863 348.002254L672.307272 803.1737439999999C840.224824 738.8643460000001 959.667242 576.600961 959.667242 386.044758 959.672238 139.169539 759.538529-60.964969999999994 512.662511-60.964969999999994L512.662511-60.964969999999994 512.662511-60.964969999999994zM480.732359 833.059682l63.854107 0 0-448.160947-63.854107 0L480.732359 833.059682 480.732359 833.059682 480.732359 833.059682z"  horiz-adv-x="1024" />

    
    <glyph glyph-name="lanmushezhi" unicode="&#58941;" d="M236.325 839.548c48.062 0 93.214-18.723 127.186-52.695 33.972-33.972 52.695-79.15 52.695-127.179l0-179.881L236.325 479.793c-48.054 0-93.206 18.696-127.18 52.695-33.972 33.973-52.694 79.158-52.694 127.186 0 48.029 18.69 93.207 52.694 127.179C143.119 820.859 188.297 839.548 236.325 839.548L236.325 839.548zM236.441 896C105.874 896 0 790.153 0 659.559c0-130.571 105.847-236.444 236.441-236.444l183.152 0c29.418 0 53.259 23.872 53.259 53.292L472.852 659.559C472.885 790.153 367.038 896 236.441 896L236.441 896 236.441 896 236.441 896M236.983 285.091L236.983 285.091l176.092 0 0-176.092c0-47.034-18.32-91.249-51.583-124.51-33.261-33.261-77.479-51.583-124.509-51.583-47.034 0-91.249 18.322-124.51 51.583C79.212 17.75 60.89 61.964000000000055 60.89 108.99800000000005c0 47.031 18.322 91.249 51.583 124.509C145.734 266.76800000000003 189.948 285.091 236.983 285.091L236.983 285.091zM236.441 344.90099999999995C105.874 344.90099999999995 0 239.05399999999997 0 108.45600000000002c0-130.565 105.847-236.44 236.441-236.44 130.57 0 236.444 105.847 236.444 236.44L472.885 291.60900000000004c0 29.42-23.873 53.292-53.292 53.292L236.441 344.90099999999995 236.441 344.90099999999995 236.441 344.90099999999995 236.441 344.90099999999995M789.904 840.461c47.685 0 92.53-18.582 126.241-52.299 33.718-33.712 52.301-78.555 52.301-126.242 0-47.686-18.582-92.529-52.301-126.247-33.711-33.717-78.554-52.293-126.241-52.293l-178.54 0L611.364 661.92c0 47.687 18.576 92.53 52.294 126.242C697.376 821.879 742.217 840.461 789.904 840.461L789.904 840.461zM787.572 896C657 896 551.13 790.153 551.13 659.559l0-183.152c0-29.42 23.841-53.26 53.287-53.26l183.154 0c130.565 0 236.44 105.842 236.44 236.441C1024.011 790.153 918.137 896 787.572 896L787.572 896 787.572 896 787.572 896M787.512 285.86199999999997L787.512 285.86199999999997c47.378 0 91.905-18.467 125.421-51.957 33.49-33.488 51.957-78.045 51.957-125.416 0-47.377-18.44-91.932-51.957-125.421-33.488-33.489-78.045-51.957-125.421-51.957-47.372 0-91.899 18.44-125.416 51.957-33.49 33.517-51.957 78.045-51.957 125.421L610.139 285.86199999999997 787.512 285.86199999999997 787.512 285.86199999999997zM787.572 344.90099999999995L604.418 344.90099999999995c-29.42 0-53.287-23.846-53.287-53.292l0-183.153c0-130.565 105.842-236.44 236.441-236.44 130.565 0 236.44 105.847 236.44 236.44C1024.011 239.02700000000004 918.137 344.90099999999995 787.572 344.90099999999995L787.572 344.90099999999995 787.572 344.90099999999995 787.572 344.90099999999995M787.572 344.90099999999995L787.572 344.90099999999995zM236.325 839.548c48.062 0 93.214-18.723 127.186-52.695 33.972-33.972 52.695-79.15 52.695-127.179l0-179.881L236.325 479.793c-48.054 0-93.206 18.696-127.18 52.695-33.972 33.973-52.694 79.158-52.694 127.186 0 48.029 18.69 93.207 52.694 127.179C143.119 820.859 188.297 839.548 236.325 839.548L236.325 839.548zM236.441 896C105.874 896 0 790.153 0 659.559c0-130.571 105.847-236.444 236.441-236.444l183.152 0c29.418 0 53.259 23.872 53.259 53.292L472.852 659.559C472.885 790.153 367.038 896 236.441 896L236.441 896 236.441 896 236.441 896M236.983 285.091L236.983 285.091l176.092 0 0-176.092c0-47.034-18.32-91.249-51.583-124.51-33.261-33.261-77.479-51.583-124.509-51.583-47.034 0-91.249 18.322-124.51 51.583C79.212 17.75 60.89 61.964000000000055 60.89 108.99800000000005c0 47.031 18.322 91.249 51.583 124.509C145.734 266.76800000000003 189.948 285.091 236.983 285.091L236.983 285.091zM236.441 344.90099999999995C105.874 344.90099999999995 0 239.05399999999997 0 108.45600000000002c0-130.565 105.847-236.44 236.441-236.44 130.57 0 236.444 105.847 236.444 236.44L472.885 291.60900000000004c0 29.42-23.873 53.292-53.292 53.292L236.441 344.90099999999995 236.441 344.90099999999995 236.441 344.90099999999995 236.441 344.90099999999995M789.904 840.461c47.685 0 92.53-18.582 126.241-52.299 33.718-33.712 52.301-78.555 52.301-126.242 0-47.686-18.582-92.529-52.301-126.247-33.711-33.717-78.554-52.293-126.241-52.293l-178.54 0L611.364 661.92c0 47.687 18.576 92.53 52.294 126.242C697.376 821.879 742.217 840.461 789.904 840.461L789.904 840.461zM787.572 896C657 896 551.13 790.153 551.13 659.559l0-183.152c0-29.42 23.841-53.26 53.287-53.26l183.154 0c130.565 0 236.44 105.842 236.44 236.441C1024.011 790.153 918.137 896 787.572 896L787.572 896 787.572 896 787.572 896M787.512 285.86199999999997L787.512 285.86199999999997c47.378 0 91.905-18.467 125.421-51.957 33.49-33.488 51.957-78.045 51.957-125.416 0-47.377-18.44-91.932-51.957-125.421-33.488-33.489-78.045-51.957-125.421-51.957-47.372 0-91.899 18.44-125.416 51.957-33.49 33.517-51.957 78.045-51.957 125.421L610.139 285.86199999999997 787.512 285.86199999999997 787.512 285.86199999999997zM787.572 344.90099999999995L604.418 344.90099999999995c-29.42 0-53.287-23.846-53.287-53.292l0-183.153c0-130.565 105.842-236.44 236.441-236.44 130.565 0 236.44 105.847 236.44 236.44C1024.011 239.02700000000004 918.137 344.90099999999995 787.572 344.90099999999995L787.572 344.90099999999995 787.572 344.90099999999995 787.572 344.90099999999995M787.572 344.90099999999995L787.572 344.90099999999995z"  horiz-adv-x="1025" />

    
    <glyph glyph-name="anquan" unicode="&#58921;" d="M361.719036 883.77421c43.170144 5.330608 86.447802 10.366323 129.949701 11.843862 85.510901 0.649175 171.476429-7.759383 254.261614-29.86615 34.010017-8.617441 66.76981-21.360318 100.095838-32.22325 35.201878-10.887506 68.754196-26.251658 102.204121-41.550278 11.446575-6.32485 24.040981-11.112772 33.679286-20.271875 13.887637-12.761308 23.04674-30.329993 27.058519-48.624649 0.376808-81.885145 0-163.793841 0.1925-245.702537 0.435173-9.243066-0.833483-18.837341-5.789331-26.829158-7.699995-13.655204-23.581234-21.754533-39.154269-20.712167-21.649068 0.017407-41.377233 19.360572-40.79359 41.215451 0.165878 81.427446-0.209907 162.852844 0.185332 244.28541-16.675813 9.219515-34.844525 15.317051-51.93708 23.708202-76.121412 28.329223-153.301574 56.099378-234.192478 67.067775-51.661641 7.222841-104.009319 10.92744-156.171665 8.491497-26.4759-1.309613-52.786946-4.643547-79.096969-7.789077-18.19431-1.535903-36.035362-5.616286-53.872318-9.302454-65.174518-14.029964-130.217972-30.82353-191.355113-57.84314-16.839643-8.681949-34.493315-15.591466-51.745604-23.375423-1.749906-89.382401-0.540638-178.806783 1.452964-268.184064 1.958789-45.02142 2.626395-90.215884 8.533478-134.962889 1.291183-12.78793 6.872655-24.484345 11.243836-36.413194 17.173446-46.498959 49.51752-85.154571 81.760225-121.993722 52.89446-56.700428 116.753221-102.079201 183.613136-140.795226 34.760562-20.54629 70.998663-38.44673 107.636099-55.349857 6.764118-1.916807 14.071945-0.83246 21.02242-0.766928 71.93966 28.12034 138.793432 67.687256 202.299959 111.340698 14.321786 9.717148 28.771563 19.586862 40.883696 32.073755 16.360441 11.865364 29.120725 27.814184 44.669186 40.716795 43.606341 44.045609 79.492208 96.873513 98.496451 156.235149 6.555235 20.773603 30.70373 32.559101 51.351389 26.771817 16.196612-3.8715 29.186257-18.31923 31.015006-34.886506 2.10214-13.198528-4.204279-25.560502-8.509928-37.61427-23.584306-61.863111-61.823177-117.395228-107.720062-164.817776-16.049165-14.525549-31.582266-29.615286-47.296604-44.498189-8.903119-6.039172-16.317436-13.887637-24.769-20.485877-19.64625-14.56753-39.296596-29.14018-59.926849-42.335637-22.623855-15.157317-46.647429-28.103957-69.479143-42.962285-36.011811-19.296064-71.850577-39.174748-109.839608-54.389405-11.326774-4.12134-22.147725-10.867027-34.535296-10.92744-12.528875-0.023551-25.082324 0-37.612222 0-14.090376-0.166901-26.310022 7.716378-38.823538 13.113542-75.827543 34.986852-148.70308 76.891412-215.14011 127.616152-33.515457 25.791911-65.675222 53.58152-94.229712 84.820768-34.766706 40.423949-69.069569 82.492339-90.775977 131.636123-9.390512 22.273669-20.046609 44.54529-22.439546 68.936457-10.093956 78.039244-10.075525 156.929377-12.113157 235.443727-0.458723 18.650985 0.394215 37.344975-0.483298 55.996984-0.541662 44.456207 0.400359 88.902175 0.417766 133.339952 1.101755 18.942807 9.117122 37.947049 24.165902 49.976243 6.390381 4.829904 12.240125 10.677599 19.862301 13.614246 20.979414 10.552679 42.753403 19.359548 64.06662 29.203664C199.984329 848.452531 280.851682 867.705591 361.719036 883.77421L361.719036 883.77421zM361.719036 883.77421M792.887008 619.734013c18.56907 18.377594 52.745989 14.548075 67.669849-6.617695 11.387187-15.65495 8.681949-38.92286-4.764372-52.519699C740.557761 447.673941 625.513489 334.5475 510.236783 221.641205c-12.988622-13.93781-35.261267-17.04443-52.161322-8.868305-9.326004 4.396779-15.256639 13.224127-22.981208 19.694375-59.260267 58.325413-118.437594 116.771651-177.842236 174.971121-8.868305 7.659037-15.674405 18.503538-15.490096 30.580857-1.542047 20.003604 13.697185 39.799349 33.39156 43.563336 13.691041 3.245876 28.82276-1.351595 38.964841-11.011402 54.347424-53.763781 108.588359-107.612548 163.001315-161.316941C582.588065 412.53657 687.477969 516.41073 792.887008 619.734013L792.887008 619.734013zM792.887008 619.734013"  horiz-adv-x="1024" />

    
    <glyph glyph-name="liuchengdailishezhi" unicode="&#59125;" d="M505.31328 62.04927999999995c-44.78464 0-87.64416 10.39872-127.4368 30.94016l-9.088 4.72064-6.03648-8.24832c-8.97536-12.30848-19.456-23.38304-31.16032-32.93184l-13.20448-10.8288 14.86848-8.3712c52.18816-29.54752 111.67232-45.16864 172.032-45.16864 2.53952 0 5.07904 0.07168 7.61344 0.11776L512.90112 62.259199999999964C510.37696 62.18751999999995 507.85792 62.04927999999995 505.31328 62.04927999999995zM701.568 616.83712l-13.71136 9.30816-4.46976-15.83616c-4.0192-14.31552-9.91232-28.08832-17.4592-40.96l-5.31968-9.06752 8.54016-6.23616c29.33248-21.44256 53.62176-47.89248 72.00768-77.85984l79.67232 0C795.02848 532.21376 754.1248 581.08416 701.568 616.83712zM217.38496 369.88928l14.208-0.34816 1.67936 10.04032c12.16 72.50432 54.43584 138.07616 115.98848 179.87584l8.73984 5.94432-4.992 9.25184c-7.11168 13.14816-12.50816 27.15648-16.03584 41.69216l-3.9168 15.97952-14.02368-8.85248c-87.23968-55.05536-144.67584-144.56832-157.568-245.55008l-2.13504-16.82944 16.67584 3.94752C189.60896 368.24064 203.5968 369.88928 217.38496 369.88928zM197.10464 32.281600000000026c-84.71552 1.99168-153.856 71.78752-153.856 155.59168 0 85.71904 70.6816 155.45856 157.54752 155.47904 86.90176 0 157.60384-69.77024 157.60384-155.54048 0-85.76-70.7072-155.53024-157.60384-155.53024L197.10464 32.281600000000026zM200.80128 281.55904c-52.16768 0-94.61248-42.01984-94.61248-93.6704 0-51.6608 42.43968-93.68064 94.61248-93.68064 52.17792 0 94.62784 42.01984 94.62784 93.68064C295.42912 239.53920000000005 252.9792 281.55904 200.80128 281.55904zM512.27648 501.82656C427.47904 503.808 358.4 573.59872 358.4 657.40288c0 85.7344 70.68672 155.48416 157.54752 155.48416 86.90176 0 157.58336-69.76 157.58336-155.50464 0-85.77536-70.69184-155.55584-157.58336-155.55584L512.27648 501.82656zM515.94752 751.0784c-52.16256 0-94.592-42.01472-94.592-93.66016 0-51.6608 42.42944-93.696 94.592-93.696 52.17792 0 94.62784 42.03008 94.62784 93.696C610.58048 709.06368 568.13056 751.0784 515.94752 751.0784zM793.628-47.738000000000056l0 170.28 134.56 0L928.188 400.906 587.018 400.906l0-412.914 152.5 0 0-44.56-43.62-0.03-2.78-0.04-0.36 0.1-150.29-0.03L542.468 445.461l430.269 0 0-343.129c0-1.16-0.1-2.63-0.19-4.08l-0.02-6.88-0.5-1.63-0.39-1.01-1.38-10.75-2.52 0c-23.77-64.26-76.34-114.09-141.76-133.96l-1.15-0.35c0 0-4.61-0.09-6.17-0.09-2.58 0-4.9 0.04-7.07 0.09l-5.15 0.07-1.72-0.03-10.33-3.44L793.628-47.738000000000056zM838.178-3.288000000000011c35.4 17.16 64.17 45.93 81.32 81.27l-81.32 0L838.178-3.288000000000011zM632.178 203.562l0 44.55 250.859 0 0-44.55L632.178 203.562zM632.178 284.28200000000004l0 44.56 250.859 0 0-44.56L632.178 284.28200000000004z"  horiz-adv-x="1024" />

    
    <glyph glyph-name="liuchengchaosongtongzhi" unicode="&#59128;" d="M890.08128 373.42208000000005M707.33824 458.15296l195.89632 0c30.48448 0 55.61344 25.07264 55.61344 56.00768L958.848 793.0368c0 30.96064-24.89856 56.00768-55.61344 56.00768l-195.89632 0c-30.47936 0-55.61856-25.07264-55.61856-56.00768l0-111.51872-139.60192 0 0-41.87648 0-209.408L400.44032 430.2336 400.44032 597.89312c0 30.78144-25.10848 55.7056-56.07936 55.7056L121.472 653.59872c-30.8992 0-56.08448-24.93952-56.08448-55.7056l0-391.16288c0-30.78144 25.10848-55.70048 56.08448-55.70048l222.88896 0c30.8992 0 56.07936 24.93952 56.07936 55.70048l0 167.65952 111.68256 0 0-90.95168 55.83872 23.69024L567.9616 625.67936l83.75808 0 0-111.51872C651.71968 483.2 676.62848 458.15296 707.33824 458.15296zM903.11168 793.20064c-0.08704 0-0.1024-0.0256-0.1024-0.16384l0-278.87616c0-0.06144-0.1024-0.16384 0.22528-0.16384l-195.7632 0c0.08192 0 0.1024 0.0256 0.1024 0.16384L707.57376 793.0368c0 0.06144 0.10752 0.16384-0.2304 0.16384L903.11168 793.20064zM344.59648 206.73023999999998c0 0.19968-0.06144 0.13824-0.23552 0.13824L121.472 206.86847999999998c-0.22016 0-0.23552 0.01024-0.23552-0.13824L121.23648 597.89312c0-0.19456 0.05632-0.13824 0.23552-0.13824l222.88896 0c0.22016 0 0.23552-0.01024 0.23552 0.13824L344.59648 206.73023999999998zM890.08128 373.42208000000005M786.16064-101.23775999999998c-9.86112-0.51712-16.46592 6.272-18.7904 13.23008l-101.13536 190.7968-195.47136 75.3664-0.2048 0.1024c-1.53088 0.67072-15.01184 6.93248-15.68256 19.98848-0.67584 13.06112 12.09344 20.67968 13.54752 21.504l0.51712 0.29696 486.99904 203.33568-144.6912-502.0672-0.12288-0.34816c-0.68096-1.82784-7.01952-18.048-20.72576-21.53984C788.98176-100.96127999999999 787.54816-101.18143999999995 786.16064-101.23775999999998zM778.624-15.104000000000042l101.66272 317.78304-169.75872-185.85088L778.624-15.104000000000042zM676.736 145.79200000000003l167.27552 184.67328-302.37696-128.93696L676.736 145.79200000000003z"  horiz-adv-x="1024" />

    
    <glyph glyph-name="fasongxiaoxiliebiao" unicode="&#58884;" d="M899.65056-83.48671999999999c-120.35072 0-218.2656 97.95584-218.2656 218.35776s97.91488 218.35776 218.2656 218.35776 218.2656-97.95584 218.2656-218.35776S1020.00128-83.48671999999999 899.65056-83.48671999999999M899.65056 397.74208c-144.88576 0-262.76352-117.92384-262.76352-262.87104S754.75968-128 899.65056-128s262.76352 117.92384 262.76352 262.87104S1045.53984 397.74208 899.65056 397.74208M586.60864 33.29024000000004L130.58048 33.29024000000004c-17.21344 0-31.21152 14.53568-31.21152 32.41472L99.36896 783.33952c0 17.86368 14.0032 32.39936 31.21152 32.39936l926.38208 0c17.21344 0 31.2064-14.53568 31.2064-32.39936l0-377.84576c0-12.29824 9.6-22.25664 21.43744-22.25664 11.83232 0 21.43744 9.9584 21.43744 22.25664L1131.04384 783.33952c0 42.40896-33.23392 76.91264-74.08128 76.91264L130.58048 860.25216c-40.84736 0-74.0864-34.50368-74.0864-76.91264l0-717.63456c0-42.41408 33.23904-76.928 74.0864-76.928l456.02816 0c11.83744 0 21.43744 9.96352 21.43744 22.25664S598.44608 33.29024000000004 586.60864 33.29024000000004M1042.52928 800.1638399999999l-448.768-343.95648c-0.87552-0.24064-2.25792-0.24576-3.10272-0.03072l-445.5936 343.936c-8.63232 8.74496-22.72256 8.832-31.4624 0.18944-8.74496-8.6272-8.82688-22.72768-0.19456-31.47264l447.42144-345.7792c0.7168-0.73216 1.48992-1.41312 2.30912-2.03264 8.28416-6.33856 18.6624-9.51296 29.05088-9.51296 10.37824 0 20.76672 3.1744 29.05088 9.50784 0.79872 0.60928 1.55136 1.26976 2.25792 1.98144l450.5856 345.7792c8.66304 8.71936 8.6272 22.8096-0.08704 31.47776C1065.27232 808.91392 1051.17696 808.88832 1042.52928 800.1638399999999M779.74016 112.61440000000005l186.10176 0-44.78976-44.8c-8.68864-8.69376-8.68864-22.784 0-31.47776 8.68352-8.69376 22.76864-8.69376 31.4624-0.00512l82.7648 82.79552c0.16384 0.16384 0.27136 0.36352 0.43008 0.52736 0.83456 0.88576 1.63328 1.81248 2.31424 2.82112 0.26624 0.39936 0.44544 0.83968 0.68096 1.2544 0.49152 0.83968 0.9984 1.67424 1.37216 2.57536 0.20992 0.50176 0.31232 1.03424 0.48128 1.55136 0.28672 0.86528 0.60928 1.70496 0.7936 2.60608 0.29184 1.43872 0.44544 2.91328 0.44544 4.40832l0 0 0 0c0 0.05632-0.02048 0.11264-0.02048 0.17408-0.01024 1.42848-0.14848 2.8416-0.42496 4.224-0.20992 1.024-0.55808 1.99168-0.896 2.95936-0.13824 0.39424-0.21504 0.80896-0.37376 1.19296-0.44544 1.07008-1.024 2.05824-1.62304 3.03104-0.1536 0.26112-0.26112 0.54272-0.42496 0.78848-0.81408 1.21344-1.7408 2.3552-2.76992 3.38432l-82.75456 98.23232c-4.34688 4.34176-10.0352 6.51776-15.73376 6.51776-5.68832 0-11.392-2.176-15.73376-6.51776-8.68864-8.69376-8.68864-38.23616 0-46.92992l44.78976-44.8-186.10176 0c-12.288 0-22.2464-9.96352-22.2464-22.25664S767.45216 112.61440000000005 779.74016 112.61440000000005"  horiz-adv-x="1235" />

    
    <glyph glyph-name="message" unicode="&#58897;" d="M903.529412 853.835294H120.470588c-66.258824 0-120.470588-54.211765-120.470588-120.470588v-542.117647c0-66.258824 54.211765-120.470588 120.470588-120.470588h123.482353c-3.011765-33.129412-3.011765-180.705882-3.011765-180.705883l180.705883 180.705883h481.882353c66.258824 0 120.470588 54.211765 120.470588 120.470588v542.117647c0 66.258824-54.211765 120.470588-120.470588 120.470588z m-692.705883-451.764706c-51.2 0-90.352941 39.152941-90.352941 90.352941s39.152941 90.352941 90.352941 90.352942 90.352941-39.152941 90.352942-90.352942-39.152941-90.352941-90.352942-90.352941z m301.176471 0c-51.2 0-90.352941 39.152941-90.352941 90.352941s39.152941 90.352941 90.352941 90.352942 90.352941-39.152941 90.352941-90.352942-39.152941-90.352941-90.352941-90.352941z m301.176471 0c-51.2 0-90.352941 39.152941-90.352942 90.352941s39.152941 90.352941 90.352942 90.352942 90.352941-39.152941 90.352941-90.352942-39.152941-90.352941-90.352941-90.352941z"  horiz-adv-x="1024" />

    
    <glyph glyph-name="liuchengshenpiguanli" unicode="&#58999;" d="M490.666667-72.53333299999997H136.533333c-25.6 0-46.933333 21.333333-46.933333 51.2V802.133333c0 29.866667 21.333333 51.2 46.933333 51.2h610.133334c25.6 0 46.933333-21.333333 46.933333-51.2v-341.333333c0-12.8 8.533333-21.333333 21.333333-21.333333s21.333333 8.533333 21.333334 21.333333v341.333333c0 51.2-38.4 93.866667-89.6 93.866667H136.533333C85.333333 896 46.933333 853.333333 46.933333 802.133333v-823.466666c0-51.2 38.4-93.866667 89.6-93.866667h354.133334c12.8 0 21.333333 8.533333 21.333333 21.333333s-12.8 21.333333-21.333333 21.333334zM955.733333 25.600000000000023h-98.133333L810.666667 187.73333300000002c42.666667 17.066667 68.266667 59.733333 68.266666 110.933334 0 68.266667-51.2 119.466667-115.2 119.466666s-115.2-55.466667-115.2-119.466666c0-51.2 29.866667-93.866667 68.266667-110.933334l-46.933333-162.133333h-98.133334c-12.8 0-21.333333-8.533333-21.333333-21.333333v-110.933334c0-12.8 8.533333-21.333333 21.333333-21.333333h384c12.8 0 21.333333 8.533333 21.333334 21.333333v110.933334c0 12.8-8.533333 21.333333-21.333334 21.333333zM691.2 298.66666699999996c0 42.666667 34.133333 76.8 72.533333 76.8s72.533333-34.133333 72.533334-76.8c0-38.4-25.6-68.266667-59.733334-76.8-8.533333-4.266667-21.333333-4.266667-29.866666 0-29.866667 8.533333-55.466667 38.4-55.466667 76.8z m72.533333-119.466667h8.533334l42.666666-149.333333h-93.866666l42.666666 149.333333z m170.666667-264.533333h-341.333333v68.266666h341.333333V-85.33333300000004zM716.8 729.6h-554.666667c-12.8 0-21.333333-8.533333-21.333333-21.333333s8.533333-21.333333 21.333333-21.333334h554.666667c12.8 0 21.333333 8.533333 21.333333 21.333334s-8.533333 21.333333-21.333333 21.333333zM738.133333 546.133333c0 12.8-8.533333 21.333333-21.333333 21.333334h-554.666667c-12.8 0-21.333333-8.533333-21.333333-21.333334s8.533333-21.333333 21.333333-21.333333h554.666667c12.8 0 21.333333 8.533333 21.333333 21.333333zM162.133333 405.333333c-12.8 0-21.333333-8.533333-21.333333-21.333333s8.533333-21.333333 21.333333-21.333333h409.6c12.8 0 21.333333 8.533333 21.333334 21.333333s-8.533333 21.333333-21.333334 21.333333H162.133333z"  horiz-adv-x="1024" />

    
    <glyph glyph-name="duozhuomianshezhi" unicode="&#58885;" d="M965.480418 223.61088600000005c53.364215 0 83.011002 55.735958 83.011001 96.055588V796.386798c0 53.364215-43.284308 99.613202-96.055587 99.613202H260.479839c-53.364215 0-96.055588-42.098437-96.055588-94.869716l83.011002 0.592935h718.6381v-483.242617l-0.592935-94.869716zM800.05135 748.359004H108.688293c-53.364215 0-96.055588-46.841922-96.055588-99.613202v-480.277939c0-53.364215 43.284308-92.497973 96.055588-92.497973h302.990156v-141.118703H224.903695c-13.044586 0-24.310365-19.566879-24.310365-33.204401 0-13.044586 10.672843-29.646786 24.310365-29.646786h457.746381c13.044586 0 24.310365 16.009265 24.310365 29.646786 0 13.044586-10.672843 33.204401-24.310365 33.204401H488.167158v141.118703h311.884192c53.364215 0 96.055588 39.726694 96.055588 92.497973v480.277939c0.592936 52.77128-42.691372 99.613202-96.055588 99.613202z m13.637522-578.112333H95.050771V654.082224H813.688872v-483.835553z"  horiz-adv-x="1237" />

    
    <glyph glyph-name="tongxunlu" unicode="&#58947;" d="M608 582.4h288v-64h-288zM608 454.4h288v-64h-288zM704 326.4h192v-64h-192zM704 198.4h192v-64h-192zM470.4 400c44.8 28.8 73.6 76.8 73.6 134.4 0 89.6-70.4 160-160 160s-160-70.4-160-160c0-57.6 28.8-105.6 73.6-134.4-96-22.4-169.6-112-169.6-214.4v-32c0-35.2 28.8-80 64-80h384c35.2 0 64 44.8 64 80v32c0 102.4-73.6 192-169.6 214.4z"  horiz-adv-x="1024" />

    
    <glyph glyph-name="zuzhiguanli" unicode="&#59024;" d="M330.464969 324.92351c28.692482-9.260921 55.06513-25.013697 77.317946-46.51029l49.875944 83.127256c-27.709085 11.515265-53.245691 28.253484-75.410503 49.688679l-51.783387-86.305645zM410.330948 275.925562c-0.841158 0.841158-1.694595 1.662873-2.548033 2.487658-22.252817 21.497617-48.624441 37.249369-77.317946 46.51029-19.686365 6.353708-40.45948 9.66308-61.74425 9.66308-53.495378 0-103.786785-20.832468-141.610228-58.661028-37.818327-37.823444-58.645678-88.109734-58.645678-141.594878s20.827351-103.770412 58.645678-141.593856c37.823444-37.82856 88.11485-58.661028 141.610228-58.661027 53.495378 0 103.785761 20.832468 141.610229 58.660004 37.81935 37.824467 58.646702 88.109734 58.646701 141.594879s-20.827351 103.771435-58.646701 141.594878zM804.663014 320.483384c-0.103354 0-0.205685-0.004093-0.309038-0.004093-32.358989-0.062422-62.463634-9.907651-87.513146-26.727735-42.256406-28.375258-70.123081-76.599585-70.123081-131.213437 0-87.090521 70.853721-157.944242 157.944242-157.944242 87.089497 0 157.944242 70.854744 157.944242 157.944242S891.753535 320.483384 804.663014 320.483384zM722.320635 757.168048c-45.817512 45.817512-106.730836 71.050196-171.524539 71.050196-64.794725 0-125.710097-25.233708-171.525561-71.050196-45.813419-45.814442-71.043033-106.726743-71.043033-171.516352 0-64.787562 25.229614-125.700887 71.043033-171.516352 0.982374-0.982374 1.982144-1.943258 2.978844-2.907213 22.163789-21.435195 47.701418-38.173414 75.410504-49.688679 29.127388-12.104689 60.643172-18.454304 93.136213-18.454304 44.469817 0 87.11201 11.887748 124.299981 34.156938 16.996093 10.177803 32.854269 22.520923 47.224558 36.892235a246.124584 246.124584 0 0 1 22.35617 25.698288c31.584346 41.813315 48.686862 92.497671 48.686862 145.818064-0.001023 64.788585-25.230638 125.702933-71.043032 171.517375zM399.279241 439.613622l0.001023 0.001023-0.001023-0.001023zM743.60745 424.057321a193.031365 193.031365 0 0 0-17.527188-20.147876c-11.266601-11.267625-23.698748-20.945031-37.024242-28.923749l32.728402-65.456805c19.638269 13.187347 43.240827 20.905122 68.609611 20.954241l-46.786583 93.574189z"  horiz-adv-x="1024" />

    
    <glyph glyph-name="neibutongxun" unicode="&#58926;" d="M1017.247 751.764c-7.42 42.496-36.89 53.126-49.219 55.711l-3.512 0.743h-20.014a32.4 32.4 0 0 1-2.233 0.092h-35.978c-0.747 0-1.51-0.036-2.237-0.092h-2.043v-0.226a29.85 29.85 0 0 1-25.564-29.537v-9.293a29.865 29.865 0 0 1 25.564-29.537v-0.287h3.405l0.875-0.015h35.978c0.287 0 0.574 0.015 0.87 0.015h6.375a51.098 51.098 0 0 0 0.236-12.308l-0.292-1.925V2.169999999999959c-1.372-20.803-8.433-36.429-20.992-46.474a54.067 54.067 0 0 0-18.76-9.682h-56.064l0.046 0.845c-22.343 0.875-35.835 9.256-43.72 27.207-6.89 15.698-6.707 32.471-6.66 34.156l0.035 0.542V759.921c2.258 41.856-8.043 73.907-30.592 95.355-25.891 24.58-57.922 24.821-67.64 24.253H108.795c-26.276-0.22-48.717-9.861-64.922-27.868-29.435-32.758-27.699-82.202-26.834-93.82v-748.999c-0.281-6.958-0.394-33.126 11.915-60.56 18.882-42.09 57.804-67.322 109.598-71.05l1.23-0.107h776.304l2.544 0.4c4.148 0.619 25.959 4.587 48.66 21.166 21.515 15.723 47.842 45.905 50.986 100.444l0.051 0.978V720.604c0.553 5.57 1.27 17.756-1.08 31.16z m-874.921-805.75c-16.302 1.296-38.574 5.914-49.746 28.78-6.933 14.208-6.774 29.128-6.718 31.002l0.052 0.66V760.96l-0.16 1.69c-0.777 7.828 0 32.558 9.35 42.962 2.186 2.442 5.58 4.935 14.126 5.027h597.105l1.075-0.22 2.299 0.369c1.884 0.025 10.342-0.184 15.918-5.77 6.927-6.918 10.091-21.873 8.898-42.118l-0.066-1.013V10.659999999999968c-0.251-7.015-0.359-35.507 12.58-64.656H142.326v0.01zM660.163 702.66A36.152 36.152 0 0 0 624 666.496H193.556a36.157 36.157 0 0 0 0 72.31H624a36.152 36.152 0 0 0 36.163-36.147z m0-649.109zM658.96 501.765a36.163 36.163 0 0 0-36.163-36.162H192.353a36.157 36.157 0 1 0 0 72.314h430.444a36.168 36.168 0 0 0 36.162-36.152z m0-196.526a36.168 36.168 0 0 0-36.163-36.163H192.353a36.157 36.157 0 0 0 0 72.315h430.444a36.168 36.168 0 0 0 36.162-36.152z m-285.82-197.53a36.157 36.157 0 0 0-36.162-36.162H192.353a36.168 36.168 0 0 0 0 72.325h144.625a36.152 36.152 0 0 0 36.162-36.163z"  horiz-adv-x="1024" />

    
    <glyph glyph-name="daibanshiwuguanli" unicode="&#58908;" d="M792.003-64H231.997c-61.852 0-112 50.148-112 112V720c0 61.858 50.148 112 112 112h560.006c61.852 0 112-50.142 112-112v-672c0-61.852-50.148-112-112-112z m56 840H175.997v-784h672.006V776z m-504-310.052h-56v56h56v-56z m112 56v-56h-56v56h56z m56 56v-56h-56v56h56z m56 56v-56h-56v56h56z m-168-224h-56v56h56v-56z m-56-112h-56v56h56v-56z m0-167.994h56v55.994h336v-56h-448v56h56v-55.994z m56 223.994h336v-56h-336v56z m168 168h168v-56h-168v56z"  horiz-adv-x="1024" />

    
    <glyph glyph-name="zhengzaiyunxingliebiao" unicode="&#58965;" d="M343.977807 781.992392A425.129604 425.129604 0 0 0 511.99872 816.040307c58.709187 0 114.687713-11.349305 168.020913-34.047915a433.918915 433.918915 0 0 0 136.959658-93.013101 433.918915 433.918915 0 0 0 93.013101-136.959658c22.69861-53.3332 34.047915-109.311727 34.047915-168.020913 0-58.709187-11.349305-114.687713-34.047915-168.020913a433.918915 433.918915 0 0 0-93.013101-136.959658 433.918915 433.918915 0 0 0-136.959658-93.013101A425.129604 425.129604 0 0 0 511.99872-48.042867a425.129604 425.129604 0 0 0-168.020913 34.047915 433.918915 433.918915 0 0 0-136.959658 93.013101 433.918915 433.918915 0 0 0-93.013101 136.959658A425.129604 425.129604 0 0 0 79.957133 383.99872000000005c0 58.709187 11.349305 114.687713 34.047915 168.020913a433.918915 433.918915 0 0 0 93.013101 136.959658 433.918915 433.918915 0 0 0 136.959658 93.013101zM710.995556 855.037542A496.980091 496.980091 0 0 1 511.99872 895.99744c-69.375827 0-135.679661-13.653299-198.996836-40.959898a517.801372 517.801372 0 0 1-162.986259-109.055727A517.801372 517.801372 0 0 1 40.959898 582.9955560000001C13.653299 519.678381 0 453.289213 0 383.99872000000005c0-69.375827 13.653299-135.679661 40.959898-198.996836 27.306598-63.317175 63.743841-117.674372 109.055727-162.986259a517.801372 517.801372 0 0 1 162.986259-109.055727c63.317175-27.306598 129.706342-40.959898 198.996836-40.959898 69.375827 0 135.679661 13.653299 198.996836 40.959898a517.801372 517.801372 0 0 1 162.986259 109.055727 517.801372 517.801372 0 0 1 109.055727 162.986259C1010.344141 248.31905900000004 1023.99744 314.70822699999997 1023.99744 383.99872000000005c0 69.375827-13.653299 135.679661-40.959898 198.996836a517.801372 517.801372 0 0 1-109.055727 162.986259A517.801372 517.801372 0 0 1 710.995556 855.037542zM259.583351 512.851731h84.735788v-254.378031h-84.735788v254.292698zM810.66464 385.705382L556.371942 639.9980800000001v-127.146349H386.644367v-254.378031H556.371942v-127.146348L810.66464 385.534716z"  horiz-adv-x="1024" />

    
    <glyph glyph-name="xitongpeizhi" unicode="&#58893;" d="M940.373333 250.88l-51.2 29.013333c10.24 34.133333 15.36 69.973333 15.36 107.52s-5.12 73.386667-15.36 107.52l51.2 29.013334c15.36 8.533333 20.48 29.013333 11.946667 44.373333l-63.146667 109.226667c-8.533333 15.36-29.013333 20.48-44.373333 11.946666l-47.786667-29.013333C747.52 713.386667 682.666667 752.64 614.4 769.706667V829.44c0 17.066667-22.186667 32.426667-39.253333 32.426667h-124.586667c-17.066667 0-22.186667-13.653333-22.186667-32.426667v-59.733333c-68.266667-18.773333-141.653333-56.32-192.853333-107.52L180.906667 691.2c-15.36 8.533333-35.84 3.413333-44.373334-11.946667L71.68 571.733333c-8.533333-15.36-3.413333-34.133333 11.946667-44.373333l51.2-29.013333c-10.24-34.133333-15.36-69.973333-15.36-107.52 0-39.253333 5.12-75.093333 15.36-109.226667l-51.2-29.013333c-15.36-8.533333-20.48-29.013333-11.946667-44.373334l63.146667-109.226666c8.533333-15.36 29.013333-20.48 44.373333-11.946667l56.32 29.013333c49.493333-51.2 122.88-88.746667 191.146667-107.52v-59.733333c0-17.066667 5.12-42.666667 22.186666-42.666667h124.586667c17.066667 0 39.253333 25.6 39.253333 42.666667V8.533333c68.266667 18.773333 133.12 56.32 184.32 107.52l49.493334-29.013333c15.36-8.533333 34.133333-3.413333 42.666666 11.946667l61.44 109.226666c10.24 15.36 5.12 34.133333-10.24 42.666667z m-150.186666 138.24c0-40.96-8.533333-78.506667-25.6-112.64l-153.6 88.746667c1.706667 8.533333 6.826667 17.066667 6.826666 25.6 0 47.786667-37.546667 87.04-71.68 98.986666V665.6c136.533333-17.066667 244.053333-133.12 244.053334-276.48zM494.933333 665.6v-177.493333c-51.2-11.946667-80.213333-52.906667-80.213333-98.986667 0-8.533333-1.706667-17.066667 0-25.6l-155.306667-88.746667c-15.36 34.133333-22.186667 73.386667-22.186666 114.346667 0 146.773333 121.173333 266.24 257.706666 276.48z m17.066667-552.96c-92.16 0-174.08 46.08-223.573333 114.346667l151.893333 88.746666c18.773333-18.773333 44.373333-29.013333 71.68-29.013333s52.906667 11.946667 71.68 29.013333l151.893333-88.746666c-49.493333-69.973333-131.413333-114.346667-223.573333-114.346667z"  horiz-adv-x="1024" />

    
    <glyph glyph-name="xinxiguanli" unicode="&#58896;" d="M731.444663 603.415406h219.424183a73.141394 73.141394 0 0 0 73.141394-73.141394v-585.131155a73.141394 73.141394 0 0 0-73.141394-73.141394H73.245256c-24.429226-0.146283-47.249341 16.822521-60.926782 45.055099A137.652104 137.652104 0 0 0 0.03072-23.113778V793.583031C0.03072 822.108175 8.515122 849.389915 23.582249 868.699243 38.064245 886.838309 57.007866 896.566114 76.463477 895.980983h579.791833c19.309328 0.438848 38.033525-9.288957 52.369238-27.28174 14.847703-19.455611 23.112681-46.810492 22.820115-75.189353V603.415406z m-73.141394-624.627507V789.413972a43.00714 43.00714 0 0 1-6.80215 24.063518c-4.388484 6.29016-10.239795 9.654664-16.310531 9.362099H95.699664c-8.41126 0.073141-16.23739-6.948432-20.040742-18.212207A49.224158 49.224158 0 0 1 73.172114 788.024285v-809.090104c0-12.653461 4.681049-24.13666 12.141472-30.061113a16.456814 16.456814 0 0 1 10.898068-3.657069h539.490924c8.41126 0 16.091107 6.948432 20.040742 18.139065A47.395624 47.395624 0 0 1 658.303269-21.212101zM182.884206 676.5568h365.706971a36.570697 36.570697 0 0 0 0-73.141394h-365.706971a36.570697 36.570697 0 0 0 0 73.141394z m0-219.424183h365.706971a36.570697 36.570697 0 0 0 0-73.141394h-365.706971a36.570697 36.570697 0 0 0 0 73.141394z m0-219.424183h365.706971a36.570697 36.570697 0 0 0 0-73.141394h-365.706971a36.570697 36.570697 0 0 0 0 73.141394zM731.444663 530.274012v-585.131155h146.282789a73.141394 73.141394 0 0 1 73.141394 73.141394V457.132617a73.141394 73.141394 0 0 1-73.141394 73.141395h-146.282789z"  horiz-adv-x="1024" />

    
    <glyph glyph-name="user" unicode="&#58957;" d="M470.552 359.619c19.505 9.752 36.572 21.943 53.638 39.01 39.01 39.01 60.953 90.21 60.953 148.723 0 58.515-24.381 112.153-60.953 148.724-39.009 39.01-90.209 60.953-146.285 60.953-58.515 0-109.715-24.381-146.286-60.953-39.01-39.01-60.952-90.21-60.952-148.724 0-58.514 24.38-112.152 60.952-148.723 14.629-14.629 34.133-29.258 53.638-39.01-63.39-17.067-121.905-51.2-168.228-97.524C48.762 193.83000000000004 7.314 108.495 7.314 3.657000000000039v-2.438c2.438-12.19 24.381-21.943 24.381-21.943s443.734-2.438 694.857 0c12.19 0 21.943 9.753 24.381 21.943v2.438c0 102.4-41.447 190.172-109.714 258.438-46.324 46.324-104.838 80.457-170.667 97.524z m202.362 277.943V588.8h390.096v48.762H672.914zM892.343 101.17999999999995h170.667v48.762H892.343v-48.762z m-121.905 243.81h292.572v48.761H770.438v-48.762z"  horiz-adv-x="1063" />

    
    <glyph glyph-name="yishouxiaoxiliebiao" unicode="&#59320;" d="M894.72 836.224H116.864c-51.52 0-93.312-41.792-93.312-93.312v-497.856c0-51.52 41.792-93.312 93.312-93.312H894.72c51.52 0 93.312 41.792 93.312 93.312V742.848A93.248 93.248 0 0 1 894.72 836.224zM222.464 244.99199999999996l283.328 283.328 283.328-283.328H222.464zM894.72 338.36800000000005c0-30.272-14.656-56.896-36.992-73.92L549.824 572.352l-44.032 44.032-351.936-352a92.992 92.992 0 0 0-36.992 73.984V649.5360000000001c0 51.584 41.792 93.376 93.312 93.376h591.168c51.52 0 93.312-41.792 93.312-93.376v-311.168z m-138.048-315.008h-501.76a13.632 13.632 0 0 1-13.632-13.632v-31.104c0-7.488 6.08-13.632 13.632-13.632h501.696a13.632 13.632 0 0 1 13.632 13.632v31.104a13.568 13.568 0 0 1-13.568 13.632z m155.584 97.216H99.392a13.632 13.632 0 0 1-13.632-13.632v-31.104c0-7.488 6.08-13.632 13.632-13.632h812.864a13.632 13.632 0 0 1 13.632 13.632v31.104a13.696 13.696 0 0 1-13.632 13.632z"  horiz-adv-x="1024" />

    
    <glyph glyph-name="caidanguanli-copy-copy" unicode="&#58968;" d="M357.376 438.272H45.568c-23.04 0-41.472 18.432-41.472 41.472V791.552c0 23.04 18.432 41.472 41.472 41.472h311.808c23.04 0 41.472-18.432 41.472-41.472v-311.808c0-23.04-18.432-41.472-41.472-41.472z m-20.48 332.8h-271.36v-271.36h271.36v271.36zM357.376-60.416000000000054H45.568c-23.04 0-41.472 18.432-41.472 41.472v311.808c0 23.04 18.432 41.472 41.472 41.472h311.808c23.04 0 41.472-18.432 41.472-41.472v-311.808c0-22.528-18.432-41.472-41.472-41.472z m-20.48 333.312h-271.36v-271.36h271.36v271.36zM984.576 215.03999999999996h-451.072c-18.944 0-34.304 13.312-34.304 30.208v11.776c0 16.384 15.36 30.208 34.304 30.208h451.072c18.944 0 34.304-13.312 34.304-30.208v-11.776c0-16.384-15.36-30.208-34.304-30.208zM984.576 756.2239999999999h-451.072c-18.944 0-34.304 13.312-34.304 30.208v11.776c0 16.384 15.36 30.208 34.304 30.208h451.072c18.944 0 34.304-13.312 34.304-30.208v-11.776c0-16.896-15.36-30.208-34.304-30.208zM984.576 485.888h-451.072c-18.944 0-34.304 13.312-34.304 30.208V527.36c0 16.384 15.36 30.208 34.304 30.208h451.072c18.944 0 34.304-13.312 34.304-30.208v-11.776c0-16.384-15.36-29.696-34.304-29.696zM984.576-55.29600000000005h-451.072c-18.944 0-34.304 13.312-34.304 30.208v11.776c0 16.384 15.36 30.208 34.304 30.208h451.072c18.944 0 34.304-13.312 34.304-30.208v-11.776c0-16.896-15.36-30.208-34.304-30.208z"  horiz-adv-x="1025" />

    
    <glyph glyph-name="zixitongguanli" unicode="&#58914;" d="M1006.533779 164.405084H595.130078a16.906845 16.906845 0 0 0-17.043835 16.769855v39.521605a16.906845 16.906845 0 0 0 17.043835 16.769855H1006.533779a16.906845 16.906845 0 0 0 17.043835-16.769855v-39.510189a16.906845 16.906845 0 0 0-17.043835-16.781271z m0-146.122631H595.130078a16.906845 16.906845 0 0 0-17.043835 16.769855v39.521605a16.906845 16.906845 0 0 0 17.043835 16.769855H1006.533779a16.906845 16.906845 0 0 0 17.043835-16.769855v-39.510189a16.906845 16.906845 0 0 0-17.043835-16.781271z m0-146.122631H595.130078a16.906845 16.906845 0 0 0-17.043835 16.769855v39.521605a16.906845 16.906845 0 0 0 17.043835 16.769855H1006.533779a16.906845 16.906845 0 0 0 17.043835-16.769855v-39.510189a16.906845 16.906845 0 0 0-17.043835-16.781271zM503.837681 243.847848c-78.312598 0-141.955853 62.684326-141.955853 139.741182s63.677503 139.695518 141.967269 139.695518 142.012932-62.661494 142.012932-139.695518a137.069877 137.069877 0 0 0-21.187782-73.061315h83.56388a209.937124 209.937124 0 0 1 13.071126 73.061315c0 117.959777-97.559688 213.921249-217.460156 213.921249-119.900468 0-217.44874-95.961472-217.44874-213.921249 0-117.959777 97.536856-213.978328 217.403077-213.978328l0.034247 74.237146zM485.88058-53.603032h-60.378328l-15.822341 114.283879-21.461762 7.648607a340.60272 340.60272 0 0 0-104.12379 58.939933l-17.546132 14.600847-107.308807-45.298015L79.910814 231.735652 172.538863 302.376812l-3.995541 22.112463a329.517949 329.517949 0 0 0-5.63942 59.099755 326.138863 326.138863 0 0 0 5.707915 59.099755l4.029788 22.123879L79.910814 535.430992l78.346845 133.565218 108.359063-43.574226 17.454805 14.520937a341.253423 341.253423 0 0 0 104.123791 58.997012l21.450345 7.648607 15.845173 114.238216H582.207358l15.845173-114.375206 21.507424-7.625775a338.936009 338.936009 0 0 0 104.078127-58.951349l17.546132-14.635095 107.308807 45.366511 79.317191-135.231929-92.650881-70.58408 4.029788-22.135296a312.679599 312.679599 0 0 0 0-118.176677l-2.54573-13.950145h110.99612l-30.674336 23.368205a376.516923 376.516923 0 0 1 0 99.317725l60.789297 46.302609c28.480214 17.831527 37.590047 55.095081 20.548495 84.05476l-88.701003 151.351082A63.129543 63.129543 0 0 1 871.027871 744.169454a64.488027 64.488027 0 0 1-45.720402-4.817481l-71.029297-28.539576A414.314738 414.314738 0 0 1 666.684504 760.300022l-10.388406 75.024839C654.709298 868.830323 626.843255 895.018239 592.709922 895.018239H415.02252c-34.133333 0-61.999376-26.176499-63.643256-59.670547l-10.388406-74.967759a417.271438 417.271438 0 0 1-87.445262-49.521873l-71.097792 28.539577c-30.331862 15.262965-67.273489 4.566332-84.283077-24.464125L9.269654 563.468272c-16.918261-28.977944-7.722809-66.157021 20.75398-83.906354l60.743635-46.314025a374.781717 374.781717 0 0 1 0-99.317726l-60.766466-46.336856c-28.653735-18.265329-37.740736-55.058551-20.662654-84.05476L98.176143 52.153222a63.198038 63.198038 0 0 1 38.745329-29.247358 64.248294 64.248294 0 0 1 45.663322 4.87456l71.006466 28.539576a417.191527 417.191527 0 0 1 87.445262-49.487625l10.399821-75.04767c1.64388-33.482631 29.498506-59.636299 63.643256-59.636299h70.846644c9.837021-0.076486 17.874907 7.834685 17.957101 17.671705v38.905151a17.820111 17.820111 0 0 1-18.002764 17.671706z"  horiz-adv-x="1024" />

    
    <glyph glyph-name="xiaoximoban" unicode="&#58880;" d="M171.5 347.5h92v-97h-92z m479.144 130c0 12.783-10.374 23-23.156 23H324.694c-12.783 0-23.156-10.217-23.156-23s10.375-23 23.156-23h302.794c12.781 0 23.156 10.217 23.156 23zM465.393 298c0 12.783-10.374 22.5-23.156 22.5H324.694c-12.783 0-23.156-9.717-23.156-22.5s10.375-22.5 23.156-22.5h117.542c12.829 0 23.157 9.717 23.157 22.5zM448.921-32.5H121.804c-30.072 0-55.304 23.508-55.304 53.58V603.756c0 30.073 25.231 54.744 55.304 54.744h654.238c30.072 0 55.459-24.673 55.459-54.744v-255.559c0-15.036 11.936-27.288 26.973-27.288 15.036 0 27.027 12.196 27.027 27.288V603.756c0 60.2-49.259 109.744-109.459 109.744H121.804c-60.2 0-110.304-49.544-110.304-109.744v-582.675c0-60.2 50.104-108.581 110.304-108.581h327.117c15.036 0 27.288 12.437 27.288 27.528 0 15.035-12.196 27.472-27.288 27.472zM324.694 140.5c-12.783 0-23.156-9.717-23.156-22.5s10.375-22.5 23.156-22.5h58.771c12.783 0 23.156 9.717 23.156 22.5s-10.374 22.5-23.156 22.5h-58.771zM171.5 527.5h92v-98h-92z m0-360h92v-98h-92z m674.93-54.2c-8.131 5.013-7.852 22.833-9.189 27.956-1.504 5.736 1.225 19.491 10.246 30.685 9.245 11.472 24.893 20.326 25.06 22.109 1.615 17.82-3.842 37.869-23.612 51.569-11.472 7.964-27.621-9.801-46.11-11.026-12.53-0.835-20.773 10.414-23.39 12.307-37.367 27.12-12.362 60.701-15.871 66.604-3.119 5.235-27.789 24.225-51.791 17.932-22.443-5.847-15.537-33.692-32.578-45.721-5.401-3.788-21.106-4.4-30.295-3.341-31.799 3.62-36.309 44.05-58.362 38.091-21.385-5.791-39.094-22.889-40.375-36.81-1.281-14.424 15.537-23.556 14.814-38.649-0.39-7.853-9.467-17.153-12.92-23.613-2.84-5.29-15.649-13.31-30.295-13.755-11.918-0.39-25.339 6.627-33.414 4.622-5.848-1.448-16.484-12.92-17.82-23.89-1.615-13.199-7.406-25.339 1.726-38.76 9.801-14.424 21.551-6.682 35.696-19.825 9.021-8.409 7.295-18.6 7.964-23 1.393-9.467-1.225-25.506-10.246-36.533-6.349-7.741-20.215-11.305-22.554-18.767-7.351-23.612 8.019-44.273 18.377-52.181 14.201-10.86 36.197 9.021 54.074 10.024 9.912 0.556 17.542-7.741 22.554-13.755 6.516-7.852 13.142-17.542 13.142-30.463 0-9.969-5.847-22.331-2.284-30.907 6.126-14.925 29.571-22.165 46.611-22.165 21.941 0 22.22 29.682 34.471 43.828 8.855 10.246 20.271 7.964 24.003 8.13 7.24 0.39 20.494-0.724 31.52-10.024 5.847-4.956 8.799-18.21 14.59-22.109 11.527-7.796 22.499-7.741 27.956-4.789 12.14 6.515 23.724 10.414 33.636 25.895 6.682 10.414-11.75 25.617-11.917 43.215-0.111 15.816 14.145 28.513 16.93 32.578s18.489 10.246 30.908 9.801c13.977-0.445 26.341-4.677 28.624-3.564 8.688 4.4 9.969 8.744 14.424 19.825 4.065 10.08 4.4 16.484 4.4 27.789-0.054 17.322-23.61 21.388-38.703 30.687z m-169.295-88.322c-53.071 0-96.064 42.992-96.064 96.064 0 53.016 42.992 96.007 96.064 96.007 53.016 0 96.007-42.992 96.007-96.008 0.002-53.071-42.991-96.063-96.007-96.063zM903.696 855.5H98.65c-32.959 0-44.18-33.503-34.597-53.556 8.564-17.922 37.402-19.444 50.504-1.444h789.14c30.072 0 53.804-23.038 53.804-53.11v-255.557c0-15.036 11.936-27.287 26.973-27.287 15.036 0 27.027 12.196 27.027 27.287V747.39C1011.5 807.59 963.896 855.5 903.696 855.5z"  horiz-adv-x="1024" />

    
    <glyph glyph-name="quanxianpeizhiguanli" unicode="&#58889;" d="M572.259 402.349a260.47 260.47 0 0 0 100.53 19.961l10.178-0.133c16.392 40.649 20.555 88.636 12.295 135.235-19.443 107.364-122.047 178.792-229.486 159.753-107.736-18.838-198.814-101.26-179.583-208.27 4.032-23.066 15.336-59.154 28.819-85.198L119.303 145.89599999999996a62.583 62.583 0 0 1-9.122-40.979l8.525-47.521c-8.128 45.672 2.25-16.523 8.529-16.391l64.442-0.863a59.645 59.645 0 0 1 34.901 23.003l77.263 119.039 0.794 0.662 67.683-5.291 90.354 139.398c0.329 0 0.661-0.197 0.927-0.197 8.127 10.904 16.92 21.213 26.769 30.93a253.099 253.099 0 0 0 81.891 54.663zM161.67 116.68399999999997l-9.583-3.9 1.058 10.178 187.514 267.753 11.168-10.309L161.67 116.68399999999997z m284.939 492.545c29.711 42.079 87.827 52.265 130.079 22.802a92.535 92.535 0 0 0 23.131-129.481c-29.61-41.97-59.881-12.424-102.183 17.053-42.17 29.546-80.706 47.525-51.027 89.626z m0 0M670.21 370.821c-113.617 0-205.622-90.417-205.622-202.32 0-111.502 92.005-202.055 205.622-202.055 113.556 0 205.626 90.553 205.626 202.055 0 111.903-92.138 202.32-205.626 202.32z m118.843-285.203c0-30.139-58.894-37.079-114.149-37.079-55.188 0-114.676 6.872-114.676 37.079v8.327c0 22.209 40.714 44.813 75.282 56.909 2.512 0.927 14.542 7.401 7.735 24.655a107.573 107.573 0 0 0-30.139 72.705c0 42.102 28.354 64.177 61.602 64.177 33.048 0 61.666-22.075 61.666-64.177 0-27.366-13.021-55.191-30.006-72.574h0.196c-6.607-19.564 3.835-24.39 5.42-24.787 36.353-11.767 77.266-34.239 77.266-56.909l-0.197-8.326z m0 0"  horiz-adv-x="1024" />

    
    <glyph glyph-name="yibanrenwuguanli" unicode="&#58916;" d="M255.104 768H128v-832h832V768h-126.144v-128.448a64 64 0 0 0-64-64H319.104a64 64 0 0 0-64 64V768z m64 64v-192.448h450.752V832h193.92c33.28 0 60.224-26.944 60.224-60.224V-67.84000000000003c0-33.28-26.944-60.224-60.224-60.224H124.16A60.224 60.224 0 0 0 64-67.77599999999995V771.84c0 33.28 26.944 60.224 60.224 60.224h194.88zM441.984 248l35.84-36.672 36.544 35.84 222.272 228.8a34.752 34.752 0 0 0 49.664 0 36.16 36.16 0 0 0 0-50.688l-283.648-289.92a34.56 34.56 0 0 0-49.536 0L326.976 264.32000000000005a36.16 36.16 0 0 0 0 50.688 34.368 34.368 0 0 0 49.536 0l65.472-66.944zM448.768 768h192v63.744h-192V768z m0 127.744h192a64 64 0 0 0 64-64V768a64 64 0 0 0-64-64h-192a64 64 0 0 0-64 64v63.744a64 64 0 0 0 64 64z"  horiz-adv-x="1024" />

    
    <glyph glyph-name="canyuzheshuxingguanli" unicode="&#58902;" d="M708.876764 44.55315099999996c-96.331138 0-174.600188 78.389464-174.600188 174.600189 0 96.331138 78.389464 174.720602 174.600188 174.720602 96.331138 0 174.720602-78.389464 174.720602-174.720602 0-96.210724-78.389464-174.600188-174.720602-174.600189m0 319.939793C628.801505 364.49294399999997 563.537159 299.349012 563.537159 219.27375400000005s65.143932-145.339605 145.339605-145.339605S854.216369 139.19849499999998 854.216369 219.27375400000005s-65.143932 145.219191-145.339605 145.21919m0 0zM622.178739 204.583255h-68.75635c-8.067733 0-14.690499 6.502352-14.690498 14.690499 0 8.067733 6.622766 14.690499 14.690498 14.690498h68.75635c8.067733 0 14.690499-6.502352 14.690499-14.690498 0-8.188147-6.622766-14.690499-14.690499-14.690499m0 0zM864.331138 204.583255h-68.75635c-8.067733 0-14.690499 6.502352-14.690498 14.690499 0 8.067733 6.622766 14.690499 14.690498 14.690498h68.75635c8.067733 0 14.690499-6.502352 14.690499-14.690498 0-8.188147-6.502352-14.690499-14.690499-14.690499m0 0zM708.876764 49.12888099999998c-8.067733 0-14.690499 6.502352-14.690499 14.690498V132.57572900000002c0 8.067733 6.502352 14.690499 14.690499 14.690499 8.067733 0 14.690499-6.622766 14.690498-14.690499v-68.75635c0-8.188147-6.502352-14.690499-14.690498-14.690498m0 0zM708.876764 291.28127900000004c-8.067733 0-14.690499 6.502352-14.690499 14.690499v68.75635c0 8.067733 6.502352 14.690499 14.690499 14.690499 8.067733 0 14.690499-6.502352 14.690498-14.690499V305.971778c0-8.067733-6.502352-14.690499-14.690498-14.690499m0 0zM471.420508 374.12605799999994c-103.796802 0-188.206961 84.41016-188.206961 188.206962 0 103.796802 84.41016 188.206961 188.206961 188.206961 103.796802 0 188.206961-84.41016 188.206961-188.206961 0-103.796802-84.41016-188.206961-188.206961-188.206962m0 347.032926c-87.661336 0-158.946378-71.285042-158.946378-158.946378s71.285042-158.946378 158.946378-158.946378c87.540922 0 158.825964 71.285042 158.825964 158.946378s-71.285042 158.946378-158.825964 158.946378m0 0zM557.034807 73.93414900000005H270.931326c-41.542803 2.287865-63.578551 27.574788-65.264346 75.138288-0.361242 9.271872 5.418627 28.5381 7.947319 33.595484C262.622766 282.49106300000005 362.084666 344.504233 473.226717 344.504233c21.313264 0 42.144873-2.287865 62.253998-6.381938 6.14111 8.91063 13.125118 17.339605 20.470367 25.16651-26.491063 6.74318-54.306679 10.476011-82.724365 10.476012-122.46096 0-232.037629-68.274694-285.862653-178.33302-3.973659-8.067733-11.439323-32.270931-10.837253-47.5635 2.287865-62.494826 36.124177-100.184384 93.682032-103.315146h321.505174c-12.763876 8.549389-24.203198 18.42333-34.67921 29.380998m0 0z"  horiz-adv-x="1024" />

    
    <glyph glyph-name="liuchengzhongxin" unicode="&#58903;" d="M336.9998 896c55.2 0 100-60 100-134S392.1998 628 336.9998 628s-100 60-100 134S281.7998 896 336.9998 896z m149.2-930c0.4-6.8-3.6-18.4-16-20-18-2.8-36-4-53.2-4-197.2 0-360.4 162-367.6 362.4H16.9998c-8.8 1.6-14.4 5.2-16.4 11.2-3.2 10.4 7.2 21.2 12.4 26.4L96.1998 428.8c4.8 4.8 10.8 7.6 17.6 7.6 6.4 0 12.8-2.8 17.2-7.2L216.1998 342c3.6-3.6 14.8-16.4 11.2-27.6-1.6-4-5.2-9.2-15.6-10h-40c6.8-132 115.6-238 245.6-238 16.8 0 34 1.6 50.8 5.2h1.6c4.8 0 8.8-1.6 11.6-4.8 6-6.4 5.6-17.2 5.2-19.6l-0.4-81.2z m-364 491.2s28 101.2 52.4 118c24.8 16.8 95.6 28 95.6 28S316.1998 552.8 335.3998 552.8c19.6 0 65.6 50 65.6 50s70.8-11.2 95.6-28c28.8-19.6 40-118 40-118H122.1998zM523.3998-128s10.8 88.8 35.6 105.6c24.8 16.8 95.6 28 95.6 28s46-50 65.6-50c19.6 0 65.6 50 65.6 50s70.8-11.2 95.6-28c28.8-19.6 36-105.6 36-105.6h-394z m98 292c0 74 44.8 134 100 134s100-60 100-134-44.8-134-100-134-100 60-100 134z m390 153.2L928.1998 230.4c-4.8-4.8-10.8-7.2-17.2-7.2-6.4 0-12.8 2.4-17.2 7.2L808.1998 317.2c-3.6 3.6-14.8 16.4-11.2 27.6 1.6 4 5.2 9.2 15.6 10h40.4c-6.8 132-115.6 238.4-246 238.4-16.8 0-34-1.6-50.8-5.2h-1.6c-4.8 0-8.8 1.6-11.6 4.8-6 6.4-5.6 17.2-5.2 19.6V694c-0.4 6.8 3.6 18.4 16 20 18 2.8 36 4 53.2 4 197.2 0 360.4-162 367.6-362.4h32.4c8.8-1.6 14.4-5.2 16.4-11.2 3.6-11.2-7.2-22-12-27.2z"  horiz-adv-x="1024" />

    
    <glyph glyph-name="gangweiguanli" unicode="&#58967;" d="M901.849 313.678h-83.136V333.44c0 23.961-19.531 43.467-43.538 43.467H648.498c-24.011 0-43.545-19.506-43.545-43.467v-19.762h-83.136c-41.468 0-75.211-33.692-75.211-75.097V-45.97c0-41.412 33.749-75.093 75.211-75.093h380.032c41.483 0 75.218 33.689 75.218 75.093V238.581c0 41.412-33.743 75.097-75.218 75.097z m-241.476 3.95a3.956 3.956 0 0 0 3.957 3.947h95.004c2.18 0 3.95-1.771 3.95-3.947v-3.95H660.373v3.95zM921.639-45.97c0-10.894-8.875-19.755-19.794-19.755H521.813c-10.912 0-19.794 8.853-19.794 19.755V116.071h134.713a70.365 70.365 0 0 1-0.117-3.954c0-41.412 33.739-75.097 75.214-75.097 41.476 0 75.214 33.692 75.214 75.097 0 1.316-0.043 2.624-0.117 3.954h134.713V-45.97zM692.043 112.11c0 1.33 0.142 2.656 0.434 3.957h38.72a18.66 18.66 0 0 0 0.427-3.957c0-10.887-8.871-19.758-19.79-19.758-10.917 0-19.791 8.864-19.791 19.758z m229.6 59.289H502.027v67.182c0 10.894 8.875 19.762 19.79 19.762h380.032c10.916 0 19.794-8.86 19.794-19.762v-67.182zM412.811-60.732h-297.92V-3.25c0 195.431 150.958 356.501 343.285 374.649l-0.085 0.043s0.196 0 0.505-0.011c11.79 1.106 23.716 1.728 35.794 1.728 1.82 0 3.612-0.107 5.422-0.124 42.532 3.292 106.891 13.273 140.533 43.253l16.459 12.804c64.309 50.137 101.191 125.038 101.191 205.483C757.988 778.734 639.723 896 494.336 896S230.684 778.727 230.684 634.578c0-80.444 36.889-155.346 101.191-205.479l16.459-12.807-19.392-7.691C157.628 340.697 46.933 179.04 46.933-3.246v-91.108c0-18.546 15.232-33.646 33.97-33.646H473.22c-27.723 13.945-49.483 37.966-60.409 67.268z m-114.169 695.31c0 107.068 87.783 194.165 195.694 194.165s195.712-87.097 195.712-194.165c0-107.065-87.801-194.162-195.712-194.162s-195.694 87.097-195.694 194.162z"  horiz-adv-x="1024" />

    
    <glyph glyph-name="fuzhudaima" unicode="&#58929;" d="M198.314667 177.646933h-113.493334V691.780267h746.513067v-112.725334h84.8384V776.533333H0v-683.639466h198.314667v84.753066zM198.314667 579.054933V-8.53333299999997h825.685333V579.054933z m277.640533-387.157333l-52.411733-52.360533-145.493334 145.3568 146.261334 146.107733L476.654933 378.624l-93.866666-93.7472zM629.981867 146.77333299999998H557.038933l46.318934 283.067734H676.334933z m168.789333-7.2704L746.308267 191.8976l93.064533 92.996267-93.866667 93.7472 52.394667 52.360533L944.2816 284.8768z"  horiz-adv-x="1024" />

    
    <glyph glyph-name="biaodanguanli-sanji" unicode="&#59321;" d="M533.32992-66.00192000000004H139.58144a28.12416 28.12416 0 0 0-28.12416 28.12416V805.87264a28.12416 28.12416 0 0 0 28.12416 28.12416h731.24864a28.12416 28.12416 0 0 0 28.12928-28.12416v-393.74848a28.12416 28.12416 0 1 0-56.24832 0V777.74848H167.7056v-787.50208h365.62432a28.12416 28.12416 0 1 0 0-56.24832zM702.08 552.75008H308.33152a28.12416 28.12416 0 1 0 0 56.24832h393.74848a28.12416 28.12416 0 1 0 0-56.24832zM477.0816 215.24991999999997H308.33152a28.12416 28.12416 0 1 0 0 56.24832H477.0816a28.12416 28.12416 0 1 0 0-56.24832zM702.08 384H308.33152a28.12416 28.12416 0 1 0 0 56.24832h393.74848a28.12416 28.12416 0 1 0 0-56.24832zM988.4928 146.88256c-1.98144 11.33056-8.32 18.60096-16.13312 18.60096h-1.94048c-27.1616 0-49.25952 23.41888-49.25952 52.25984 0 7.90016 2.9184 16.49152 4.18304 19.81952l0.04608 0.128 0.04096 0.09216c4.17792 9.92768 0.96768 22.10816-7.4752 28.40064l-0.46592 0.33792-47.39584 27.89888-0.512 0.26112a21.72416 21.72416 0 0 1-9.12384 1.94048c-6.79936 0-13.42976-2.8416-17.74592-7.60832-2.95424-3.29216-8.9088-8.87808-16.01024-13.77792-8.576-5.83168-16.43008-8.97024-22.64064-8.97024-6.50752 0-14.2336 3.05152-22.98368 9.23136-6.84032 4.80768-12.88704 10.4704-15.96416 13.952-4.352 4.84864-11.02336 7.7824-17.86368 7.7824a21.9648 21.9648 0 0 1-9.00096-1.85856l-0.50688-0.26112-49.13664-28.57984-0.54272-0.33792c-8.19712-6.08768-11.44832-17.80224-7.81312-27.52l0.30208-0.71168c0.03584-0.128 4.34688-10.44992 4.34688-20.13184 0-28.84096-22.13376-52.25984-49.2544-52.25984h-2.02752c-7.77216 0-14.1056-7.31136-16.13312-18.60096l-0.04096-0.25088c-0.88576-5.37088-3.88608-24.04864-3.88608-39.07072 0-15.81056 3.2512-35.46112 3.92704-39.2704 1.99168-11.33056 8.32-18.60096 16.13312-18.60096h1.95072c27.1616 0 49.2544-23.41888 49.2544-52.2496 0-9.5488-4.26496-20.08064-4.31104-20.16768l-0.33792-0.79872h0.04608c-3.59424-9.68192-0.33792-21.3504 7.85408-27.43808l0.46592-0.33792 46.464-27.52 0.512-0.26112a21.65248 21.65248 0 0 1 9.1648-1.98144c6.8864 0 13.5168 2.9184 17.82784 7.90016 2.4064 2.80064 8.52992 8.97024 16.13312 14.41792 8.78592 6.33856 16.896 9.71776 23.40352 9.71776 6.58432 0 14.65344-3.3792 23.3984-9.71776 7.0144-5.10976 13.21984-11.20256 16.38912-14.91968 4.31104-5.02784 11.02336-8.06912 17.95584-8.06912 3.2512 0 6.25664 0.61952 8.86784 1.81248l0.50688 0.26112 48.19968 28.31872 0.50688 0.33792c8.20224 6.08768 11.4944 17.75104 7.8592 27.47904h0.04608l-0.30208 0.72192c-0.04096 0.11776-4.38784 10.56768-4.38784 20.16256 0 28.83072 22.13376 52.25984 49.24928 52.25984h1.95072c7.81312 0 14.14656 7.31136 16.17408 18.60096l0.04096 0.11776c0.04608 0.22016 3.93728 22.07232 3.93728 39.18848-0.00512 15.83616-3.26656 35.456-3.9424 39.2704z m-40.7808-68.61312l-0.18944-1.152-1.0496-0.08192c-15.80544-1.13152-30.51008-8.448-41.43104-20.6592-11.2384-12.48256-17.4336-28.87168-17.4336-46.10048 0-10.4192 3.39968-20.64896 4.84864-24.57088l0.49152-1.29024-39.7568-23.26016h-0.32768c-0.08192 0-0.18944 0.04096-0.26624 0.04096l-0.1536 0.04096-0.25088-0.04096-0.42496 0.45056a110.3872 110.3872 0 0 1-14.55104 13.71136c-12.3136 9.74848-24.1152 14.72-35.01056 14.72-10.71616 0-22.35904-4.85888-34.74944-14.41792-7.95136-6.20032-13.47072-12.29824-14.52032-13.45024l-0.40448-0.45056h-0.42496l-0.14336-0.03072c-0.0768-0.03072-0.1792-0.03072-0.26112-0.03072h-0.32256l-38.38464 22.69184 0.49152 1.28c1.15712 2.97984 4.88448 13.58848 4.88448 24.61184 0 17.25952-6.18496 33.61792-17.42336 46.10048-10.96704 12.2112-25.67168 19.52768-41.42592 20.6592l-1.0496 0.08192-0.18944 1.152c-0.67584 4.11136-2.90304 18.41152-2.90304 29.312 0 10.42944 2.01728 23.95136 2.90304 29.3376l0.18944 1.152 1.0496 0.07168c15.78496 1.13152 30.48448 8.448 41.42592 20.66944 11.2384 12.47232 17.42336 28.87168 17.42336 46.08 0 10.43968-3.38944 20.66944-4.84352 24.59136l-0.48128 1.25952 40.67328 23.64928 0.45568-0.10752c0.32256-0.08192 0.5888-0.14848 0.81408-0.25088l0.2304-0.11776 0.13824-0.1792c0.64512-0.6912 6.31296-6.89152 14.38208-12.96896 12.12928-9.14944 23.65952-13.82912 34.18112-13.82912 10.45504 0 21.84704 4.57216 33.8944 13.55776 7.13216 5.38112 12.73856 10.98752 14.29504 12.6976l0.14336 0.19968 0.18944 0.1024a3.24096 3.24096 0 0 0 0.82432 0.27136l0.45568 0.10752 39.26016-23.13216-0.4864-1.25952c-1.15712-3.04128-4.8896-13.59872-4.8896-24.59136 0-17.23904 6.1952-33.60768 17.4336-46.08 10.96704-12.22144 25.6768-19.53792 41.43104-20.66944l1.0496-0.07168 0.18944-1.152c0.84992-5.31968 2.89792-18.90816 2.89792-29.3376 0-10.41408-2.01728-23.936-2.89792-29.31712zM802.98496 174.34112000000005c-36.6848 0-66.55488-29.88032-66.55488-66.56s29.824-66.56 66.55488-66.56c36.6848 0 66.56512 29.88032 66.56512 66.56s-29.88032 66.56-66.56512 66.56z m0.02048-104.96c-21.15072 0-38.41536 17.21856-38.41536 38.4s17.21856 38.4 38.41536 38.4c21.15072 0 38.38464-17.21856 38.38464-38.4s-17.2032-38.4-38.38464-38.4z"  horiz-adv-x="1024" />

    
    <glyph glyph-name="liuchengfenguanshouquan" unicode="&#58934;" d="M808.96 138.24h-61.44v378.88h-348.16v61.44h409.6v-440.32z m-225.28-122.88h-409.6v399.36h61.44v-348.16h348.16v-51.2zM983.04 121.856l-196.608-202.752-202.752 196.608 48.128 48.128 153.6-148.48 197.632 204.8v-98.304zM20.48 783.36h337.92v-337.92h-337.92v337.92z m51.2-51.2v-235.52h235.52v235.52h-235.52zM983.04 218.11199999999997l46.08-46.08-56.32-59.392z"  horiz-adv-x="1034" />

    
    <glyph glyph-name="biaodanguanli-yiji" unicode="&#58954;" d="M571.8-35.60000000000002H183.1c-33 0-59.9 27-59.9 59.9V624c0 33 27 60 59.9 60H273v-120h419.8V684h89.9c32.9 0 60-27 60-60v-291.9c23.4-10.4 42.9-25.2 59.9-42.1V624c0 66-53.9 120-120 120h-89.9V804h-80.9c-25.5 36-73.5 59.9-129 59.9s-103.5-24-129-59.9H273v-60h-89.9c-66 0-120-54-120-120v-599.7c0-66 54-120 120-120h466.3c-31.9 14-57.6 34.9-77.6 60.1zM333 744h66c0 33 37.5 59.9 84 59.9s84-27 84-59.9h66v-120H333V744z m0 0M521.8 144.29999999999995H273c-16.5 0-30-13.5-30-29.9 0-16.5 13.5-30 30-30h249.5c-2.6 19.9-2.6 39.9-0.7 59.9z m0 0M592.5 294.20000000000005H273c-16.5 0-30-13.5-30-30s13.5-29.9 30-29.9h274.3c11.3 22.5 26.6 42.5 45.2 59.9z m0 0M692.8 444.1H273c-16.5 0-30-13.5-30-29.9 0-16.5 13.5-29.9 30-29.9h419.8c16.5 0 30 13.5 30 29.9s-13.5 29.9-30 29.9z m0 0M944.2 150.5h-19.7c-8.9 0-18.5 7.1-21.2 15.7l-11.4 27.5c-4.2 8-2.5 19.6 3.9 26.2l14 13.9c6.3 6.5 6.3 16.8 0 23.3l-23.2 23.1c-6.4 6.5-16.9 6.5-23.3 0l-14-13.9c-6.5-6.4-18.1-8.2-26-3.9l-27.5 11.4c-8.6 2.7-15.7 12.2-15.7 21.2v19.7c0 9.1-7.3 16.5-16.4 16.5h-32.9c-9.1 0-16.5-7.4-16.5-16.5V295c0-9-7-18.6-15.7-21.4l-27.5-11.2c-8-4.2-19.5-2.5-26.1 3.9l-13.9 13.9c-6.4 6.5-16.9 6.5-23.2 0L584.8 257c-6.3-6.5-6.3-16.8 0-23.2l14.1-14c6.3-6.5 8.1-18.1 3.8-26.1l-11.3-27.6c-2.7-8.6-12.3-15.7-21.3-15.7h-19.7c-9.1 0-16.5-7.3-16.5-16.3v-32.9c0-9 7.5-16.5 16.5-16.5H570c9 0 18.6-7 21.3-15.7l11.3-27.5c4.3-8 2.5-19.6-3.8-26.2l-14.1-14c-6.3-6.5-6.3-16.8 0-23.2l23.3-23.2c6.3-6.5 16.8-6.5 23.2 0l13.9 14c6.5 6.5 18.1 8.2 26.1 3.9l27.5-11.3c8.7-2.8 15.7-12.3 15.7-21.4v-19.6c0-9.1 7.4-16.5 16.5-16.5h32.9c9.1 0 16.4 7.4 16.4 16.5v19.6c0 9.1 7.1 18.6 15.7 21.4l27.5 11.3c7.8 4.3 19.6 2.5 26.1-3.9l13.9-14c6.4-6.5 16.9-6.5 23.3 0l23.2 23.2c6.3 6.4 6.3 16.8 0 23.2l-14 14c-6.4 6.5-8.1 18.1-3.9 26.2l11.4 27.5c2.7 8.7 12.4 15.7 21.2 15.7h19.7c9.1 0 16.4 7.5 16.4 16.5v32.9c0 9-7.3 16.4-16.5 16.4z m-114.8-32.8c0-45.4-36.7-82.1-81.9-82.1-45.4 0-82.1 36.6-82.1 82.1 0 45.4 36.7 82.1 82.1 82.1 45.2 0.1 81.9-36.6 81.9-82.1z m0 0"  horiz-adv-x="1024" />

    
    <glyph glyph-name="yonghuguanli" unicode="&#59049;" d="M959.2 360.5V137h-51c-7.8 20.8-16.8 38.2-27.5 52.1-39.1 51.5-106.8 65.3-166.3 77.8-23.8 4.9-46.3 9.6-64.1 16.1-7.7 2.7-13 5.5-16.7 7.5 18.8 20.6 34.9 45.7 46.7 74.1 14.8 34.8 22.5 72.7 22.5 109.6 0 56.4-3.6 120.9-29.4 172.7-11.4 22.6-29.6 47.9-58.4 66.1 13.7 49.5 45.1 82.5 111.8 82.5 104.8 0 120.9-84.8 120.9-187 0-53.6-23.9-108.5-59.2-139.7-3.5-3.2-5.5-7.7-5.5-12.3-0.1-12.7 0.3-29.4 5.1-35.6 29.7-39.6 110.2-40.8 171.1-60.4m-817.9-173c38.1 54.3 107.8 68.2 169.1 80.6 24.1 4.7 46.6 9.4 64.5 15.7 7.4 2.6 12.6 5 16.3 7.1-18.8 20.6-34.3 45.5-46.4 73.4-14.6 34.6-22.6 71.8-23.1 107.9-0.6 47.8 2.4 84.2 8.6 115.1 9.1 44.4 25.7 78.3 50.9 103.7 8.4 8.7 17.7 16 27.7 22.2-14 49.8-44.8 82.7-110.1 82.7-108 0-123.2-85.7-122.1-188.7 0.6-52.5 24.4-107.1 59.3-138.2 3.6-3.1 5.6-7.7 5.6-12.6 0-12.7-0.8-29.2-5.3-35.1C207.4 381.9 126.2 381 65 362.1v-224.9h51.1c7.2 20 15.7 36.5 25.2 50.3m740.5-222.9c0.5-10.9-8.2-19.9-18.9-19.9H162c-10.9 0-19.4 9.1-18.8 19.9 2.5 42.9 11.6 143.4 43.9 189.7 49.2 70 211.5 45.9 256.9 108.5 5.2 6.8 6 25.3 6 39.5 0 5.4-2.2 10.5-6.2 14.2-39 34.9-65.3 95.9-65.9 154.9-1.1 115.6 15.7 211.5 135.5 211.5 116.1 0 133.8-94.9 133.8-209.9 0-60.1-26.4-121.6-65.4-156.6-3.8-3.4-6.2-8.7-6.3-13.7-0.3-14.2 0.6-33 5.5-40 46-62.6 203.5-40.2 255.6-108.5 34.1-45.3 42.9-146.7 45.2-189.6"  horiz-adv-x="1024" />

    
    <glyph glyph-name="woshenqingdeliucheng" unicode="&#58937;" d="M863.387 40.20799999999997a35.19 35.19 0 0 0-24.863 25.545 35.195 35.195 0 0 0 10.193 34.154 172.5 172.5 0 0 1 47.411 120.297c0 71.848-45.32 115.698-101.229 115.698-55.912 0-101.213-43.85-101.213-115.698a173.218 173.218 0 0 1 47.123-120.146h-0.174a35.218 35.218 0 0 0 10.426-34.353 35.212 35.212 0 0 0-25.126-25.647c-94.1-18.07-141.301-70.07-141.301-109.033 0-47.854 82.505-57.778 210.265-57.778 127.757 0 210.29 9.924 210.29 57.778 0 38.962-47.465 91.108-141.802 109.183z m-253.97 513.618H255.873v89.033h353.544v-89.033z m0-193.331H255.873v89.184h353.544v-89.184zM476.088 169.38800000000003H255.873v89.038h220.215v-89.038z m0.833-178.66H107.075V805.821h651.157v-384.882h89.067V818.855c-0.078 41.982-34.119 75.985-76.104 75.999H94.173C52.19 894.84 18.149 860.837 18.085 818.855v-841.166c0.064-41.983 34.105-75.979 76.088-75.999h382.806v89.038h-0.058z m0 0"  horiz-adv-x="1024" />

    
    <glyph glyph-name="yonghuzuguanli" unicode="&#58919;" d="M876.10248992 135.16971274000002h-76.59296381V211.76267732999997c0 4.21263637-3.44557987 7.65744452-7.65744453 7.65744375H745.89815477c-4.21649488 0-7.66207475-3.44480815-7.66207398-7.65744375v-76.59296459h-76.5937363c-4.21186466 0-7.65744452-3.45021009-7.65744453-7.66207476v-45.95469774c0-4.21186466 3.44557987-7.66207475 7.65744453-7.66207475h76.5937363v-76.59296459c0-4.21263637 3.44557987-7.65821623 7.66207398-7.65821545h45.95469852c4.21186466 0 7.65744452 3.44557987 7.65744452 7.65821545v76.59296459h76.59296382c4.21186466 0 7.66207475 3.45021009 7.66207475 7.66207475v45.95469774c-0.0007717 4.21263637-3.45098179 7.66207475-7.66284645 7.66207476zM379.68587398 397.11635381c-0.86351715 8.33035472-1.34196264 16.75485575-1.34196264 25.27890424 0 15.21919934 1.43765159 30.05950141 4.11540402 44.51781788 0.67213849 3.44635156-1.14518283 6.98993548-4.3052385 8.42450102-13.02066487 5.8401232-24.98874982 13.88341032-35.32703281 24.03340147-24.70322562 24.12214586-38.01250151 56.77065531-37.05406712 91.33217503 0.85888693 30.73858523 13.21127183 59.9368846 34.7528976 81.95618494 23.64910229 24.22555183 55.43409459 37.43682367 89.23241634 37.05406712 30.54257712-0.28629591 60.03103014-12.06068708 82.33508296-32.93480459a125.3187886 125.3187886 0 0 0 19.53215564-23.35971957c1.91609708-2.96944949 5.65183136-4.21263637 8.90526086-3.06745353 16.84822958 5.84398095 34.65952377 9.95706985 52.9430906 11.87471034 5.36167694 0.57413443 8.42913048 6.3201121 6.03458791 11.1076546C568.39330068 734.89121887 504.81945756 777.39956506 431.28931706 778.54937811 325.20635604 780.17686495 236.74331133 693.14838501 236.74331133 587.0669674000001c0-60.12363227 27.67035999-113.73963383 71.03836558-148.87605969-30.44688817-14.07633238-58.4961462-33.50971149-82.81430094-57.82863716C172.50118823 327.99022756 142.82135655 258.86718814000005 140.90371607 185.05075173c-0.09337383-4.30986873 3.35220603-7.85422433 7.66130227-7.85422434h53.7101471c4.11926176 0 7.56484162 3.25883143 7.65821623 7.37269203 1.82272325 55.53287036 24.31815397 107.51752579 63.86245336 146.96382036 28.14649038 28.14803378 62.61463626 47.67864602 100.2389793 57.15958548 3.63772945 1.05180822 6.12950514 4.59616462 5.65105965 8.42372856z m0 0M811.0007082 422.39525805c0 104.73945497-84.15780622 189.85029364-188.51450463 191.4824107-106.08218931 1.62594344-194.45108848-85.40716672-194.4510885-191.4824107 0-60.1290342 27.76450553-113.74580747 71.039909-148.88146162-30.34965506-14.07093046-58.30631094-33.41170744-82.72169804-57.82863716-52.46773192-52.36741276-82.14370508-121.49508242-84.05903046-195.21351477-0.09800406-4.31064042 3.35297773-7.85422433 7.65590113-7.85422432h53.6175442c4.11694742 0 7.56252728 3.25883143 7.66130304 7.37269202 1.81963643 55.53287036 24.31506715 107.51752579 63.85936655 146.96382113 41.26516008 41.26516008 96.02711541 63.95659891 154.429887 63.95659891 105.69788936 0.0007717 191.48241071 85.68651729 191.48241071 191.48472581zM706.16093406 335.74490444c-23.16834169-23.16834169-53.90152499-35.90271066-86.64340827-35.90271066-32.7434267 0-63.47583831 12.73436975-86.64417998 35.90271066-23.45772363 23.45849533-36.19209338 54.66780979-35.90271066 87.8935405 0.2855242 31.39992064 12.82774358 61.74803228 34.75289838 84.24886493 22.97696302 23.55341334 53.71014711 36.67131056 86.55080537 37.05329542 32.45327228 0.2855242 63.95196868-12.34929808 87.12031037-35.04150862 23.74787805-23.26325892 36.76777122-54.37919877 36.76777198-87.50461031-0.09800406-32.74805693-12.83237379-63.48046852-36.00148719-86.64958192z m0 0"  horiz-adv-x="1024" />

    
    <glyph glyph-name="baozhangguanli" unicode="&#58924;" d="M742.60224-108.63018699999998c-6.77888 0-12.880213 2.711893-17.6256 7.45728l-92.196693 88.8064-91.518294-89.4848c-4.745387-4.744533-11.52512-7.45728-17.626453-7.45728h-9.490773c-6.77888 0-12.880213 2.711893-17.6256 7.458134l-91.519147 89.483946-91.518293-89.4848c-4.745387-4.744533-11.524267-7.45728-17.6256-7.45728h-9.490774c-6.779733 0-12.881067 2.711893-17.626453 7.458134L177.220267-12.367359999999962 85.700267-101.85130700000002c-4.744533-4.744533-11.524267-7.45728-17.6256-7.45728h-4.745387c-14.23616 0-26.438827 12.202667-26.438827 27.117227V797.74464c0 47.453867 37.285547 86.772907 83.383467 86.772907h786.38336c46.098773 0 83.38432-38.641493 83.38432-86.772907l0.677547-869.76768c0-7.456427-2.711893-14.23616-7.45728-19.659093-4.744533-5.423787-11.524267-8.13568-18.304-8.13568-14.23616 0-26.437973 12.202667-26.437974 27.117226l-0.6784 71.8592V797.74464c0 17.6256-13.55776 31.86176-30.506666 31.86176H120.954027c-16.948053 0-30.506667-14.23616-30.506667-31.86176v-820.957867l69.825707 67.792214c4.744533 4.744533 11.524267 7.45728 17.6256 7.45728 6.779733 0 12.880213-2.711893 17.6256-7.458134l96.264533-94.229333 96.264533 94.230187c4.744533 4.744533 11.524267 7.45728 17.6256 7.45728 6.77888 0 12.880213-2.711893 17.6256-7.458134l96.264534-94.229333 96.264533 94.230187c4.744533 4.744533 11.524267 7.45728 17.6256 7.45728 6.77888 0 12.880213-2.711893 17.6256-7.458134l109.822293-106.432c5.422933-4.745387 8.134827-11.52512 8.134827-18.981546 0-7.458133-2.033493-14.23616-6.77888-19.659947-5.423787-5.422933-12.202667-8.134827-19.659947-8.134827z m-58.978133 223.712427c-14.237013 0-26.438827 12.202667-26.438827 27.116373v66.436267h-84.739413c-14.237013 0-26.438827 12.202667-26.438827 27.116373 0 14.91456 11.524267 27.116373 26.438827 27.116374h84.739413v41.352533h-84.739413c-14.237013 0-26.438827 12.202667-26.438827 27.117227 0 14.91456 11.524267 27.117227 26.438827 27.117226h61.01248L537.87136 458.107733c-4.744533 5.423787-7.456427 12.202667-7.456427 19.659947s2.71104 14.23616 7.456427 19.659093c4.745387 5.423787 11.52512 8.13568 18.304 8.13568 6.77888 0 13.558613-2.711893 18.304-8.13568l109.144747-113.88928 109.143893 113.88928c4.745387 5.423787 11.52512 8.13568 18.304 8.13568 6.77888 0 13.558613-2.711893 18.304-8.13568 4.744533-5.422933 7.45728-12.202667 7.45728-19.659093 0-7.45728-2.711893-14.23616-7.458133-19.659947L733.789867 358.454613h61.01248c14.23616 0 26.438827-12.202667 26.438826-27.117226 0-14.913707-11.52512-27.116373-26.438826-27.116374h-84.739414v-41.352533h84.739414c14.23616 0 26.438827-12.202667 26.438826-27.117227 0-14.913707-11.52512-27.116373-26.438826-27.116373h-84.739414v-66.436267c-0.6784-14.913707-12.202667-27.116373-26.438826-27.116373zM181.9648 565.896533c-14.23616 0-26.438827 12.202667-26.438827 27.117227 0 14.913707 11.524267 27.116373 26.438827 27.116373h286.08c14.237013 0 26.43968-12.202667 26.43968-27.116373 0-14.91456-11.52512-27.117227-26.438827-27.117227H181.9648z m0 119.991467c-14.23616 0-26.438827 12.202667-26.438827 27.116373 0 14.91456 11.524267 27.117227 26.438827 27.117227h452.847787c14.23616 0 26.438827-12.202667 26.438826-27.117227 0-14.913707-11.524267-27.116373-26.438826-27.116373H181.965653z"  horiz-adv-x="1024" />

    
    <glyph glyph-name="mail" unicode="&#58938;" d="M493.439692 432.64029a122.239924 122.239924 0 0 1 165.119896 0L1116.799302 860.160022A120.319925 120.319925 0 0 1 1031.039356 896H120.959924A120.319925 120.319925 0 0 1 35.199978 860.160022z m165.119896-138.239914a123.519923 123.519923 0 0 0-165.119896 0L0 755.200088v-762.879523A120.959924 120.959924 0 0 1 120.959924-127.99936000000002H1030.399356a120.959924 120.959924 0 0 1 85.759946 35.199978 118.399926 118.399926 0 0 1 35.839978 85.119947V755.200088z"  horiz-adv-x="1152" />

    
    <glyph glyph-name="canyuzhe" unicode="&#58944;" d="M1140.618971-86.454857l0.4096-4.330057c-0.234057-20.567771-16.266971-37.215086-35.927771-37.215086-19.807086 0-35.927771 16.910629-35.927771 37.653943v0.468114l-0.4096 4.359314c0 1.404343 0.117029 2.779429 0.292571 4.154515h-0.380343c-24.576 178.819657-167.233829 314.221714-338.592914 323.349943a286.427429 286.427429 0 0 0-18.549029-0.672915c-6.202514 0-12.375771 0.292571-18.490514 0.672915-170.978743-9.157486-313.373257-144.032914-338.358857-322.296686 0.2048-1.696914 0.351086-3.423086 0.351086-5.178514v-0.468115l0.4096-4.388571c-0.2048-20.801829-16.413257-37.653943-36.308115-37.653943-20.041143 0-36.366629 17.086171-36.366628 38.0928v0.468114l-0.4096 4.388572c0.058514 4.3008 0.8192 8.3968 2.106514 12.229485 13.838629 104.067657 61.791086 199.826286 136.426057 271.213715a427.885714 427.885714 0 0 0 135.9872 88.151771c-86.688914 55.032686-144.764343 154.858057-144.764343 268.668343C412.116114 728.2688 546.435657 869.083429 711.533714 869.083429c165.127314 0 299.446857-140.814629 299.446857-313.870629 0-113.751771-58.046171-213.577143-144.705828-268.639086 49.795657-20.011886 95.963429-49.737143 136.162743-88.151771 75.337143-72.118857 123.4944-168.989257 136.8064-274.197943 0.877714-3.247543 1.375086-6.641371 1.375085-10.181486v-0.468114zM316.942629-128c0 212.085029 177.386057 384 396.200228 384S1109.343086 84.085029 1109.343086-128H316.942629zM460.8 894.683429c19.602286 0 35.459657-16.647314 35.459657-37.185829 0-20.158171-15.272229-36.571429-34.347886-37.156571 0 0-21.679543 1.784686-32.826514 1.784685-126.303086 0-229.024914-107.695543-229.024914-240.113371 0-125.074286 91.721143-228.088686 208.369371-239.060114l2.486857 0.117028a34.347886 34.347886 0 0 0 22.176915-3.803428c11.410286-6.290286 19.163429-18.783086 19.163428-33.236115 0-20.6848-16.003657-37.449143-35.752228-37.449143-1.2288 0-2.4576 0.058514-3.6864 0.175543l-2.165029 0.146286c-170.978743-9.157486-313.344-144.032914-338.358857-322.296686 0.234057-1.696914 0.380343-3.423086 0.380343-5.178514v-0.468114l0.4096-4.388572c-0.234057-20.801829-16.442514-37.653943-36.337372-37.653943-20.041143 0-36.337371 17.086171-36.337371 38.0928v0.468115L0-58.133943c0.058514 4.3008 0.8192 8.3968 2.106514 12.229486 13.838629 104.067657 61.761829 199.826286 136.3968 271.213714a427.885714 427.885714 0 0 0 136.016457 88.122514c-86.718171 55.061943-144.7936 154.887314-144.7936 268.668343C129.726171 755.185371 264.074971 896 429.202286 896c9.654857 0 19.192686-0.526629 28.613485-1.462857 0.994743 0.087771 1.989486 0.146286 3.013486 0.146286z"  horiz-adv-x="1141" />

    
    <glyph glyph-name="xinxi" unicode="&#58966;" d="M779.70101 702.836364H202.278788c-59.862626 0-108.476768-48.614141-108.476768-108.476768v-378.69899c0-59.991919 48.614141-108.606061 108.476768-108.606061h90.117172V-41.373737c0-20.686869 23.531313-32.452525 40.080808-20.040404l224.711111 168.468686h222.513131c59.991919 0 108.476768 48.614141 108.476768 108.476768v378.828283c0 59.862626-48.614141 108.476768-108.476768 108.476768zM294.206061 352.323232c-27.410101 0-49.648485 22.238384-49.648485 49.648485s22.238384 49.648485 49.648485 49.648485 49.648485-22.238384 49.648484-49.648485-22.238384-49.648485-49.648484-49.648485z m198.593939 0c-27.410101 0-49.648485 22.238384-49.648485 49.648485s22.238384 49.648485 49.648485 49.648485 49.648485-22.238384 49.648485-49.648485-22.238384-49.648485-49.648485-49.648485z m198.593939 0c-27.410101 0-49.648485 22.238384-49.648484 49.648485s22.238384 49.648485 49.648484 49.648485 49.648485-22.238384 49.648485-49.648485-22.238384-49.648485-49.648485-49.648485z m0 0"  horiz-adv-x="1024" />

    
    <glyph glyph-name="gonggaoguanli" unicode="&#58979;" d="M892.1 539.5H730.2L604.1 665.6c7.2 14.1 11.6 29.8 11.6 46.7C615.7 769.6 569.3 816 512 816s-103.7-46.4-103.7-103.7c0-16.9 4.4-32.6 11.6-46.7L293.8 539.5H131.9c-19.1 0-34.6-15.5-34.6-34.6v-518.3c0-19.1 15.5-34.6 34.6-34.6h760.2c19.1 0 34.6 15.5 34.6 34.6V504.9c0 19.1-15.5 34.6-34.6 34.6z m-422.3 78.3c12.9-5.8 27.1-9.1 42.2-9.1 15.1 0 29.3 3.4 42.2 9.1l78.3-78.3h-241l78.3 78.3z m104.4-517.2H235.5c-22.9 0-41.5 18.6-41.5 41.5s18.6 41.5 41.5 41.5h338.7c22.9 0 41.5-18.6 41.5-41.5s-18.6-41.5-41.5-41.5zM747 308H235.5c-22.9 0-41.5 18.6-41.5 41.5s18.6 41.5 41.5 41.5H747c22.9 0 41.5-18.6 41.5-41.5 0-23-18.6-41.5-41.5-41.5z"  horiz-adv-x="1024" />

    
    <glyph glyph-name="liushuihaoguanli" unicode="&#59071;" d="M832 832H192c-70.4 0-128-57.6-128-128v-640c0-70.4 57.6-128 128-128h640c70.4 0 128 57.6 128 128V704c0 70.4-57.6 128-128 128z m64-768c0-35.2-28.8-64-64-64H192c-35.2 0-64 28.8-64 64V704c0 35.2 28.8 64 64 64h640c35.2 0 64-28.8 64-64v-640z m-67.2 81.6c0-17.6-14.4-32-32-32H227.2c-17.6 0-32 14.4-32 32s14.4 32 32 32h569.6c17.6 0 32-14.4 32-32z m-572.8 144h-52.8V624h60.8l96-206.4c4.8-6.4 8-16 14.4-32 0 6.4 0 16-1.6 28.8V624h52.8v-332.8H368l-100.8 208c-3.2 9.6-8 19.2-14.4 32 1.6-14.4 1.6-33.6 1.6-57.6v-184z m329.6-4.8c80 6.4 121.6 62.4 126.4 169.6-4.8 110.4-46.4 168-126.4 174.4-78.4-4.8-120-62.4-124.8-174.4 4.8-107.2 46.4-163.2 124.8-169.6z m0 278.4c40-1.6 60.8-38.4 62.4-108.8-1.6-70.4-22.4-105.6-62.4-107.2-41.6 4.8-62.4 40-65.6 107.2 3.2 68.8 24 105.6 65.6 108.8zM800 289.6h-59.2v73.6H800v-73.6z"  horiz-adv-x="1024" />

    
    <glyph glyph-name="yewuduixiangguanli" unicode="&#59129;" d="M883.2 544H140.8c-25.6 0-44.8 19.2-44.8 44.8V691.2c0 25.6 19.2 44.8 44.8 44.8h742.4c25.6 0 44.8-19.2 44.8-44.8v-102.4c0-25.6-19.2-44.8-44.8-44.8z m-723.2 64h704v64h-704v-64zM128 416h768v-64H128zM480 384h64v-64h-64zM192 32c-51.2 0-96 44.8-96 96s44.8 96 96 96 96-44.8 96-96-44.8-96-96-96z m0 128c-19.2 0-32-12.8-32-32s12.8-32 32-32 32 12.8 32 32-12.8 32-32 32zM832 32c-51.2 0-96 44.8-96 96s44.8 96 96 96 96-44.8 96-96-44.8-96-96-96z m0 128c-19.2 0-32-12.8-32-32s12.8-32 32-32 32 12.8 32 32-12.8 32-32 32zM512 32c-51.2 0-96 44.8-96 96s44.8 96 96 96 96-44.8 96-96-44.8-96-96-96z m0 128c-19.2 0-32-12.8-32-32s12.8-32 32-32 32 12.8 32 32-12.8 32-32 32z"  horiz-adv-x="1024" />

    
    <glyph glyph-name="shujuguanli" unicode="&#59209;" d="M860-65H164c-19.9 0-36 16.1-36 36s16.1 36 36 36h696c19.9 0 36-16.1 36-36s-16.1-36-36-36zM952 759v-560H72V759h880m0 72H72C32.2 831 0 798.8 0 759v-560c0-39.8 32.2-72 72-72h880c39.8 0 72 32.2 72 72V759c0 39.8-32.2 72-72 72zM792 256c-22.1 0-40 17.9-40 40V536c0 22.1 17.9 40 40 40s40-17.9 40-40v-240c0-22.1-17.9-40-40-40zM604 256c-22.6 0-41 18.4-41 41V637.8c0 22.6 18.4 41 41 41s41-18.4 41-41V297c0-22.6-18.4-41-41-41zM416 256c-21.5 0-39 17.5-39 39V473c0 21.5 17.5 39 39 39s39-17.5 39-39v-178c0-21.5-17.5-39-39-39zM228 256c-19.9 0-36 16.1-36 36v88c0 19.9 16.1 36 36 36s36-16.1 36-36v-88c0-19.9-16.1-36-36-36z"  horiz-adv-x="1024" />

    
    <glyph glyph-name="daimaguanli" unicode="&#58886;" d="M853.333333 896H170.666667a170.666667 170.666667 0 0 1-170.666667-170.666667v-682.666666a170.666667 170.666667 0 0 1 170.666667-170.666667h682.666666a170.666667 170.666667 0 0 1 170.666667 170.666667V725.333333a170.666667 170.666667 0 0 1-170.666667 170.666667z m85.333334-810.666667a128 128 0 0 0-128-128H213.333333a128 128 0 0 0-128 128V682.666667a128 128 0 0 0 128 128h597.333334a128 128 0 0 0 128-128zM85.333333 634.88h853.333334v-85.333333H85.333333zM336.940458 444.042904m30.16989-30.16989l0 0q30.169889-30.169889 0-60.339778l-120.679558-120.679558q-30.169889-30.169889-60.339778 0l0 0q-30.169889 30.169889 0 60.339779l120.679557 120.679557q30.169889 30.169889 60.339779 0ZM216.205737 323.248394m30.16989-30.169889l120.679557-120.679558q30.169889-30.169889 0-60.339778l0 0q-30.169889-30.169889-60.339779 0l-120.679557 120.679557q-30.169889 30.169889 0 60.339779l0 0q30.169889 30.169889 60.339779 0ZM872.002067 262.546026m-30.169889-30.16989l0 0q-30.169889-30.169889-60.339779 0l-120.679557 120.679558q-30.169889 30.169889 0 60.339778l0 0q30.169889 30.169889 60.339778 0l120.679558-120.679557q30.169889-30.169889 0-60.339779ZM871.893884 262.946106m-30.169889-30.16989l-120.679557-120.679557q-30.169889-30.169889-60.339779 0l0 0q-30.169889 30.169889 0 60.339779l120.679557 120.679557q30.169889 30.169889 60.339779 0l0 0q30.169889-30.169889 0-60.339779ZM536.856523 510.414875m41.212835-11.042946l0 0q41.212835-11.042946 30.169889-52.255781l-110.429459-412.128352q-11.042946-41.212835-52.255781-30.16989l0 0q-41.212835 11.042946-30.16989 52.255781l110.42946 412.128353q11.042946 41.212835 52.255781 30.169889Z"  horiz-adv-x="1024" />

    
    <glyph glyph-name="yuangongguanli" unicode="&#59139;" d="M301.6 538.9c0 108.7 80.4 194.2 177.9 194.2s177.9-88 177.9-194.2c0-108.7-80.4-194.2-177.9-194.2-97.5-2.5-177.9 85.5-177.9 194.2m390-305.5c7.3 15.5 2.4 36.2-9.7 44-24.4 15.5-48.7 28.5-75.6 38.8 70.7 46.6 114.6 132 112.1 230.4-4.9 134.6-104.8 246-226.7 251.1C357.6 803 245.5 683.9 245.5 538.9c0-93.2 46.3-176.1 112.1-222.7-126.7-46.5-224.2-160.5-258.3-305.4-4.9-18.1 4.9-36.2 19.5-41.4 17.1-5.2 31.7 5.2 36.6 23.3C192 153.2 323.6 272.3 479.6 272.3c63.4 0 119.4-18.1 170.6-51.8 14.6-7.8 31.6-2.6 41.4 12.9m229.1 31.1L867.1 205c-7.3-7.8-21.9-7.8-29.2 0l-34.1 36.2c-7.3 7.8-7.3 23.3 0 33.7l53.6 59.5c-9.7 2.6-17.1 5.2-26.8 5.2-51.2 0-95.1-46.6-95.1-103.6 0-18.1 4.9-33.7 12.2-49.2L596.5 44.4c-7.3-7.8-9.7-20.7-2.4-28.5l2.4-2.6 34.1-36.2c7.3-7.8 19.5-7.8 26.8 0l2.4 2.6L789 145.4c12.2-7.8 29.2-12.9 43.9-12.9 51.2 0 95.1 46.6 95.1 103.6-2.4 7.7-4.9 18-7.3 28.4"  horiz-adv-x="1024" />

    
    <glyph glyph-name="sanylogo" unicode="&#58883;" d="M859.1 117.3c0 4.9-3.8 8.8-8.7 8.9-2.7 0-5-1.1-6.6-2.9-83.4-88.5-201.8-143.7-332.5-143s-248.5 57.1-331 146.4c-1.6 1.8-3.9 3-6.6 3-4.9 0-8.8-3.9-8.8-8.8 0-2.2 0.8-4.2 2.1-5.7 78-105.4 202.8-174.1 344-174.8S777.8 7 856.9 111.6c1.3 1.6 2.2 3.5 2.2 5.7M560 797.1c-4.2-2.4-5.7-7.7-3.3-12 1.3-2.3 3.5-3.7 5.9-4.3 118.4-28 225.3-102.9 290.1-216.5 64.8-113.5 74.8-243.7 38.7-359.9-0.8-2.3-0.7-4.9 0.7-7.2 2.4-4.2 7.8-5.7 12-3.2 1.9 1.1 3.2 2.8 3.9 4.7 52.3 120.2 49.4 262.7-20.6 385.3-70.1 122.8-191.2 197.9-321.3 214.1-2 0.4-4.2 0.1-6.1-1M120.8 198.2c4.2-2.5 9.5-1.1 12 3.1 1.4 2.3 1.5 4.9 0.8 7.2C98.7 325 110.1 455.1 176.1 568 242 680.8 349.7 754.6 468.4 781.4c2.4 0.5 4.6 1.9 5.9 4.2 2.4 4.2 1 9.6-3.2 12-1.9 1.1-4.1 1.4-6 1-130.3-14.8-252.2-88.6-323.5-210.5C70.4 466.2 65.9 323.7 117 203c0.7-1.9 1.9-3.7 3.8-4.8M131 133.4l239.2 73.4 0.6 0.2h0.1l1.1 0.5c3.3 1.9 4.4 6.2 2.5 9.5-1.1 2-3.1 3.2-5.2 3.4l-34.2 6c-2.4 0.4-4.3 2.5-4.4 5.1 0 1.5 0.6 2.9 1.7 3.9l142.3 164c3.8 5.2 8.7 9.6 14.6 13.1 13.2 7.6 28.5 8.3 41.7 3.1L476.3 574 115.1 157.7c-4.5-4.6-5.6-11.9-2.2-17.8 3.7-6.4 11.5-9 18.1-6.5zM910.2 158.6L727 329.1l-0.4 0.4v0.1l-1 0.7c-3.3 1.9-7.6 0.8-9.5-2.6-1.1-2-1.2-4.3-0.3-6.2l11.9-32.6c0.9-2.3 0-5-2.2-6.3-1.3-0.8-2.8-0.9-4.1-0.5L508 323.2c-6.4 0.7-12.7 2.7-18.6 6.1-13.2 7.6-21.4 20.6-23.5 34.5L356.1 237.3l541-104.7c6.3-1.6 13.1 1.1 16.5 7 3.7 6.5 2 14.4-3.4 19zM442.7 576.8l-0.1-0.6-0.1-1.2c0-3.8 3.1-6.9 7-6.9 2.3 0 4.3 1.1 5.6 2.8l22.3 26.6c1.6 1.9 4.3 2.5 6.6 1.2 1.3-0.7 2.2-2 2.5-3.3l70.9-205.3c2.6-5.9 4-12.4 4-19.2 0-15.3-7.1-28.8-18.2-37.6l164.5-31.8L527.8 822.3c-1.8 6.2-7.5 10.8-14.3 10.8-7.4 0-13.1-5.3-14.2-12.4l-56.6-243.9z"  horiz-adv-x="1024" />

    
    <glyph glyph-name="shengchengfangan" unicode="&#59166;" d="M896 320h-256a64 64 0 1 0 0 128h256V768H448v-128a64 64 0 1 0-128 0V768H128v-320h192a64 64 0 1 0 128 0v-128a64 64 0 1 0-128 0H128v-320h192v128a64 64 0 1 0 128 0v-128h448V320zM128 896h768a128 128 0 0 0 128-128v-768a128 128 0 0 0-128-128H128a128 128 0 0 0-128 128V768a128 128 0 0 0 128 128z"  horiz-adv-x="1024" />

    
    <glyph glyph-name="biaodanmobanguanli" unicode="&#58959;" d="M512 844.8c66.176 0 119.744-55.68 119.744-124.352h59.904v-86.4H332.352v86.4h59.904C392.256 789.184 445.824 844.8 511.936 844.8z m-59.904-150.016h119.744c0 34.304-26.816 62.144-59.84 62.144-33.088 0-59.904-27.84-59.904-62.144z m207.552-597.376H367.68c-16.512 0-43.52 20.928-43.52 46.592 0 25.728 27.008 46.592 43.52 46.592h291.968c16.512 0 45.76-20.864 45.76-46.592 0-25.664-29.248-46.592-45.76-46.592z m0 172.8H367.68c-16.512 0-43.52 20.8-43.52 46.592 0 25.728 27.008 46.592 43.52 46.592h291.968c16.512 0 45.76-20.864 45.76-46.592 0-25.728-29.248-46.592-45.76-46.592z m0 171.392H367.68c-16.512 0-43.52 21.44-43.52 48 0 26.496 27.008 48 43.52 48h291.968c16.512 0 45.76-21.504 45.76-48s-29.248-48-45.76-48z m73.984 195.2v83.2H768c58.304 0 105.6-47.296 105.6-105.6v-576A105.6 105.6 0 0 0 768-67.2H256A105.6 105.6 0 0 0 150.4 38.4v576c0 58.304 47.296 105.6 105.6 105.6h31.232v-83.2H256a22.4 22.4 0 0 1-22.4-22.4v-576c0-12.352 10.048-22.4 22.4-22.4h512a22.4 22.4 0 0 1 22.4 22.4v576a22.4 22.4 0 0 1-22.4 22.4h-34.368z"  horiz-adv-x="1024" />

    
    <glyph glyph-name="shujuzidian" unicode="&#58881;" d="M881.124 64H64v-128h817.124C870.234-45.173 864-23.314 864 0s6.233 45.173 17.124 64zM992 64.015V64c-35.346 0-64-28.654-64-64 0-35.346 28.654-64 64-64 17.673 0 32-14.327 32-32 0-17.673-14.327-32-32-32H68.196C30.532-128 0-99.346 0-64V832C0.002 867.348 28.655 896 64 896h896c35.346 0 64-28.654 64-64v-735c0-17.89-14.237-32.456-32-32.985zM64 128h896V832H64v-704z m160 384c17.673 0 32-14.327 32-32v-256c0-17.673-14.327-32-32-32-17.673 0-32 14.327-32 32V480c0 17.673 14.327 32 32 32z m192 64c17.673 0 32-14.327 32-32v-320c0-17.673-14.327-32-32-32-17.673 0-32 14.327-32 32V544c0 17.673 14.327 32 32 32z m192 128c17.673 0 32-14.327 32-32v-448c0-17.673-14.327-32-32-32-17.673 0-32 14.327-32 32V672c0 17.673 14.327 32 32 32z m192 75c17.673 0 32-14.327 32-32v-523c0-17.673-14.327-32-32-32-17.673 0-32 14.327-32 32V747c0 17.673 14.327 32 32 32z"  horiz-adv-x="1024" />

    
    <glyph glyph-name="icon_role_management" unicode="&#58892;" d="M709.289839 756.407091C677.07609 808.620683 637.883397 851.572347 578.153863 872.91318 554.933045 881.101116 531.444228 888.35006 507.820413 896h-82.815353c-38.119702-14.764885-79.32638-24.159811-113.151116-45.233647a251.803033 251.803033 0 0 1-55.165569-377.302052c15.435879-17.717862 32.213748-34.361732 49.125616-52.213592l-22.280826-9.529926c-118.385075-50.736604-205.362396-133.14896-255.025008-250.998039C-1.961605 87.706315-0.886613 10.392919 0.589375-66.785478c0-36.509715 11.54291-47.784627 49.93161-48.052625h476.359279c6.844947 0 14.09389 0.939993 23.623815 1.609988a278.111827 278.111827 0 0 0-25.771798 41.475676c-8.052937 19.999844-21.206834 24.428809-41.742674 24.29481-125.097023-0.939993-250.328044 0-375.827064 0H78.439767a64.561496 64.561496 0 0 0-3.623971 9.931922c-6.173952 145.766861 40.267685 268.447903 168.85368 350.592261a581.993453 581.993453 0 0 0 86.977321 42.549668c55.970563 23.756814 116.237092 21.206834 174.490637 26.84379 123.888032 12.349904 197.845454 95.836251 229.924203 199.188444a205.630394 205.630394 0 0 1-25.769798 174.758635zM465.539743 447.693502c-107.379161 0-204.690401 83.486348-201.335427 195.966469C266.889295 753.051117 369.570493 831.572503 472.386689 828.485527c107.379161-3.623972 200.261435-82.547355 197.040461-197.442457-3.221975-102.279201-93.41927-184.692557-203.886407-183.484567zM783.516259 321.924485c8.052937-17.717862 16.239873-35.300724 24.159811-52.48159l17.717862-38.119702a61.339521 61.339521 0 0 1 47.380629-36.776713l55.702565-8.589933 45.099648-6.979945-7.113944-7.382943-68.185468-71.003445a62.011516 62.011516 0 0 1-16.777869-51.944594l1.878986-12.348904c4.965961-31.273756 9.931922-63.487504 15.30088-95.567253l-84.560339 47.515629a60.937524 60.937524 0 0 1-61.339521 0l-12.483903-7.113945c-17.448864-9.932922-35.569722-20.267842-53.68958-29.797767-6.576949-3.489973-12.616901-7.113944-18.522855-10.603917 5.503957 34.897727 11.274912 70.601448 17.180865 106.708166a61.339521 61.339521 0 0 1-17.045866 53.689581l-24.42981 26.307794-10.870915 11.273912-19.328849 20.133843-20.535839 21.341833 8.186936 1.34199 91.541285 13.422895a63.219506 63.219506 0 0 1 49.259615 37.447707q16.911868 36.777713 33.958735 73.554426l7.381942 16.106874m4.697963 76.7764h-9.260928a114.895102 114.895102 0 0 1-12.482902-4.563964 37.716705 37.716705 0 0 1-17.449864-19.059851c-18.521855-40.266685-37.17971-80.534371-55.567566-120.801057a9.932922 9.932922 0 0 0-8.456933-6.173951c-38.789697-5.771955-77.580394-11.945907-116.371091-17.851861-5.234959-0.804994-10.603917-1.34199-15.838877-2.54998a35.83772 35.83772 0 0 1-27.783783-25.771799 37.045711 37.045711 0 0 1 9.126929-38.253701q30.065765-31.676753 60.266529-63.219506l35.83772-37.313708a7.919938 7.919938 0 0 0 2.54998-7.649941q-11.408911-70.065453-22.414824-140.129905a37.448707 37.448707 0 0 1 28.857774-42.280669l3.354974-1.207991h9.261928a374.887071 374.887071 0 0 1 59.997531 31.94475c22.549824 12.079906 44.696651 24.965805 67.112475 37.582707a8.455934 8.455934 0 0 0 4.159968 1.342989 8.589933 8.589933 0 0 0 4.161967-1.342989q53.689581-30.602761 108.452153-60.802525a206.301388 206.301388 0 0 1 19.19385-8.321935h9.261928l5.368958 1.609987a38.789697 38.789697 0 0 1 26.84479 46.441637c-7.784939 45.501645-14.899884 91.003289-22.012828 136.638933a9.126929 9.126929 0 0 0 2.54998 6.577949q47.246631 49.528613 94.76226 98.922227a38.656698 38.656698 0 0 1 5.636956 49.126616 42.27967 42.27967 0 0 1-31.944751 17.582863c-41.475676 6.173952-82.950352 13.422895-124.559026 19.059851a8.187936 8.187936 0 0 0-6.979946 5.502957c-17.449864 37.985703-35.435723 75.702409-52.347591 113.956109a46.441637 46.441637 0 0 1-33.555738 31.005758z"  horiz-adv-x="1043" />

    
    <glyph glyph-name="bigger" unicode="&#58898;" d="M405.680533 284.71985600000005c-11.335163 11.335163-29.956266 11.335163-41.696658 0L192.745862 113.48082v96.347349c0 16.192797-13.359262 29.55206-29.552059 29.552059h-4.857635c-16.192797 0-29.55206-13.359262-29.55206-29.552059v-170.428578c0-4.453429 0.809435-8.501628 2.429329-12.144598 3.64297-12.144598 14.978133-21.050432 27.932166-21.050432h170.428578c16.192797 0 29.55206 13.359262 29.552059 29.55206v4.857635c0 16.192797-13.359262 29.55206-29.552059 29.552059h-90.27505l169.619142 169.619142c11.335163 11.335163 11.335163 29.956266 0 41.696658l-3.23774 3.237741zM863.127056 238.97499900000003h-4.857635c-16.192797 0-29.55206-13.359262-29.552059-29.55206v-96.347348L657.478326 284.314627c-11.335163 11.335163-29.956266 11.335163-41.696658 0l-3.238764-3.238764c-11.335163-11.335163-11.335163-29.956266 0-41.696658l169.619142-169.619142h-91.488691c-16.192797 0-29.55206-13.359262-29.552059-29.55206v-4.857635c0-16.192797 13.359262-29.55206 29.552059-29.552059h170.428578c13.359262 0 24.289196 8.905834 27.932166 21.050432 1.61887 3.64297 2.429329 7.691169 2.429329 12.144598V209.42293900000004c0.810459 16.598027-12.144598 29.55206-28.336372 29.55206zM889.844557 743.784226c-3.64297 12.144598-14.978133 21.050432-27.932166 21.050432H691.482791c-16.192797 0-29.55206-13.359262-29.55206-29.55206v-4.857634c0-16.192797 13.359262-29.55206 29.55206-29.55206h91.48869L612.948133 531.2547850000001c-11.335163-11.335163-11.335163-29.956266 0-41.696657l3.238764-3.238765c11.335163-11.335163 29.956266-11.335163 41.696658 0l171.239036 171.239036v-96.347348c0-16.192797 13.359262-29.55206 29.55206-29.55206h4.857634c16.192797 0 29.55206 13.359262 29.55206 29.55206V731.639628c-0.810459 4.453429-1.620917 8.501628-3.239788 12.144598zM239.300154 701.278133h91.488691c16.192797 0 29.55206 13.359262 29.55206 29.55206v4.857635c0 16.192797-13.359262 29.55206-29.55206 29.552059H160.360268c-13.359262 0-24.289196-8.905834-27.932166-21.050431-1.61887-3.64297-2.429329-7.691169-2.429329-12.144598v-170.428578c0-16.192797 13.359262-29.55206 29.55206-29.55206h4.857634c16.192797 0 29.55206 13.359262 29.55206 29.55206v95.942119l171.239036-171.239036c11.335163-11.335163 29.956266-11.335163 41.696657 0l3.238764 3.238765c11.335163 11.335163 11.335163 29.956266 0 41.696657L239.300154 701.278133z"  horiz-adv-x="1024" />

    
    <glyph glyph-name="fenjizuzhiguanli" unicode="&#59057;" d="M887.7 444.6l-100.2 43.1 100.2 43.1c52.4 22.6 52.4 98.7 0 121.3L578.3 785.3C557.1 794.4 534.5 799 512 799s-45.1-4.6-66.3-13.7L136.3 652.1c-52.4-22.6-52.4-98.7 0-121.3l100.2-43.1-100.2-43.1c-52.4-22.6-52.4-98.7 0-121.3l100.2-43.1-100.2-43.1c-52.4-22.6-52.4-98.7 0-121.3l309.4-133.2c21.2-9.1 43.7-13.7 66.3-13.7s45.1 4.6 66.3 13.7l309.4 133.2c52.4 22.6 52.4 98.7 0 121.3l-100.2 43.1 100.2 43.1c52.4 22.6 52.4 98.8 0 121.3zM138.5 591.5c0 4.9 1.4 17 14.2 22.5l309.4 133.2c15.9 6.8 32.7 10.3 49.9 10.3s34-3.5 49.9-10.3L871.3 614c12.8-5.5 14.2-17.6 14.2-22.5 0-4.9-1.4-17-14.2-22.5L561.9 435.8c-15.9-6.8-32.7-10.3-49.9-10.3s-34 3.5-49.9 10.3L152.7 569c-12.8 5.5-14.2 17.6-14.2 22.5zM871.3 199c12.8-5.5 14.2-17.6 14.2-22.5 0-4.9-1.4-17-14.2-22.5L561.9 20.799999999999955c-15.9-6.8-32.7-10.3-49.9-10.3s-34 3.5-49.9 10.3L152.7 154c-12.8 5.5-14.2 17.6-14.2 22.5 0 4.9 1.4 17 14.2 22.5L289 257.70000000000005l156.7-67.5c21.2-9.1 43.7-13.7 66.3-13.7s45.1 4.6 66.3 13.7L735 257.70000000000005 871.3 199z m0 162.5L561.9 228.29999999999995C546 221.5 529.2 218 512 218s-34 3.5-49.9 10.3L152.7 361.5c-12.8 5.5-14.2 17.6-14.2 22.5s1.4 17 14.2 22.5L289 465.2l156.7-67.5c21.2-9.1 43.7-13.7 66.3-13.7s45.1 4.6 66.3 13.7L735 465.2l136.2-58.6c12.8-5.5 14.2-17.6 14.2-22.5s-1.3-17.1-14.1-22.6z"  horiz-adv-x="1024" />

    
    <glyph glyph-name="liuchengshiliguanli" unicode="&#61033;" d="M727.374 688.921H167.402c-47.619 0-86.152-38.967-86.152-87.123v-566.28c0-48.067 38.533-87.117 86.152-87.117h559.972c47.537 0 86.151 39.05 86.151 87.117v566.28c0 48.155-38.614 87.123-86.151 87.123z m0-653.403H167.402v549.58h559.972v-549.58zM856.603 819.6H296.626c-47.619 0-86.151-38.967-86.151-87.122h646.128V79.08000000000004c47.533 0 86.147 39.049 86.147 87.122V732.4780000000001c0 48.155-38.614 87.122-86.147 87.122zM445.163 263.31500000000005c10.247 9.477 17.746 21.115 22.304 34.611h74.296c3.87-9.409 10.503-17.571 19.253-23.669 10.123-7.055 22.173-10.784 34.859-10.783l0.5 0.002c32.802 0.078 59.557 24.835 59.642 55.199-0.085 30.328-26.821 55.077-59.596 55.169l-0.54 0.002c-12.671 0-24.719-3.729-34.841-10.784-8.752-6.099-15.384-14.26-19.254-23.669H467.5c-9.424 28.166-31.583 48.821-59.722 55.685v15.437c0 13.421 12.729 25.194 27.239 25.194h106.746c3.87-9.411 10.503-17.572 19.253-23.671 10.122-7.054 22.175-10.782 34.863-10.782l0.496 0.002c32.802 0.079 59.557 24.836 59.642 55.199-0.085 30.341-26.832 55.09-59.62 55.169l-0.514 0.003c-12.67 0-24.717-3.729-34.841-10.785-8.753-6.099-15.386-14.26-19.256-23.668H435.079c-0.233 0.002-0.462 0.002-0.695 0.002-19.084 0-37.026-6.872-50.523-19.352-13.483-12.469-21.114-29.72-20.937-47.312v-15.89c-14.586-4.216-27.165-11.149-37.405-20.622-10.245-9.477-17.738-21.115-22.286-34.609h-42.058c-13.198 0-22.416-8.526-22.416-20.734 0-12.207 9.218-20.732 22.416-20.732h42.051c9.427-28.169 31.584-48.821 59.723-55.685v-15.382c-0.179-17.63 7.45-34.892 20.928-47.357 13.497-12.485 31.44-19.36 50.523-19.36 0.229 0 0.461 0.001 0.617 0.003h106.746c3.87-9.41 10.503-17.571 19.254-23.67 10.123-7.055 22.171-10.783 34.843-10.783h0.017l0.499 0.002c32.802 0.079 59.557 24.837 59.642 55.199-0.085 30.342-26.831 55.091-59.616 55.168l-0.541 0.003c-12.672 0-24.719-3.728-34.843-10.783-8.751-6.1-15.384-14.259-19.254-23.669h-106.77c-14.511 0-27.239 11.772-27.239 25.193v15.891c14.586 4.214 27.165 11.148 37.408 20.618z m-16.673 55.362c-0.067-21.953-19.427-39.866-43.149-39.93-23.793 0-43.149 17.899-43.149 39.896 0.065 21.95 19.42 39.861 43.149 39.929 23.726-0.068 43.081-17.968 43.149-39.895z m149.533-0.018c0 10.619 6.854 16.96 18.335 16.96 11.48 0 18.334-6.341 18.334-16.96 0-10.605-6.863-16.938-18.382-16.938l-0.829-0.008c-10.932 0.328-17.458 6.66-17.458 16.946z m-3.506 137.782c0 12.07 8.778 20.18 21.842 20.18 13.048 0 21.814-8.109 21.814-20.18 0-12.082-8.767-20.199-21.814-20.199-13.064 0-21.842 8.117-21.842 20.199z m3.506-275.563c0 10.619 6.854 16.959 18.335 16.959 11.48 0 18.334-6.34 18.334-16.959s-6.854-16.959-18.334-16.959c-11.481 0-18.335 6.34-18.335 16.959z"  horiz-adv-x="1024" />

    
    <glyph glyph-name="homepage" unicode="&#58899;" d="M945.664 378.88L545.28 745.472c-17.408 16.384-48.64 16.384-66.048 0L79.36 379.39200000000005c-14.336-12.288-18.432-30.72-10.752-47.616 7.68-16.384 24.064-26.112 43.008-26.112h43.008c12.288 0 22.016-9.216 22.016-20.48v-318.976c0-23.552 20.992-43.008 46.592-43.008h162.816c25.6 0 46.592 19.456 46.592 43.008V197.63199999999995c0 11.264 9.728 20.48 22.016 20.48h114.688c12.288 0 22.016-9.216 22.016-20.48v-231.424c0-23.552 20.992-43.008 47.104-43.008H801.28c26.112 0 47.616 19.456 47.616 43.008V284.672c0 6.144 1.536 10.24 6.144 14.336 4.096 3.584 9.728 5.632 15.872 5.632h40.448c18.944 0 35.328 10.24 43.008 26.112 8.704 16.896 4.608 35.84-8.704 48.128z"  horiz-adv-x="1024" />

    
    <glyph glyph-name="changyongyuguanli" unicode="&#59135;" d="M907.636364 174.54545499999995v512h-791.272728v-512h238.359273L512 17.26836400000002l157.277091 157.277091H907.636364zM512-81.45454500000005l-186.181818 186.181818H46.545455V756.363636h930.90909v-651.636363h-279.272727l-186.181818-186.181818zM508.462545 573.626182l-19.083636-44.776727-14.615273-34.21091-5.632-13.218909-14.289454-1.861818-34.350546-4.421818-45.009454-5.911273c-4.189091-0.558545-7.912727-1.024-11.170909-1.536 2.653091-2.792727 5.818182-5.957818 9.541818-9.728l33.233454-33.512727 25.460364-25.6 9.309091-9.309091-2.327273-12.893091-6.749091-37.050182-8.797091-48.407272c-0.744727-4.189091-1.396364-7.912727-1.861818-11.310546l6.516364 3.956364 39.656727 24.017454 30.161455 18.292364 13.079272 7.912727 13.032728-7.912727 30.208-18.292364 39.656727-24.017454 6.702545-4.002909a1131.054545 1131.054545 0 0 1-2.001454 11.357091l-8.797091 48.407272-6.702545 37.003637-2.327273 12.939636 9.216 9.309091 25.506909 25.646545 33.186909 33.466182 9.634909 9.774546-11.264 1.489454-44.916364 5.864728-34.443636 4.514909-14.289454 1.861818-5.632 13.218909-14.568728 34.164364-19.083636 44.776727a187.950545 187.950545 0 0 1-3.118546 6.888727 187.764364 187.764364 0 0 1-3.072-6.888727z m-65.442909-25.041455l19.083637 44.776728c27.601455 64.698182 71.307636 64.698182 98.909091 0l19.083636-44.730182 8.890182-20.945455 20.154182-2.606545 44.962909-5.864728c81.175273-10.612364 89.134545-38.027636 30.859636-96.768l-33.186909-33.419636-16.244364-16.384 4.375273-24.064 8.750546-48.407273c8.704-47.941818 9.355636-57.064727-4.561455-71.354181-18.478545-18.897455-34.769455-12.939636-75.776 11.915636l-39.656727 24.017454-17.128728 10.379637-17.128727-10.379637-39.610182-24.017454c-36.864-22.341818-49.757091-27.554909-68.561454-15.453091-19.735273 12.660364-19.828364 30.673455-11.822546 74.891636l8.797091 48.407273 4.375273 24.110546-16.197818 16.290909-33.28 33.512727c-57.111273 57.483636-49.012364 86.248727 30.859636 96.674909l45.009455 5.911273 20.154182 2.606545 8.890181 20.945455z"  horiz-adv-x="1024" />

    
    <glyph glyph-name="zhuye" unicode="&#58907;" d="M585.143 896S224.305 591.238 21.9429 427.886c-14.6286-9.75238-21.9429-26.819-21.9429-43.8857 0-31.6952 26.819-56.0762 58.5143-56.0762h117.029v-397.41C175.543-103.61900000000003 202.362-128 234.057-128h175.543c31.6952 0 58.5143 24.381 58.5143 56.0762v226.743h234.057v-226.743c0-31.6952 26.819-56.0762 58.5143-56.0762h175.543c31.6952 0 58.5143 24.381 58.5143 56.0762V327.924h117.029c31.6952 0 58.5143 24.381 58.5143 56.0762 0 17.0667-7.31429 34.1333-21.9429 43.8857C945.981 591.238 585.143 896 585.143 896Z"  horiz-adv-x="1170" />

    
    <glyph glyph-name="more" unicode="&#59006;" d="M358.4 754.9c16.2 0 30.1-5.6 41.7-16.8 11.6-11.2 17.3-24.9 17.3-41.2v-233.8c0-16.2-5.7-30.1-17.3-41.7-11.6-11.6-25.4-17.3-41.7-17.3H124.6c-16.2 0-29.9 5.7-41.2 17.3-11.2 11.6-16.8 25.4-16.8 41.7V696.9c0 16.2 5.6 29.9 16.8 41.2 11.2 11.2 24.9 16.8 41.2 16.8h233.8z m0-467.6c16.2 0 30.1-5.6 41.7-16.8 11.6-11.2 17.3-24.9 17.3-41.2v-234.8c0-16.2-5.7-29.9-17.3-41.2-11.6-11.2-25.4-16.8-41.7-16.8H124.6c-16.2 0-29.9 5.6-41.2 16.8s-16.8 24.9-16.8 41.2V229.29999999999995c0 16.2 5.6 29.9 16.8 41.2 11.2 11.3 24.9 16.8 41.2 16.8h233.8z m468.5 0c16.2 0 29.9-5.6 41.2-16.8 11.2-11.2 16.8-24.9 16.8-41.2v-234.8c0-16.2-5.6-29.9-16.8-41.2-11.2-11.2-24.9-16.8-41.2-16.8H593.2c-16.2 0-30.1 5.6-41.7 16.8-11.6 11.2-17.3 24.9-17.3 41.2V229.29999999999995c0 16.2 5.7 29.9 17.3 41.2 11.6 11.2 25.4 16.8 41.7 16.8h233.7z m116.2 364.8c12.5-12.5 18.7-27.1 18.7-43.9 0-16.8-6.2-31.2-18.7-43.1l-174-174c-12.5-12.5-26.9-18.7-43.4-18.7s-31 6.2-43.4 18.7l-174 174c-11.9 11.9-17.8 26.2-17.8 43.1 0 16.8 5.9 31.5 17.8 43.9L682.2 826c12.5 11.9 26.9 17.8 43.4 17.8s31-5.9 43.4-17.8l174.1-173.9z"  horiz-adv-x="1024" />

    
    </font>
</defs>
</svg>
