<?xml version="1.0" standalone="no"?><!DOCTYPE svg PUBLIC "-//W3C//DTD SVG 1.1//EN" "http://www.w3.org/Graphics/SVG/1.1/DTD/svg11.dtd"><svg t="1566686414001" class="icon" viewBox="0 0 1024 1024" version="1.1" xmlns="http://www.w3.org/2000/svg" p-id="1474" xmlns:xlink="http://www.w3.org/1999/xlink" width="200" height="200"><defs><style type="text/css"></style></defs><path d="M448 96H128a32 32 0 0 0-32 32v320a32 32 0 0 0 32 32h320a32 32 0 0 0 32-32V128a32 32 0 0 0-32-32z m-32 320H160V160h256zM896 96H576a32 32 0 0 0-32 32v320a32 32 0 0 0 32 32h320a32 32 0 0 0 32-32V128a32 32 0 0 0-32-32z m-32 320H608V160h256zM448 544H128a32 32 0 0 0-32 32v320a32 32 0 0 0 32 32h320a32 32 0 0 0 32-32V576a32 32 0 0 0-32-32z m-32 320H160V608h256zM896 544H576a32 32 0 0 0-32 32v320a32 32 0 0 0 32 32h320a32 32 0 0 0 32-32V576a32 32 0 0 0-32-32z m-32 320H608V608h256z" p-id="1475" fill="#1296db"></path></svg>